<?xml version="1.0" encoding="utf-8" standalone="no"?>
<!DOCTYPE svg PUBLIC "-//W3C//DTD SVG 1.1//EN"
  "http://www.w3.org/Graphics/SVG/1.1/DTD/svg11.dtd">
<svg xmlns:xlink="http://www.w3.org/1999/xlink" width="460.8pt" height="345.6pt" viewBox="0 0 460.8 345.6" xmlns="http://www.w3.org/2000/svg" version="1.1">
 <metadata>
  <rdf:RDF xmlns:dc="http://purl.org/dc/elements/1.1/" xmlns:cc="http://creativecommons.org/ns#" xmlns:rdf="http://www.w3.org/1999/02/22-rdf-syntax-ns#">
   <cc:Work>
    <dc:type rdf:resource="http://purl.org/dc/dcmitype/StillImage"/>
    <dc:date>2024-01-26T15:35:09.288892</dc:date>
    <dc:format>image/svg+xml</dc:format>
    <dc:creator>
     <cc:Agent>
      <dc:title>Matplotlib v3.8.2, https://matplotlib.org/</dc:title>
     </cc:Agent>
    </dc:creator>
   </cc:Work>
  </rdf:RDF>
 </metadata>
 <defs>
  <style type="text/css">*{stroke-linejoin: round; stroke-linecap: butt}</style>
 </defs>
 <g id="figure_1">
  <g id="patch_1">
   <path d="M 0 345.6 
L 460.8 345.6 
L 460.8 0 
L 0 0 
z
" style="fill: #ffffff"/>
  </g>
  <g id="patch_2">
   <path d="M 103.104 307.584 
L 369.216 307.584 
L 369.216 41.472 
L 103.104 41.472 
z
" style="fill: #ffffff"/>
  </g>
  <g id="pane3d_1">
   <g id="patch_3">
    <path d="M 345.169778 223.341539 
L 192.786014 212.117176 
L 192.118197 94.164142 
L 346.727536 100.911361 
" style="fill: #f2f2f2; opacity: 0.5; stroke: #f2f2f2; stroke-linejoin: miter"/>
   </g>
  </g>
  <g id="pane3d_2">
   <g id="patch_4">
    <path d="M 126.790412 244.876105 
L 192.786014 212.117176 
L 192.118197 94.164142 
L 124.999561 113.877146 
" style="fill: #e6e6e6; opacity: 0.5; stroke: #e6e6e6; stroke-linejoin: miter"/>
   </g>
  </g>
  <g id="pane3d_3">
   <g id="patch_5">
    <path d="M 294.31154 258.847119 
L 345.169778 223.341539 
L 192.786014 212.117176 
L 126.790412 244.876105 
" style="fill: #ececec; opacity: 0.5; stroke: #ececec; stroke-linejoin: miter"/>
   </g>
  </g>
  <g id="grid3d_1">
   <g id="Line3DCollection_1">
    <path d="M 297.903266 256.339633 
L 131.432145 242.57204 
L 129.727357 112.488574 
" style="fill: none; stroke: #b0b0b0; stroke-width: 0.8"/>
    <path d="M 310.594443 247.479562 
L 147.856562 234.419279 
L 146.447693 107.577746 
" style="fill: none; stroke: #b0b0b0; stroke-width: 0.8"/>
    <path d="M 322.628902 239.077964 
L 163.464414 226.671846 
L 162.32433 102.914717 
" style="fill: none; stroke: #b0b0b0; stroke-width: 0.8"/>
    <path d="M 334.056333 231.100151 
L 178.315119 219.300246 
L 177.419555 98.48119 
" style="fill: none; stroke: #b0b0b0; stroke-width: 0.8"/>
   </g>
  </g>
  <g id="grid3d_2">
   <g id="Line3DCollection_2">
    <path d="M 336.527025 100.466206 
L 335.121281 222.601382 
L 283.219356 257.922047 
" style="fill: none; stroke: #b0b0b0; stroke-width: 0.8"/>
    <path d="M 299.652473 98.856985 
L 298.790153 219.925285 
L 243.168462 254.581862 
" style="fill: none; stroke: #b0b0b0; stroke-width: 0.8"/>
    <path d="M 263.439746 97.276646 
L 263.101792 217.296533 
L 203.907964 251.307595 
" style="fill: none; stroke: #b0b0b0; stroke-width: 0.8"/>
    <path d="M 227.871183 95.724418 
L 228.039288 214.713881 
L 165.414693 248.097313 
" style="fill: none; stroke: #b0b0b0; stroke-width: 0.8"/>
   </g>
  </g>
  <g id="grid3d_3">
   <g id="Line3DCollection_3">
    <path d="M 126.755143 242.296207 
L 192.772841 209.790534 
L 345.200488 220.92789 
" style="fill: none; stroke: #b0b0b0; stroke-width: 0.8"/>
    <path d="M 126.489921 222.895504 
L 192.673809 192.299032 
L 345.431388 202.780597 
" style="fill: none; stroke: #b0b0b0; stroke-width: 0.8"/>
    <path d="M 126.223451 203.403516 
L 192.574359 174.733636 
L 345.663301 184.553652 
" style="fill: none; stroke: #b0b0b0; stroke-width: 0.8"/>
    <path d="M 125.955725 183.819598 
L 192.474488 157.093878 
L 345.896234 166.24653 
" style="fill: none; stroke: #b0b0b0; stroke-width: 0.8"/>
    <path d="M 125.686733 164.143099 
L 192.374193 139.379284 
L 346.130194 147.858701 
" style="fill: none; stroke: #b0b0b0; stroke-width: 0.8"/>
    <path d="M 125.416467 144.37336 
L 192.273471 121.589377 
L 346.365188 129.389629 
" style="fill: none; stroke: #b0b0b0; stroke-width: 0.8"/>
    <path d="M 125.144916 124.509717 
L 192.172321 103.723675 
L 346.601223 110.838776 
" style="fill: none; stroke: #b0b0b0; stroke-width: 0.8"/>
   </g>
  </g>
  <g id="axis3d_1">
   <g id="line2d_1">
    <path d="M 345.169778 223.341539 
L 294.31154 258.847119 
" style="fill: none; stroke: #000000; stroke-width: 0.8; stroke-linecap: square"/>
   </g>
   <g id="xtick_1">
    <g id="line2d_2">
     <path d="M 296.514645 256.22479 
L 300.683379 256.569556 
" style="fill: none; stroke: #000000; stroke-width: 0.8; stroke-linecap: square"/>
    </g>
    <g id="text_1">
     <!-- -2 -->
     <g transform="translate(307.264479 275.49865) scale(0.1 -0.1)">
      <defs>
       <path id="SimHei-2d" d="M 2975 2125 
L 125 2125 
L 125 2525 
L 2975 2525 
L 2975 2125 
z
" transform="scale(0.015625)"/>
       <path id="SimHei-32" d="M 300 250 
Q 325 625 650 925 
Q 975 1225 1475 1862 
Q 1975 2500 2125 2850 
Q 2275 3200 2237 3450 
Q 2200 3700 2000 3862 
Q 1800 4025 1537 4000 
Q 1275 3975 1037 3800 
Q 800 3625 675 3275 
L 200 3350 
Q 400 3925 712 4187 
Q 1025 4450 1450 4475 
Q 1700 4500 1900 4462 
Q 2100 4425 2312 4287 
Q 2525 4150 2662 3875 
Q 2800 3600 2762 3212 
Q 2725 2825 2375 2287 
Q 2025 1750 1025 600 
L 2825 600 
L 2825 150 
L 300 150 
L 300 250 
z
" transform="scale(0.015625)"/>
      </defs>
      <use xlink:href="#SimHei-2d"/>
      <use xlink:href="#SimHei-32" x="50"/>
     </g>
    </g>
   </g>
   <g id="xtick_2">
    <g id="line2d_3">
     <path d="M 309.238438 247.370738 
L 313.309182 247.697429 
" style="fill: none; stroke: #000000; stroke-width: 0.8; stroke-linecap: square"/>
    </g>
    <g id="text_2">
     <!-- -1 -->
     <g transform="translate(319.601011 266.29232) scale(0.1 -0.1)">
      <defs>
       <path id="SimHei-31" d="M 1400 3600 
Q 1075 3275 575 2975 
L 575 3450 
Q 1200 3875 1600 4450 
L 1900 4450 
L 1900 150 
L 1400 150 
L 1400 3600 
z
" transform="scale(0.015625)"/>
      </defs>
      <use xlink:href="#SimHei-2d"/>
      <use xlink:href="#SimHei-31" x="50"/>
     </g>
    </g>
   </g>
   <g id="xtick_3">
    <g id="line2d_4">
     <path d="M 321.304041 238.974697 
L 325.281222 239.2847 
" style="fill: none; stroke: #000000; stroke-width: 0.8; stroke-linecap: square"/>
    </g>
    <g id="text_3">
     <!-- 0 -->
     <g transform="translate(333.797823 257.563391) scale(0.1 -0.1)">
      <defs>
       <path id="SimHei-30" d="M 225 2537 
Q 250 3200 412 3587 
Q 575 3975 875 4225 
Q 1175 4475 1612 4475 
Q 2050 4475 2375 4112 
Q 2700 3750 2800 3200 
Q 2900 2650 2862 1937 
Q 2825 1225 2612 775 
Q 2400 325 1975 150 
Q 1550 -25 1125 187 
Q 700 400 525 750 
Q 350 1100 275 1487 
Q 200 1875 225 2537 
z
M 750 2687 
Q 675 2000 800 1462 
Q 925 925 1212 700 
Q 1500 475 1800 612 
Q 2100 750 2237 1162 
Q 2375 1575 2375 2062 
Q 2375 2550 2337 2950 
Q 2300 3350 2112 3675 
Q 1925 4000 1612 4012 
Q 1300 4025 1062 3700 
Q 825 3375 750 2687 
z
" transform="scale(0.015625)"/>
      </defs>
      <use xlink:href="#SimHei-30"/>
     </g>
    </g>
   </g>
   <g id="xtick_4">
    <g id="line2d_5">
     <path d="M 332.761238 231.002026 
L 336.648997 231.296587 
" style="fill: none; stroke: #000000; stroke-width: 0.8; stroke-linecap: square"/>
    </g>
    <g id="text_4">
     <!-- 1 -->
     <g transform="translate(344.903417 249.275667) scale(0.1 -0.1)">
      <use xlink:href="#SimHei-31"/>
     </g>
    </g>
   </g>
  </g>
  <g id="axis3d_2">
   <g id="line2d_6">
    <path d="M 126.790412 244.876105 
L 294.31154 258.847119 
" style="fill: none; stroke: #000000; stroke-width: 0.8; stroke-linecap: square"/>
   </g>
   <g id="xtick_5">
    <g id="line2d_7">
     <path d="M 283.683045 257.606494 
L 282.289351 258.554941 
" style="fill: none; stroke: #000000; stroke-width: 0.8; stroke-linecap: square"/>
    </g>
    <g id="text_5">
     <!-- -2 -->
     <g transform="translate(273.305676 279.310673) scale(0.1 -0.1)">
      <use xlink:href="#SimHei-2d"/>
      <use xlink:href="#SimHei-32" x="50"/>
     </g>
    </g>
   </g>
   <g id="xtick_6">
    <g id="line2d_8">
     <path d="M 243.664866 254.272564 
L 242.17287 255.202192 
" style="fill: none; stroke: #000000; stroke-width: 0.8; stroke-linecap: square"/>
    </g>
    <g id="text_6">
     <!-- -1 -->
     <g transform="translate(232.967224 275.796532) scale(0.1 -0.1)">
      <use xlink:href="#SimHei-2d"/>
      <use xlink:href="#SimHei-31" x="50"/>
     </g>
    </g>
   </g>
   <g id="xtick_7">
    <g id="line2d_9">
     <path d="M 204.435709 251.004368 
L 202.849544 251.915732 
" style="fill: none; stroke: #000000; stroke-width: 0.8; stroke-linecap: square"/>
    </g>
    <g id="text_7">
     <!-- 0 -->
     <g transform="translate(195.931474 272.35232) scale(0.1 -0.1)">
      <use xlink:href="#SimHei-30"/>
     </g>
    </g>
   </g>
   <g id="xtick_8">
    <g id="line2d_10">
     <path d="M 165.972465 247.79998 
L 164.296083 248.693613 
" style="fill: none; stroke: #000000; stroke-width: 0.8; stroke-linecap: square"/>
    </g>
    <g id="text_8">
     <!-- 1 -->
     <g transform="translate(157.174701 268.975969) scale(0.1 -0.1)">
      <use xlink:href="#SimHei-31"/>
     </g>
    </g>
   </g>
  </g>
  <g id="axis3d_3">
   <g id="line2d_11">
    <path d="M 126.790412 244.876105 
L 124.999561 113.877146 
" style="fill: none; stroke: #000000; stroke-width: 0.8; stroke-linecap: square"/>
   </g>
   <g id="xtick_9">
    <g id="line2d_12">
     <path d="M 127.342562 242.006975 
L 125.577105 242.876247 
" style="fill: none; stroke: #000000; stroke-width: 0.8; stroke-linecap: square"/>
    </g>
    <g id="text_9">
     <!-- 0 -->
     <g transform="translate(104.715068 251.082617) scale(0.1 -0.1)">
      <use xlink:href="#SimHei-30"/>
     </g>
    </g>
   </g>
   <g id="xtick_10">
    <g id="line2d_13">
     <path d="M 127.078958 222.623195 
L 125.308631 223.441608 
" style="fill: none; stroke: #000000; stroke-width: 0.8; stroke-linecap: square"/>
    </g>
    <g id="text_10">
     <!-- 20 -->
     <g transform="translate(101.902119 231.570102) scale(0.1 -0.1)">
      <use xlink:href="#SimHei-32"/>
      <use xlink:href="#SimHei-30" x="50"/>
     </g>
    </g>
   </g>
   <g id="xtick_11">
    <g id="line2d_14">
     <path d="M 126.814116 203.148293 
L 125.038891 203.915358 
" style="fill: none; stroke: #000000; stroke-width: 0.8; stroke-linecap: square"/>
    </g>
    <g id="text_11">
     <!-- 40 -->
     <g transform="translate(101.587689 211.965226) scale(0.1 -0.1)">
      <defs>
       <path id="SimHei-34" d="M 2000 1100 
L 75 1100 
L 75 1525 
L 2100 4450 
L 2475 4450 
L 2475 1525 
L 3075 1525 
L 3075 1100 
L 2475 1100 
L 2475 150 
L 2000 150 
L 2000 1100 
z
M 2000 1525 
L 2000 3500 
L 600 1525 
L 2000 1525 
z
" transform="scale(0.015625)"/>
      </defs>
      <use xlink:href="#SimHei-34"/>
      <use xlink:href="#SimHei-30" x="50"/>
     </g>
    </g>
   </g>
   <g id="xtick_12">
    <g id="line2d_15">
     <path d="M 126.548025 183.581626 
L 124.767877 184.296848 
" style="fill: none; stroke: #000000; stroke-width: 0.8; stroke-linecap: square"/>
    </g>
    <g id="text_12">
     <!-- 60 -->
     <g transform="translate(101.271767 192.26733) scale(0.1 -0.1)">
      <defs>
       <path id="SimHei-36" d="M 250 1612 
Q 275 1975 387 2225 
Q 500 2475 725 2850 
L 1750 4450 
L 2325 4450 
L 1275 2800 
Q 1950 2975 2350 2750 
Q 2750 2525 2887 2237 
Q 3025 1950 3037 1612 
Q 3050 1275 2937 950 
Q 2825 625 2537 362 
Q 2250 100 1737 75 
Q 1225 50 862 262 
Q 500 475 362 862 
Q 225 1250 250 1612 
z
M 1025 787 
Q 1250 550 1625 525 
Q 2000 500 2250 775 
Q 2500 1050 2500 1575 
Q 2500 2100 2187 2300 
Q 1875 2500 1487 2450 
Q 1100 2400 925 2075 
Q 750 1750 775 1387 
Q 800 1025 1025 787 
z
" transform="scale(0.015625)"/>
      </defs>
      <use xlink:href="#SimHei-36"/>
      <use xlink:href="#SimHei-30" x="50"/>
     </g>
    </g>
   </g>
   <g id="xtick_13">
    <g id="line2d_16">
     <path d="M 126.280678 163.922543 
L 124.495579 164.585424 
" style="fill: none; stroke: #000000; stroke-width: 0.8; stroke-linecap: square"/>
    </g>
    <g id="text_13">
     <!-- 80 -->
     <g transform="translate(100.954342 172.475752) scale(0.1 -0.1)">
      <defs>
       <path id="SimHei-38" d="M 175 1375 
Q 175 1675 325 1962 
Q 475 2250 825 2425 
Q 525 2600 425 2812 
Q 325 3025 312 3300 
Q 300 3575 387 3775 
Q 475 3975 650 4150 
Q 825 4325 1037 4387 
Q 1250 4450 1500 4450 
Q 1750 4450 1950 4400 
Q 2150 4350 2375 4187 
Q 2600 4025 2700 3725 
Q 2800 3425 2687 3025 
Q 2575 2625 2100 2400 
Q 2525 2275 2700 2012 
Q 2875 1750 2875 1375 
Q 2875 1000 2762 775 
Q 2650 550 2512 400 
Q 2375 250 2137 162 
Q 1900 75 1537 75 
Q 1175 75 912 162 
Q 650 250 475 425 
Q 300 600 237 837 
Q 175 1075 175 1375 
z
M 687 1400 
Q 675 1100 787 875 
Q 900 650 1200 587 
Q 1500 525 1825 600 
Q 2150 675 2275 950 
Q 2400 1225 2362 1500 
Q 2325 1775 2050 1962 
Q 1775 2150 1450 2125 
Q 1125 2100 912 1900 
Q 700 1700 687 1400 
z
M 775 3350 
Q 775 3100 950 2875 
Q 1125 2650 1500 2650 
Q 1875 2650 2062 2875 
Q 2250 3100 2237 3412 
Q 2225 3725 2012 3875 
Q 1800 4025 1437 4000 
Q 1075 3975 925 3787 
Q 775 3600 775 3350 
z
" transform="scale(0.015625)"/>
      </defs>
      <use xlink:href="#SimHei-38"/>
      <use xlink:href="#SimHei-30" x="50"/>
     </g>
    </g>
   </g>
   <g id="xtick_14">
    <g id="line2d_17">
     <path d="M 126.012065 144.170388 
L 124.221989 144.780422 
" style="fill: none; stroke: #000000; stroke-width: 0.8; stroke-linecap: square"/>
    </g>
    <g id="text_14">
     <!-- 100 -->
     <g transform="translate(98.135405 152.589821) scale(0.1 -0.1)">
      <use xlink:href="#SimHei-31"/>
      <use xlink:href="#SimHei-30" x="50"/>
      <use xlink:href="#SimHei-30" x="100"/>
     </g>
    </g>
   </g>
   <g id="xtick_15">
    <g id="line2d_18">
     <path d="M 125.742177 124.324499 
L 123.947096 124.881176 
" style="fill: none; stroke: #000000; stroke-width: 0.8; stroke-linecap: square"/>
    </g>
    <g id="text_15">
     <!-- 120 -->
     <g transform="translate(97.814943 132.60886) scale(0.1 -0.1)">
      <use xlink:href="#SimHei-31"/>
      <use xlink:href="#SimHei-32" x="50"/>
      <use xlink:href="#SimHei-30" x="100"/>
     </g>
    </g>
   </g>
  </g>
  <g id="axes_1">
   <g id="Poly3DCollection_1">
    <path d="M 203.326626 150.359687 
L 206.756993 143.496754 
L 197.951683 125.181992 
L 194.477663 132.622506 
z
" clip-path="url(#pf626af3bc4)" style="fill: #1d70aa"/>
    <path d="M 212.171835 166.078814 
L 215.557955 159.800206 
L 206.756993 143.496754 
L 203.326626 150.359687 
z
" clip-path="url(#pf626af3bc4)" style="fill: #1d70aa"/>
    <path d="M 221.019727 179.788862 
L 224.360939 174.102193 
L 215.557955 159.800206 
L 212.171835 166.078814 
z
" clip-path="url(#pf626af3bc4)" style="fill: #1d70aa"/>
    <path d="M 229.876759 191.495895 
L 233.172332 186.409671 
L 224.360939 174.102193 
L 221.019727 179.788862 
z
" clip-path="url(#pf626af3bc4)" style="fill: #1d70aa"/>
    <path d="M 238.749422 201.203074 
L 241.99855 196.726725 
L 233.172332 186.409671 
L 229.876759 191.495895 
z
" clip-path="url(#pf626af3bc4)" style="fill: #1d70a9"/>
    <path d="M 247.644254 208.910645 
L 250.846054 205.054558 
L 241.99855 196.726725 
L 238.749422 201.203074 
z
" clip-path="url(#pf626af3bc4)" style="fill: #1d70a9"/>
    <path d="M 256.567862 214.615932 
L 259.721368 211.391484 
L 250.846054 205.054558 
L 247.644254 208.910645 
z
" clip-path="url(#pf626af3bc4)" style="fill: #1d70a9"/>
    <path d="M 199.857881 157.070929 
L 203.326626 150.359687 
L 194.477663 132.622506 
L 190.965122 139.915968 
z
" clip-path="url(#pf626af3bc4)" style="fill: #1d70aa"/>
    <path d="M 208.747489 172.200731 
L 212.171835 166.078814 
L 203.326626 150.359687 
L 199.857881 157.070929 
z
" clip-path="url(#pf626af3bc4)" style="fill: #1d70aa"/>
    <path d="M 217.640453 185.313466 
L 221.019727 179.788862 
L 212.171835 166.078814 
L 208.747489 172.200731 
z
" clip-path="url(#pf626af3bc4)" style="fill: #1d70aa"/>
    <path d="M 265.526931 218.313302 
L 268.63109 215.732906 
L 259.721368 211.391484 
L 256.567862 214.615932 
z
" clip-path="url(#pf626af3bc4)" style="fill: #1d6fa8"/>
    <path d="M 226.543304 196.414286 
L 229.876759 191.495895 
L 221.019727 179.788862 
L 217.640453 185.313466 
z
" clip-path="url(#pf626af3bc4)" style="fill: #1d70aa"/>
    <path d="M 235.462607 205.505408 
L 238.749422 201.203074 
L 229.876759 191.495895 
L 226.543304 196.414286 
z
" clip-path="url(#pf626af3bc4)" style="fill: #1d70a9"/>
    <path d="M 274.528249 219.99413 
L 277.581917 218.071278 
L 268.63109 215.732906 
L 265.526931 218.313302 
z
" clip-path="url(#pf626af3bc4)" style="fill: #1c6ca4"/>
    <path d="M 244.404981 212.586102 
L 247.644254 208.910645 
L 238.749422 201.203074 
L 235.462607 205.505408 
z
" clip-path="url(#pf626af3bc4)" style="fill: #1d70a9"/>
    <path d="M 196.34984 163.628526 
L 199.857881 157.070929 
L 190.965122 139.915968 
L 187.413149 147.06059 
z
" clip-path="url(#pf626af3bc4)" style="fill: #1d70aa"/>
    <path d="M 283.578718 219.646751 
L 286.580655 218.396062 
L 277.581917 218.071278 
L 274.528249 219.99413 
z
" clip-path="url(#pf626af3bc4)" style="fill: #0c2e45"/>
    <path d="M 253.377115 217.652674 
L 256.567862 214.615932 
L 247.644254 208.910645 
L 244.404981 212.586102 
z
" clip-path="url(#pf626af3bc4)" style="fill: #1d6fa9"/>
    <path d="M 205.283996 178.163834 
L 208.747489 172.200731 
L 199.857881 157.070929 
L 196.34984 163.628526 
z
" clip-path="url(#pf626af3bc4)" style="fill: #1d70aa"/>
    <path d="M 214.222196 190.673701 
L 217.640453 185.313466 
L 208.747489 172.200731 
L 205.283996 178.163834 
z
" clip-path="url(#pf626af3bc4)" style="fill: #1d70aa"/>
    <path d="M 223.171042 201.162349 
L 226.543304 196.414286 
L 217.640453 185.313466 
L 214.222196 190.673701 
z
" clip-path="url(#pf626af3bc4)" style="fill: #1d70a9"/>
    <path d="M 262.385784 220.69843 
L 265.526931 218.313302 
L 256.567862 214.615932 
L 253.377115 217.652674 
z
" clip-path="url(#pf626af3bc4)" style="fill: #1d6fa7"/>
    <path d="M 292.685377 217.256398 
L 295.634238 216.693674 
L 286.580655 218.396062 
L 283.578718 219.646751 
z
" clip-path="url(#pf626af3bc4)" style="fill: #0b293e"/>
    <path d="M 232.137176 209.631031 
L 235.462607 205.505408 
L 226.543304 196.414286 
L 223.171042 201.162349 
z
" clip-path="url(#pf626af3bc4)" style="fill: #1d70a9"/>
    <path d="M 271.43787 221.713641 
L 274.528249 219.99413 
L 265.526931 218.313302 
L 262.385784 220.69843 
z
" clip-path="url(#pf626af3bc4)" style="fill: #1b689e"/>
    <path d="M 241.127301 216.078015 
L 244.404981 212.586102 
L 235.462607 205.505408 
L 232.137176 209.631031 
z
" clip-path="url(#pf626af3bc4)" style="fill: #1d70a9"/>
    <path d="M 301.855418 212.805126 
L 304.749751 212.947412 
L 295.634238 216.693674 
L 292.685377 217.256398 
z
" clip-path="url(#pf626af3bc4)" style="fill: #0b293f"/>
    <path d="M 192.801562 170.03046 
L 196.34984 163.628526 
L 187.413149 147.06059 
L 183.820805 154.054516 
z
" clip-path="url(#pf626af3bc4)" style="fill: #1d70aa"/>
    <path d="M 201.780411 183.965927 
L 205.283996 178.163834 
L 196.34984 163.628526 
L 192.801562 170.03046 
z
" clip-path="url(#pf626af3bc4)" style="fill: #1d70aa"/>
    <path d="M 250.148191 220.498565 
L 253.377115 217.652674 
L 244.404981 212.586102 
L 241.127301 216.078015 
z
" clip-path="url(#pf626af3bc4)" style="fill: #1d6fa8"/>
    <path d="M 280.540373 220.685481 
L 283.578718 219.646751 
L 274.528249 219.99413 
L 271.43787 221.713641 
z
" clip-path="url(#pf626af3bc4)" style="fill: #0b293f"/>
    <path d="M 210.764003 195.867186 
L 214.222196 190.673701 
L 205.283996 178.163834 
L 201.780411 183.965927 
z
" clip-path="url(#pf626af3bc4)" style="fill: #1d70aa"/>
    <path d="M 219.759016 205.737506 
L 223.171042 201.162349 
L 214.222196 190.673701 
L 210.764003 195.867186 
z
" clip-path="url(#pf626af3bc4)" style="fill: #1d70a9"/>
    <path d="M 259.206711 222.884902 
L 262.385784 220.69843 
L 253.377115 217.652674 
L 250.148191 220.498565 
z
" clip-path="url(#pf626af3bc4)" style="fill: #1d6ea6"/>
    <path d="M 311.096208 206.27173 
L 313.934444 207.137379 
L 304.749751 212.947412 
L 301.855418 212.805126 
z
" clip-path="url(#pf626af3bc4)" style="fill: #0b2a3f"/>
    <path d="M 289.700439 217.597968 
L 292.685377 217.256398 
L 283.578718 219.646751 
L 280.540373 220.685481 
z
" clip-path="url(#pf626af3bc4)" style="fill: #0b293e"/>
    <path d="M 228.772171 213.577152 
L 232.137176 209.631031 
L 223.171042 201.162349 
L 219.759016 205.737506 
z
" clip-path="url(#pf626af3bc4)" style="fill: #1d70a9"/>
    <path d="M 268.309839 223.226159 
L 271.43787 221.713641 
L 262.385784 220.69843 
L 259.206711 222.884902 
z
" clip-path="url(#pf626af3bc4)" style="fill: #16537e"/>
    <path d="M 237.810253 219.383369 
L 241.127301 216.078015 
L 232.137176 209.631031 
L 228.772171 213.577152 
z
" clip-path="url(#pf626af3bc4)" style="fill: #1d70a9"/>
    <path d="M 189.212075 176.274639 
L 192.801562 170.03046 
L 183.820805 154.054516 
L 180.187125 160.895826 
z
" clip-path="url(#pf626af3bc4)" style="fill: #1d70aa"/>
    <path d="M 320.415307 197.63164 
L 323.195755 199.240384 
L 313.934444 207.137379 
L 311.096208 206.27173 
z
" clip-path="url(#pf626af3bc4)" style="fill: #0b2a3f"/>
    <path d="M 198.235757 189.60474 
L 201.780411 183.965927 
L 192.801562 170.03046 
L 189.212075 176.274639 
z
" clip-path="url(#pf626af3bc4)" style="fill: #1d70aa"/>
    <path d="M 298.92537 212.431879 
L 301.855418 212.805126 
L 292.685377 217.256398 
L 289.700439 217.597968 
z
" clip-path="url(#pf626af3bc4)" style="fill: #0b2a3f"/>
    <path d="M 246.880124 223.150353 
L 250.148191 220.498565 
L 241.127301 216.078015 
L 237.810253 219.383369 
z
" clip-path="url(#pf626af3bc4)" style="fill: #1d6fa8"/>
    <path d="M 207.264895 200.891457 
L 210.764003 195.867186 
L 201.780411 183.965927 
L 198.235757 189.60474 
z
" clip-path="url(#pf626af3bc4)" style="fill: #1d70aa"/>
    <path d="M 277.464679 221.508322 
L 280.540373 220.685481 
L 271.43787 221.713641 
L 268.309839 223.226159 
z
" clip-path="url(#pf626af3bc4)" style="fill: #0b293e"/>
    <path d="M 216.306242 210.137087 
L 219.759016 205.737506 
L 210.764003 195.867186 
L 207.264895 200.891457 
z
" clip-path="url(#pf626af3bc4)" style="fill: #1d70a9"/>
    <path d="M 255.988745 224.869211 
L 259.206711 222.884902 
L 250.148191 220.498565 
L 246.880124 223.150353 
z
" clip-path="url(#pf626af3bc4)" style="fill: #1c6ca4"/>
    <path d="M 308.222653 205.164661 
L 311.096208 206.27173 
L 301.855418 212.805126 
L 298.92537 212.431879 
z
" clip-path="url(#pf626af3bc4)" style="fill: #0b2a3f"/>
    <path d="M 225.366603 217.340886 
L 228.772171 213.577152 
L 219.759016 205.737506 
L 216.306242 210.137087 
z
" clip-path="url(#pf626af3bc4)" style="fill: #1d70a9"/>
    <path d="M 329.820493 186.856811 
L 332.54133 189.22984 
L 323.195755 199.240384 
L 320.415307 197.63164 
z
" clip-path="url(#pf626af3bc4)" style="fill: #0b2a3f"/>
    <path d="M 286.678481 217.714155 
L 289.700439 217.597968 
L 280.540373 220.685481 
L 277.464679 221.508322 
z
" clip-path="url(#pf626af3bc4)" style="fill: #0b293f"/>
    <path d="M 265.143188 224.527907 
L 268.309839 223.226159 
L 259.206711 222.884902 
L 255.988745 224.869211 
z
" clip-path="url(#pf626af3bc4)" style="fill: #0c2e45"/>
    <path d="M 234.452844 222.499048 
L 237.810253 219.383369 
L 228.772171 213.577152 
L 225.366603 217.340886 
z
" clip-path="url(#pf626af3bc4)" style="fill: #1d6fa9"/>
    <path d="M 185.58038 182.358899 
L 189.212075 176.274639 
L 180.187125 160.895826 
L 176.511112 167.582532 
z
" clip-path="url(#pf626af3bc4)" style="fill: #1d70aa"/>
    <path d="M 194.649031 195.07792 
L 198.235757 189.60474 
L 189.212075 176.274639 
L 185.58038 182.358899 
z
" clip-path="url(#pf626af3bc4)" style="fill: #1d70aa"/>
    <path d="M 317.599973 195.770321 
L 320.415307 197.63164 
L 311.096208 206.27173 
L 308.222653 205.164661 
z
" clip-path="url(#pf626af3bc4)" style="fill: #0b2a3f"/>
    <path d="M 295.958664 211.823121 
L 298.92537 212.431879 
L 289.700439 217.597968 
L 286.678481 217.714155 
z
" clip-path="url(#pf626af3bc4)" style="fill: #0b2a3f"/>
    <path d="M 203.723863 205.743964 
L 207.264895 200.891457 
L 198.235757 189.60474 
L 194.649031 195.07792 
z
" clip-path="url(#pf626af3bc4)" style="fill: #1d70a9"/>
    <path d="M 243.57192 225.604675 
L 246.880124 223.150353 
L 237.810253 219.383369 
L 234.452844 222.499048 
z
" clip-path="url(#pf626af3bc4)" style="fill: #1d6fa7"/>
    <path d="M 274.350662 222.111204 
L 277.464679 221.508322 
L 268.309839 223.226159 
L 265.143188 224.527907 
z
" clip-path="url(#pf626af3bc4)" style="fill: #0b293e"/>
    <path d="M 212.811708 214.358331 
L 216.306242 210.137087 
L 207.264895 200.891457 
L 203.723863 205.743964 
z
" clip-path="url(#pf626af3bc4)" style="fill: #1d70a9"/>
    <path d="M 252.730885 226.647729 
L 255.988745 224.869211 
L 246.880124 223.150353 
L 243.57192 225.604675 
z
" clip-path="url(#pf626af3bc4)" style="fill: #1b689e"/>
    <path d="M 221.919453 220.919245 
L 225.366603 217.340886 
L 216.306242 210.137087 
L 212.811708 214.358331 
z
" clip-path="url(#pf626af3bc4)" style="fill: #1d70a9"/>
    <path d="M 305.312836 203.811277 
L 308.222653 205.164661 
L 298.92537 212.431879 
L 295.958664 211.823121 
z
" clip-path="url(#pf626af3bc4)" style="fill: #0b2a3f"/>
    <path d="M 283.618529 217.600581 
L 286.678481 217.714155 
L 277.464679 221.508322 
L 274.350662 222.111204 
z
" clip-path="url(#pf626af3bc4)" style="fill: #0b293f"/>
    <path d="M 327.065244 184.219311 
L 329.820493 186.856811 
L 320.415307 197.63164 
L 317.599973 195.770321 
z
" clip-path="url(#pf626af3bc4)" style="fill: #0b2a3f"/>
    <path d="M 181.905448 188.280999 
L 185.58038 182.358899 
L 176.511112 167.582532 
L 172.791745 174.112576 
z
" clip-path="url(#pf626af3bc4)" style="fill: #1d70aa"/>
    <path d="M 231.054053 225.421826 
L 234.452844 222.499048 
L 225.366603 217.340886 
L 221.919453 220.919245 
z
" clip-path="url(#pf626af3bc4)" style="fill: #1d6fa8"/>
    <path d="M 261.936913 225.614977 
L 265.143188 224.527907 
L 255.988745 224.869211 
L 252.730885 226.647729 
z
" clip-path="url(#pf626af3bc4)" style="fill: #0b293f"/>
    <path d="M 191.019197 200.383034 
L 194.649031 195.07792 
L 185.58038 182.358899 
L 181.905448 188.280999 
z
" clip-path="url(#pf626af3bc4)" style="fill: #1d70aa"/>
    <path d="M 200.139866 210.422066 
L 203.723863 205.743964 
L 194.649031 195.07792 
L 191.019197 200.383034 
z
" clip-path="url(#pf626af3bc4)" style="fill: #1d70a9"/>
    <path d="M 240.222552 227.858049 
L 243.57192 225.604675 
L 234.452844 222.499048 
L 231.054053 225.421826 
z
" clip-path="url(#pf626af3bc4)" style="fill: #1d6ea6"/>
    <path d="M 292.954326 210.974142 
L 295.958664 211.823121 
L 286.678481 217.714155 
L 283.618529 217.600581 
z
" clip-path="url(#pf626af3bc4)" style="fill: #0b2a3f"/>
    <path d="M 314.748812 193.651167 
L 317.599973 195.770321 
L 308.222653 205.164661 
L 305.312836 203.811277 
z
" clip-path="url(#pf626af3bc4)" style="fill: #0b2a3f"/>
    <path d="M 271.197319 222.48992 
L 274.350662 222.111204 
L 265.143188 224.527907 
L 261.936913 225.614977 
z
" clip-path="url(#pf626af3bc4)" style="fill: #0b293e"/>
    <path d="M 209.274368 218.398381 
L 212.811708 214.358331 
L 203.723863 205.743964 
L 200.139866 210.422066 
z
" clip-path="url(#pf626af3bc4)" style="fill: #1d70a9"/>
    <path d="M 249.432102 228.216703 
L 252.730885 226.647729 
L 243.57192 225.604675 
L 240.222552 227.858049 
z
" clip-path="url(#pf626af3bc4)" style="fill: #16537e"/>
    <path d="M 218.429671 224.309141 
L 221.919453 220.919245 
L 212.811708 214.358331 
L 209.274368 218.398381 
z
" clip-path="url(#pf626af3bc4)" style="fill: #1d70a9"/>
    <path d="M 302.365783 202.206515 
L 305.312836 203.811277 
L 295.958664 211.823121 
L 292.954326 210.974142 
z
" clip-path="url(#pf626af3bc4)" style="fill: #0b2a3f"/>
    <path d="M 178.186218 194.038619 
L 181.905448 188.280999 
L 172.791745 174.112576 
L 169.027968 180.483825 
z
" clip-path="url(#pf626af3bc4)" style="fill: #1d70aa"/>
    <path d="M 280.519579 217.252713 
L 283.618529 217.600581 
L 274.350662 222.111204 
L 271.197319 222.48992 
z
" clip-path="url(#pf626af3bc4)" style="fill: #0b2a3f"/>
    <path d="M 324.274645 181.311686 
L 327.065244 184.219311 
L 317.599973 195.770321 
L 314.748812 193.651167 
z
" clip-path="url(#pf626af3bc4)" style="fill: #0b2a3f"/>
    <path d="M 227.612822 228.148364 
L 231.054053 225.421826 
L 221.919453 220.919245 
L 218.429671 224.309141 
z
" clip-path="url(#pf626af3bc4)" style="fill: #1d6fa8"/>
    <path d="M 187.345189 205.517561 
L 191.019197 200.383034 
L 181.905448 188.280999 
L 178.186218 194.038619 
z
" clip-path="url(#pf626af3bc4)" style="fill: #1d70aa"/>
    <path d="M 258.689981 226.483322 
L 261.936913 225.614977 
L 252.730885 226.647729 
L 249.432102 228.216703 
z
" clip-path="url(#pf626af3bc4)" style="fill: #0b293e"/>
    <path d="M 196.511833 214.923034 
L 200.139866 210.422066 
L 191.019197 200.383034 
L 187.345189 205.517561 
z
" clip-path="url(#pf626af3bc4)" style="fill: #1d70a9"/>
    <path d="M 236.830959 229.906873 
L 240.222552 227.858049 
L 231.054053 225.421826 
L 227.612822 228.148364 
z
" clip-path="url(#pf626af3bc4)" style="fill: #1c6ca4"/>
    <path d="M 289.911348 209.880065 
L 292.954326 210.974142 
L 283.618529 217.600581 
L 280.519579 217.252713 
z
" clip-path="url(#pf626af3bc4)" style="fill: #0b2a3f"/>
    <path d="M 205.693143 222.254279 
L 209.274368 218.398381 
L 200.139866 210.422066 
L 196.511833 214.923034 
z
" clip-path="url(#pf626af3bc4)" style="fill: #1d70a9"/>
    <path d="M 311.860851 191.268729 
L 314.748812 193.651167 
L 305.312836 203.811277 
L 302.365783 202.206515 
z
" clip-path="url(#pf626af3bc4)" style="fill: #0b2a3f"/>
    <path d="M 268.003614 222.640112 
L 271.197319 222.48992 
L 261.936913 225.614977 
L 258.689981 226.483322 
z
" clip-path="url(#pf626af3bc4)" style="fill: #0b293f"/>
    <path d="M 246.091332 229.572248 
L 249.432102 228.216703 
L 240.222552 227.858049 
L 236.830959 229.906873 
z
" clip-path="url(#pf626af3bc4)" style="fill: #0c2e45"/>
    <path d="M 214.896175 227.507376 
L 218.429671 224.309141 
L 209.274368 218.398381 
L 205.693143 222.254279 
z
" clip-path="url(#pf626af3bc4)" style="fill: #1d6fa9"/>
    <path d="M 174.421598 199.629358 
L 178.186218 194.038619 
L 169.027968 180.483825 
L 165.218695 186.694072 
z
" clip-path="url(#pf626af3bc4)" style="fill: #1d70aa"/>
    <path d="M 299.380487 200.345128 
L 302.365783 202.206515 
L 292.954326 210.974142 
L 289.911348 209.880065 
z
" clip-path="url(#pf626af3bc4)" style="fill: #0b2a3f"/>
    <path d="M 277.38059 216.665863 
L 280.519579 217.252713 
L 271.197319 222.48992 
L 268.003614 222.640112 
z
" clip-path="url(#pf626af3bc4)" style="fill: #0b2a3f"/>
    <path d="M 183.625909 210.478896 
L 187.345189 205.517561 
L 178.186218 194.038619 
L 174.421598 199.629358 
z
" clip-path="url(#pf626af3bc4)" style="fill: #1d70a9"/>
    <path d="M 224.128065 230.675208 
L 227.612822 228.148364 
L 218.429671 224.309141 
L 214.896175 227.507376 
z
" clip-path="url(#pf626af3bc4)" style="fill: #1d6fa7"/>
    <path d="M 321.447724 178.128079 
L 324.274645 181.311686 
L 314.748812 193.651167 
L 311.860851 191.268729 
z
" clip-path="url(#pf626af3bc4)" style="fill: #0b2a3f"/>
    <path d="M 255.401326 227.128756 
L 258.689981 226.483322 
L 249.432102 228.216703 
L 246.091332 229.572248 
z
" clip-path="url(#pf626af3bc4)" style="fill: #0b293e"/>
    <path d="M 192.838658 219.24404 
L 196.511833 214.923034 
L 187.345189 205.517561 
L 183.625909 210.478896 
z
" clip-path="url(#pf626af3bc4)" style="fill: #1d70a9"/>
    <path d="M 233.396048 231.747418 
L 236.830959 229.906873 
L 227.612822 228.148364 
L 224.128065 230.675208 
z
" clip-path="url(#pf626af3bc4)" style="fill: #1b689e"/>
    <path d="M 202.066922 225.922965 
L 205.693143 222.254279 
L 196.511833 214.923034 
L 192.838658 219.24404 
z
" clip-path="url(#pf626af3bc4)" style="fill: #1d70a9"/>
    <path d="M 286.828691 208.535844 
L 289.911348 209.880065 
L 280.519579 217.252713 
L 277.38059 216.665863 
z
" clip-path="url(#pf626af3bc4)" style="fill: #0b2a3f"/>
    <path d="M 264.768475 222.557269 
L 268.003614 222.640112 
L 258.689981 226.483322 
L 255.401326 227.128756 
z
" clip-path="url(#pf626af3bc4)" style="fill: #0b293f"/>
    <path d="M 308.935084 188.617368 
L 311.860851 191.268729 
L 302.365783 202.206515 
L 299.380487 200.345128 
z
" clip-path="url(#pf626af3bc4)" style="fill: #0b2a3f"/>
    <path d="M 211.317845 230.510639 
L 214.896175 227.507376 
L 205.693143 222.254279 
L 202.066922 225.922965 
z
" clip-path="url(#pf626af3bc4)" style="fill: #1d6fa8"/>
    <path d="M 242.707477 230.710342 
L 246.091332 229.572248 
L 236.830959 229.906873 
L 233.396048 231.747418 
z
" clip-path="url(#pf626af3bc4)" style="fill: #0b293f"/>
    <path d="M 170.610461 205.050729 
L 174.421598 199.629358 
L 165.218695 186.694072 
L 161.362806 192.74103 
z
" clip-path="url(#pf626af3bc4)" style="fill: #1d70aa"/>
    <path d="M 179.860222 215.264336 
L 183.625909 210.478896 
L 174.421598 199.629358 
L 170.610461 205.050729 
z
" clip-path="url(#pf626af3bc4)" style="fill: #1d70a9"/>
    <path d="M 220.598657 232.998783 
L 224.128065 230.675208 
L 214.896175 227.507376 
L 211.317845 230.510639 
z
" clip-path="url(#pf626af3bc4)" style="fill: #1d6ea6"/>
    <path d="M 274.200491 215.835172 
L 277.38059 216.665863 
L 268.003614 222.640112 
L 264.768475 222.557269 
z
" clip-path="url(#pf626af3bc4)" style="fill: #0b2a3f"/>
    <path d="M 296.355909 198.221685 
L 299.380487 200.345128 
L 289.911348 209.880065 
L 286.828691 208.535844 
z
" clip-path="url(#pf626af3bc4)" style="fill: #0b2a3f"/>
    <path d="M 252.069843 227.546943 
L 255.401326 227.128756 
L 246.091332 229.572248 
L 242.707477 230.710342 
z
" clip-path="url(#pf626af3bc4)" style="fill: #0b293e"/>
    <path d="M 189.1192 223.382156 
L 192.838658 219.24404 
L 183.625909 210.478896 
L 179.860222 215.264336 
z
" clip-path="url(#pf626af3bc4)" style="fill: #1d70a9"/>
    <path d="M 318.583477 174.662424 
L 321.447724 178.128079 
L 311.860851 191.268729 
L 308.935084 188.617368 
z
" clip-path="url(#pf626af3bc4)" style="fill: #0b2a3f"/>
    <path d="M 229.916691 233.375824 
L 233.396048 231.747418 
L 224.128065 230.675208 
L 220.598657 232.998783 
z
" clip-path="url(#pf626af3bc4)" style="fill: #16537e"/>
    <path d="M 198.394558 229.40127 
L 202.066922 225.922965 
L 192.838658 219.24404 
L 189.1192 223.382156 
z
" clip-path="url(#pf626af3bc4)" style="fill: #1d70a9"/>
    <path d="M 283.70528 206.936249 
L 286.828691 208.535844 
L 277.38059 216.665863 
L 274.200491 215.835172 
z
" clip-path="url(#pf626af3bc4)" style="fill: #0b2a3f"/>
    <path d="M 261.490797 222.236721 
L 264.768475 222.557269 
L 255.401326 227.128756 
L 252.069843 227.546943 
z
" clip-path="url(#pf626af3bc4)" style="fill: #0b2a3f"/>
    <path d="M 305.97047 185.691239 
L 308.935084 188.617368 
L 299.380487 200.345128 
L 296.355909 198.221685 
z
" clip-path="url(#pf626af3bc4)" style="fill: #0b2a3f"/>
    <path d="M 207.69353 233.315503 
L 211.317845 230.510639 
L 202.066922 225.922965 
L 198.394558 229.40127 
z
" clip-path="url(#pf626af3bc4)" style="fill: #1d6fa8"/>
    <path d="M 166.751647 210.300156 
L 170.610461 205.050729 
L 161.362806 192.74103 
L 157.45915 198.622331 
z
" clip-path="url(#pf626af3bc4)" style="fill: #1d70aa"/>
    <path d="M 239.279402 231.626821 
L 242.707477 230.710342 
L 233.396048 231.747418 
L 229.916691 233.375824 
z
" clip-path="url(#pf626af3bc4)" style="fill: #0b293e"/>
    <path d="M 176.046961 219.871087 
L 179.860222 215.264336 
L 170.610461 205.050729 
L 166.751647 210.300156 
z
" clip-path="url(#pf626af3bc4)" style="fill: #1d70a9"/>
    <path d="M 217.023439 235.115387 
L 220.598657 232.998783 
L 211.317845 230.510639 
L 207.69353 233.315503 
z
" clip-path="url(#pf626af3bc4)" style="fill: #1c6ca4"/>
    <path d="M 270.978171 214.755611 
L 274.200491 215.835172 
L 264.768475 222.557269 
L 261.490797 222.236721 
z
" clip-path="url(#pf626af3bc4)" style="fill: #0b2a3f"/>
    <path d="M 185.352285 227.334353 
L 189.1192 223.382156 
L 179.860222 215.264336 
L 176.046961 219.871087 
z
" clip-path="url(#pf626af3bc4)" style="fill: #1d70a9"/>
    <path d="M 293.29097 195.830557 
L 296.355909 198.221685 
L 286.828691 208.535844 
L 283.70528 206.936249 
z
" clip-path="url(#pf626af3bc4)" style="fill: #0b2a3f"/>
    <path d="M 248.694394 227.733395 
L 252.069843 227.546943 
L 242.707477 230.710342 
L 239.279402 231.626821 
z
" clip-path="url(#pf626af3bc4)" style="fill: #0b293f"/>
    <path d="M 315.680865 170.908433 
L 318.583477 174.662424 
L 308.935084 188.617368 
L 305.97047 185.691239 
z
" clip-path="url(#pf626af3bc4)" style="fill: #0b2a3f"/>
    <path d="M 226.39172 234.788094 
L 229.916691 233.375824 
L 220.598657 232.998783 
L 217.023439 235.115387 
z
" clip-path="url(#pf626af3bc4)" style="fill: #0c2e45"/>
    <path d="M 194.674868 232.685913 
L 198.394558 229.40127 
L 189.1192 223.382156 
L 185.352285 227.334353 
z
" clip-path="url(#pf626af3bc4)" style="fill: #1d6fa9"/>
    <path d="M 280.540003 205.075864 
L 283.70528 206.936249 
L 274.200491 215.835172 
L 270.978171 214.755611 
z
" clip-path="url(#pf626af3bc4)" style="fill: #0b2a3f"/>
    <path d="M 258.169436 221.67363 
L 261.490797 222.236721 
L 252.069843 227.546943 
L 248.694394 227.733395 
z
" clip-path="url(#pf626af3bc4)" style="fill: #0b2a3f"/>
    <path d="M 162.843958 215.374972 
L 166.751647 210.300156 
L 157.45915 198.622331 
L 153.506535 204.335522 
z
" clip-path="url(#pf626af3bc4)" style="fill: #1d70a9"/>
    <path d="M 204.022037 235.918422 
L 207.69353 233.315503 
L 198.394558 229.40127 
L 194.674868 232.685913 
z
" clip-path="url(#pf626af3bc4)" style="fill: #1d6fa7"/>
    <path d="M 302.965933 182.484285 
L 305.97047 185.691239 
L 296.355909 198.221685 
L 293.29097 195.830557 
z
" clip-path="url(#pf626af3bc4)" style="fill: #0b2a3f"/>
    <path d="M 235.805936 232.317374 
L 239.279402 231.626821 
L 229.916691 233.375824 
L 226.39172 234.788094 
z
" clip-path="url(#pf626af3bc4)" style="fill: #0b293e"/>
    <path d="M 172.18492 224.296255 
L 176.046961 219.871087 
L 166.751647 210.300156 
L 162.843958 215.374972 
z
" clip-path="url(#pf626af3bc4)" style="fill: #1d70a9"/>
    <path d="M 213.401212 237.021185 
L 217.023439 235.115387 
L 207.69353 233.315503 
L 204.022037 235.918422 
z
" clip-path="url(#pf626af3bc4)" style="fill: #1b689e"/>
    <path d="M 181.536697 231.097493 
L 185.352285 227.334353 
L 176.046961 219.871087 
L 172.18492 224.296255 
z
" clip-path="url(#pf626af3bc4)" style="fill: #1d70a9"/>
    <path d="M 267.712484 213.421967 
L 270.978171 214.755611 
L 261.490797 222.236721 
L 258.169436 221.67363 
z
" clip-path="url(#pf626af3bc4)" style="fill: #0b2a3f"/>
    <path d="M 245.273802 227.683462 
L 248.694394 227.733395 
L 239.279402 231.626821 
L 235.805936 232.317374 
z
" clip-path="url(#pf626af3bc4)" style="fill: #0b293f"/>
    <path d="M 290.184559 193.165915 
L 293.29097 195.830557 
L 283.70528 206.936249 
L 280.540003 205.075864 
z
" clip-path="url(#pf626af3bc4)" style="fill: #0b2a3f"/>
    <path d="M 190.90663 235.773497 
L 194.674868 232.685913 
L 185.352285 227.334353 
L 181.536697 231.097493 
z
" clip-path="url(#pf626af3bc4)" style="fill: #1d6fa8"/>
    <path d="M 222.819931 235.980091 
L 226.39172 234.788094 
L 217.023439 235.115387 
L 213.401212 237.021185 
z
" clip-path="url(#pf626af3bc4)" style="fill: #0b293f"/>
    <path d="M 312.738813 166.859589 
L 315.680865 170.908433 
L 305.97047 185.691239 
L 302.965933 182.484285 
z
" clip-path="url(#pf626af3bc4)" style="fill: #0b2a3f"/>
    <path d="M 158.886159 220.272416 
L 162.843958 215.374972 
L 153.506535 204.335522 
L 149.503736 209.878062 
z
" clip-path="url(#pf626af3bc4)" style="fill: #1d70a9"/>
    <path d="M 200.302137 238.315721 
L 204.022037 235.918422 
L 194.674868 232.685913 
L 190.90663 235.773497 
z
" clip-path="url(#pf626af3bc4)" style="fill: #1d6ea6"/>
    <path d="M 254.803209 220.862986 
L 258.169436 221.67363 
L 248.694394 227.733395 
L 245.273802 227.683462 
z
" clip-path="url(#pf626af3bc4)" style="fill: #0b2a3f"/>
    <path d="M 277.33171 202.949076 
L 280.540003 205.075864 
L 270.978171 214.755611 
L 267.712484 213.421967 
z
" clip-path="url(#pf626af3bc4)" style="fill: #0b2a3f"/>
    <path d="M 232.285866 232.777534 
L 235.805936 232.317374 
L 226.39172 234.788094 
L 222.819931 235.980091 
z
" clip-path="url(#pf626af3bc4)" style="fill: #0b293e"/>
    <path d="M 168.272854 228.536839 
L 172.18492 224.296255 
L 162.843958 215.374972 
L 158.886159 220.272416 
z
" clip-path="url(#pf626af3bc4)" style="fill: #1d70a9"/>
    <path d="M 299.920359 178.99023 
L 302.965933 182.484285 
L 293.29097 195.830557 
L 290.184559 193.165915 
z
" clip-path="url(#pf626af3bc4)" style="fill: #0b2a3f"/>
    <path d="M 209.73074 238.712209 
L 213.401212 237.021185 
L 204.022037 235.918422 
L 200.302137 238.315721 
z
" clip-path="url(#pf626af3bc4)" style="fill: #16537e"/>
    <path d="M 177.671185 234.668326 
L 181.536697 231.097493 
L 172.18492 224.296255 
L 168.272854 228.536839 
z
" clip-path="url(#pf626af3bc4)" style="fill: #1d70a9"/>
    <path d="M 264.402243 211.828842 
L 267.712484 213.421967 
L 258.169436 221.67363 
L 254.803209 220.862986 
z
" clip-path="url(#pf626af3bc4)" style="fill: #0b2a3f"/>
    <path d="M 241.80685 227.392329 
L 245.273802 227.683462 
L 235.805936 232.317374 
L 232.285866 232.777534 
z
" clip-path="url(#pf626af3bc4)" style="fill: #0b2a3f"/>
    <path d="M 287.035522 190.221714 
L 290.184559 193.165915 
L 280.540003 205.075864 
L 277.33171 202.949076 
z
" clip-path="url(#pf626af3bc4)" style="fill: #0b2a3f"/>
    <path d="M 187.088582 238.660504 
L 190.90663 235.773497 
L 181.536697 231.097493 
L 177.671185 234.668326 
z
" clip-path="url(#pf626af3bc4)" style="fill: #1d6fa8"/>
    <path d="M 219.20008 236.947526 
L 222.819931 235.980091 
L 213.401212 237.021185 
L 209.73074 238.712209 
z
" clip-path="url(#pf626af3bc4)" style="fill: #0b293e"/>
    <path d="M 309.756206 162.509135 
L 312.738813 166.859589 
L 302.965933 182.484285 
L 299.920359 178.99023 
z
" clip-path="url(#pf626af3bc4)" style="fill: #0b2a3f"/>
    <path d="M 154.876976 224.989625 
L 158.886159 220.272416 
L 149.503736 209.878062 
L 145.449489 215.247318 
z
" clip-path="url(#pf626af3bc4)" style="fill: #1d70a9"/>
    <path d="M 196.532561 240.503594 
L 200.302137 238.315721 
L 190.90663 235.773497 
L 187.088582 238.660504 
z
" clip-path="url(#pf626af3bc4)" style="fill: #1c6ca4"/>
    <path d="M 251.390895 219.799595 
L 254.803209 220.862986 
L 245.273802 227.683462 
L 241.80685 227.392329 
z
" clip-path="url(#pf626af3bc4)" style="fill: #0b2a3f"/>
    <path d="M 164.309481 232.589736 
L 168.272854 228.536839 
L 158.886159 220.272416 
L 154.876976 224.989625 
z
" clip-path="url(#pf626af3bc4)" style="fill: #1d70a9"/>
    <path d="M 274.07921 200.550068 
L 277.33171 202.949076 
L 267.712484 213.421967 
L 264.402243 211.828842 
z
" clip-path="url(#pf626af3bc4)" style="fill: #0b2a3f"/>
    <path d="M 228.717943 233.002677 
L 232.285866 232.777534 
L 222.819931 235.980091 
L 219.20008 236.947526 
z
" clip-path="url(#pf626af3bc4)" style="fill: #0b293f"/>
    <path d="M 296.832594 175.202566 
L 299.920359 178.99023 
L 290.184559 193.165915 
L 287.035522 190.221714 
z
" clip-path="url(#pf626af3bc4)" style="fill: #0b2a3f"/>
    <path d="M 206.010743 240.184345 
L 209.73074 238.712209 
L 200.302137 238.315721 
L 196.532561 240.503594 
z
" clip-path="url(#pf626af3bc4)" style="fill: #0c2e45"/>
    <path d="M 173.754456 238.043485 
L 177.671185 234.668326 
L 168.272854 228.536839 
L 164.309481 232.589736 
z
" clip-path="url(#pf626af3bc4)" style="fill: #1d6fa9"/>
    <path d="M 261.04622 209.970639 
L 264.402243 211.828842 
L 254.803209 220.862986 
L 251.390895 219.799595 
z
" clip-path="url(#pf626af3bc4)" style="fill: #0b2a3f"/>
    <path d="M 238.292279 226.855004 
L 241.80685 227.392329 
L 232.285866 232.777534 
L 228.717943 233.002677 
z
" clip-path="url(#pf626af3bc4)" style="fill: #0b2a3f"/>
    <path d="M 183.219423 241.34329 
L 187.088582 238.660504 
L 177.671185 234.668326 
L 173.754456 238.043485 
z
" clip-path="url(#pf626af3bc4)" style="fill: #1d6fa7"/>
    <path d="M 283.842668 186.991688 
L 287.035522 190.221714 
L 277.33171 202.949076 
L 274.07921 200.550068 
z
" clip-path="url(#pf626af3bc4)" style="fill: #0b2a3f"/>
    <path d="M 215.53088 237.685959 
L 219.20008 236.947526 
L 209.73074 238.712209 
L 206.010743 240.184345 
z
" clip-path="url(#pf626af3bc4)" style="fill: #0b293e"/>
    <path d="M 150.815094 229.523635 
L 154.876976 224.989625 
L 145.449489 215.247318 
L 141.342488 220.440563 
z
" clip-path="url(#pf626af3bc4)" style="fill: #1d70a9"/>
    <path d="M 306.731892 157.850064 
L 309.756206 162.509135 
L 299.920359 178.99023 
L 296.832594 175.202566 
z
" clip-path="url(#pf626af3bc4)" style="fill: #0b2a40"/>
    <path d="M 192.711996 242.4781 
L 196.532561 240.503594 
L 187.088582 238.660504 
L 183.219423 241.34329 
z
" clip-path="url(#pf626af3bc4)" style="fill: #1b689e"/>
    <path d="M 160.293475 236.451728 
L 164.309481 232.589736 
L 154.876976 224.989625 
L 150.815094 229.523635 
z
" clip-path="url(#pf626af3bc4)" style="fill: #1d70a9"/>
    <path d="M 247.931229 218.478077 
L 251.390895 219.799595 
L 241.80685 227.392329 
L 238.292279 226.855004 
z
" clip-path="url(#pf626af3bc4)" style="fill: #0b2a3f"/>
    <path d="M 225.10087 232.988006 
L 228.717943 233.002677 
L 219.20008 236.947526 
L 215.53088 237.685959 
z
" clip-path="url(#pf626af3bc4)" style="fill: #0b293f"/>
    <path d="M 270.781273 197.87281 
L 274.07921 200.550068 
L 264.402243 211.828842 
L 261.04622 209.970639 
z
" clip-path="url(#pf626af3bc4)" style="fill: #0b2a3f"/>
    <path d="M 169.785173 241.219485 
L 173.754456 238.043485 
L 164.309481 232.589736 
L 160.293475 236.451728 
z
" clip-path="url(#pf626af3bc4)" style="fill: #1d6fa8"/>
    <path d="M 202.239901 241.433332 
L 206.010743 240.184345 
L 196.532561 240.503594 
L 192.711996 242.4781 
z
" clip-path="url(#pf626af3bc4)" style="fill: #0b293f"/>
    <path d="M 293.701445 171.114545 
L 296.832594 175.202566 
L 287.035522 190.221714 
L 283.842668 186.991688 
z
" clip-path="url(#pf626af3bc4)" style="fill: #0b2a3f"/>
    <path d="M 179.297805 243.818079 
L 183.219423 241.34329 
L 173.754456 238.043485 
L 169.785173 241.219485 
z
" clip-path="url(#pf626af3bc4)" style="fill: #1d6ea6"/>
    <path d="M 234.728787 226.066315 
L 238.292279 226.855004 
L 228.717943 233.002677 
L 225.10087 232.988006 
z
" clip-path="url(#pf626af3bc4)" style="fill: #0b2a3f"/>
    <path d="M 257.643146 207.841557 
L 261.04622 209.970639 
L 251.390895 219.799595 
L 247.931229 218.478077 
z
" clip-path="url(#pf626af3bc4)" style="fill: #0b2a3f"/>
    <path d="M 211.811 238.190787 
L 215.53088 237.685959 
L 206.010743 240.184345 
L 202.239901 241.433332 
z
" clip-path="url(#pf626af3bc4)" style="fill: #0b293e"/>
    <path d="M 280.604761 183.469341 
L 283.842668 186.991688 
L 274.07921 200.550068 
L 270.781273 197.87281 
z
" clip-path="url(#pf626af3bc4)" style="fill: #0b2a3f"/>
    <path d="M 188.839086 244.235154 
L 192.711996 242.4781 
L 183.219423 241.34329 
L 179.297805 243.818079 
z
" clip-path="url(#pf626af3bc4)" style="fill: #16537e"/>
    <path d="M 303.664677 152.875106 
L 306.731892 157.850064 
L 296.832594 175.202566 
L 293.701445 171.114545 
z
" clip-path="url(#pf626af3bc4)" style="fill: #0b2a40"/>
    <path d="M 244.422902 216.892852 
L 247.931229 218.478077 
L 238.292279 226.855004 
L 234.728787 226.066315 
z
" clip-path="url(#pf626af3bc4)" style="fill: #0b2a3f"/>
    <path d="M 221.43331 232.728555 
L 225.10087 232.988006 
L 215.53088 237.685959 
L 211.811 238.190787 
z
" clip-path="url(#pf626af3bc4)" style="fill: #0b2a3f"/>
    <path d="M 267.436624 194.911049 
L 270.781273 197.87281 
L 261.04622 209.970639 
L 257.643146 207.841557 
z
" clip-path="url(#pf626af3bc4)" style="fill: #0b2a3f"/>
    <path d="M 198.416849 242.454756 
L 202.239901 241.433332 
L 192.711996 242.4781 
L 188.839086 244.235154 
z
" clip-path="url(#pf626af3bc4)" style="fill: #0b293e"/>
    <path d="M 290.525674 166.719165 
L 293.701445 171.114545 
L 283.842668 186.991688 
L 280.604761 183.469341 
z
" clip-path="url(#pf626af3bc4)" style="fill: #0b2a3f"/>
    <path d="M 231.115028 225.020901 
L 234.728787 226.066315 
L 225.10087 232.988006 
L 221.43331 232.728555 
z
" clip-path="url(#pf626af3bc4)" style="fill: #0b2a3f"/>
    <path d="M 254.191706 205.43558 
L 257.643146 207.841557 
L 247.931229 218.478077 
L 244.422902 216.892852 
z
" clip-path="url(#pf626af3bc4)" style="fill: #0b2a3f"/>
    <path d="M 208.039066 238.45724 
L 211.811 238.190787 
L 202.239901 241.433332 
L 198.416849 242.454756 
z
" clip-path="url(#pf626af3bc4)" style="fill: #0b293f"/>
    <path d="M 277.320522 179.647931 
L 280.604761 183.469341 
L 270.781273 197.87281 
L 267.436624 194.911049 
z
" clip-path="url(#pf626af3bc4)" style="fill: #0b2a3f"/>
    <path d="M 300.553321 147.57672 
L 303.664677 152.875106 
L 293.701445 171.114545 
L 290.525674 166.719165 
z
" clip-path="url(#pf626af3bc4)" style="fill: #0b2a40"/>
    <path d="M 240.864559 215.038137 
L 244.422902 216.892852 
L 234.728787 226.066315 
L 231.115028 225.020901 
z
" clip-path="url(#pf626af3bc4)" style="fill: #0b2a3f"/>
    <path d="M 217.713877 232.219171 
L 221.43331 232.728555 
L 211.811 238.190787 
L 208.039066 238.45724 
z
" clip-path="url(#pf626af3bc4)" style="fill: #0b2a3f"/>
    <path d="M 264.043941 191.658299 
L 267.436624 194.911049 
L 257.643146 207.841557 
L 254.191706 205.43558 
z
" clip-path="url(#pf626af3bc4)" style="fill: #0b2a3f"/>
    <path d="M 287.304 162.009164 
L 290.525674 166.719165 
L 280.604761 183.469341 
L 277.320522 179.647931 
z
" clip-path="url(#pf626af3bc4)" style="fill: #0b2a40"/>
    <path d="M 227.449607 223.713201 
L 231.115028 225.020901 
L 221.43331 232.728555 
L 217.713877 232.219171 
z
" clip-path="url(#pf626af3bc4)" style="fill: #0b2a3f"/>
    <path d="M 250.690537 202.746469 
L 254.191706 205.43558 
L 244.422902 216.892852 
L 240.864559 215.038137 
z
" clip-path="url(#pf626af3bc4)" style="fill: #0b2a3f"/>
    <path d="M 273.988628 175.520468 
L 277.320522 179.647931 
L 267.436624 194.911049 
L 264.043941 191.658299 
z
" clip-path="url(#pf626af3bc4)" style="fill: #0b2a3f"/>
    <path d="M 297.396542 141.947075 
L 300.553321 147.57672 
L 290.525674 166.719165 
L 287.304 162.009164 
z
" clip-path="url(#pf626af3bc4)" style="fill: #0b2a40"/>
    <path d="M 237.254798 212.90793 
L 240.864559 215.038137 
L 231.115028 225.020901 
L 227.449607 223.713201 
z
" clip-path="url(#pf626af3bc4)" style="fill: #0b2a3f"/>
    <path d="M 260.601857 188.107831 
L 264.043941 191.658299 
L 254.191706 205.43558 
L 250.690537 202.746469 
z
" clip-path="url(#pf626af3bc4)" style="fill: #0b2a3f"/>
    <path d="M 284.035094 156.977001 
L 287.304 162.009164 
L 277.320522 179.647931 
L 273.988628 175.520468 
z
" clip-path="url(#pf626af3bc4)" style="fill: #0b2a40"/>
    <path d="M 247.13823 199.767749 
L 250.690537 202.746469 
L 240.864559 215.038137 
L 237.254798 212.90793 
z
" clip-path="url(#pf626af3bc4)" style="fill: #0b2a3f"/>
    <path d="M 270.607703 171.079693 
L 273.988628 175.520468 
L 264.043941 191.658299 
L 260.601857 188.107831 
z
" clip-path="url(#pf626af3bc4)" style="fill: #0b2a3f"/>
    <path d="M 294.193008 135.978042 
L 297.396542 141.947075 
L 287.304 162.009164 
L 284.035094 156.977001 
z
" clip-path="url(#pf626af3bc4)" style="fill: #0b2a40"/>
    <path d="M 257.108955 184.25266 
L 260.601857 188.107831 
L 250.690537 202.746469 
L 247.13823 199.767749 
z
" clip-path="url(#pf626af3bc4)" style="fill: #0b2a3f"/>
    <path d="M 280.717578 151.61485 
L 284.035094 156.977001 
L 273.988628 175.520468 
L 270.607703 171.079693 
z
" clip-path="url(#pf626af3bc4)" style="fill: #0b2a40"/>
    <path d="M 267.176325 166.318073 
L 270.607703 171.079693 
L 260.601857 188.107831 
L 257.108955 184.25266 
z
" clip-path="url(#pf626af3bc4)" style="fill: #0b2a40"/>
    <path d="M 290.94134 129.661179 
L 294.193008 135.978042 
L 284.035094 156.977001 
L 280.717578 151.61485 
z
" clip-path="url(#pf626af3bc4)" style="fill: #0b2a40"/>
    <path d="M 277.350024 145.914582 
L 280.717578 151.61485 
L 270.607703 171.079693 
L 267.176325 166.318073 
z
" clip-path="url(#pf626af3bc4)" style="fill: #0b2a40"/>
    <path d="M 287.640104 122.987715 
L 290.94134 129.661179 
L 280.717578 151.61485 
L 277.350024 145.914582 
z
" clip-path="url(#pf626af3bc4)" style="fill: #0b2a40"/>
   </g>
  </g>
 </g>
 <defs>
  <clipPath id="pf626af3bc4">
   <rect x="103.104" y="41.472" width="266.112" height="266.112"/>
  </clipPath>
 </defs>
</svg>
