<?xml version="1.0" encoding="UTF-8"?>
<svg xmlns="http://www.w3.org/2000/svg" xmlns:xlink="http://www.w3.org/1999/xlink" width="610.02pt" height="357pt" viewBox="0 0 610.02 357" version="1.1">
<defs>
<clipPath id="clip1">
  <path d="M 419 26 L 441 26 L 441 48 L 419 48 Z M 419 26 "/>
</clipPath>
<clipPath id="clip2">
  <path d="M 414.507813 61.566406 L 453.011719 61.566406 L 453.011719 15.054688 L 414.507813 15.050781 Z M 414.507813 61.566406 "/>
</clipPath>
<clipPath id="clip3">
  <path d="M 445 24 L 450 24 L 450 34 L 445 34 Z M 445 24 "/>
</clipPath>
<clipPath id="clip4">
  <path d="M 414.507813 61.566406 L 453.011719 61.566406 L 453.011719 15.054688 L 414.507813 15.050781 Z M 414.507813 61.566406 "/>
</clipPath>
</defs>
<g id="surface1">
<path style="fill:none;stroke-width:15;stroke-linecap:round;stroke-linejoin:round;stroke:rgb(0%,0%,0%);stroke-opacity:1;stroke-miterlimit:10;" d="M 389.717736 1426.279863 L 389.717736 1096.259189 " transform="matrix(0.14643,0,0,-0.146499,0,357.69839)"/>
<path style="fill:none;stroke-width:15;stroke-linecap:round;stroke-linejoin:round;stroke:rgb(0%,0%,0%);stroke-opacity:1;stroke-miterlimit:10;" d="M 389.717736 1002.508467 L 389.717736 672.514457 " transform="matrix(0.14643,0,0,-0.146499,0,357.69839)"/>
<path style=" stroke:none;fill-rule:evenodd;fill:rgb(0%,0%,0%);fill-opacity:1;" d="M 62.339844 322.351563 C 62.339844 325.265625 59.980469 327.625 57.066406 327.625 C 54.15625 327.625 51.796875 325.265625 51.796875 322.351563 C 51.796875 319.441406 54.15625 317.078125 57.066406 317.078125 C 59.980469 317.078125 62.339844 319.441406 62.339844 322.351563 Z M 62.339844 322.351563 "/>
<path style=" stroke:none;fill-rule:evenodd;fill:rgb(0%,0%,0%);fill-opacity:1;" d="M 32.664063 196.277344 C 32.601563 196.546875 32.457031 196.679688 32.21875 196.679688 C 32.199219 196.699219 32.148438 196.707031 32.070313 196.707031 C 32.019531 196.707031 31.980469 196.699219 31.953125 196.679688 L 31.820313 196.679688 C 31.5625 196.679688 31.433594 196.582031 31.433594 196.390625 L 31.433594 196.289063 C 31.550781 195.582031 31.613281 194.925781 31.613281 194.320313 L 31.613281 193.773438 C 31.550781 193.039063 31.386719 192.402344 31.117188 191.871094 C 30.84375 191.339844 30.449219 190.925781 29.925781 190.632813 C 29.402344 190.34375 28.742188 190.195313 27.941406 190.195313 C 27.476563 190.195313 27.003906 190.296875 26.527344 190.5 C 26.050781 190.699219 25.601563 190.972656 25.1875 191.316406 C 24.734375 191.691406 24.363281 192.117188 24.078125 192.589844 C 23.792969 193.066406 23.585938 193.546875 23.457031 194.046875 C 23.355469 194.402344 23.304688 194.742188 23.292969 195.070313 C 23.292969 195.519531 23.390625 195.949219 23.589844 196.363281 C 23.875 197.054688 24.386719 197.496094 25.128906 197.683594 L 28.53125 198.632813 C 29.15625 198.816406 29.683594 199.109375 30.125 199.503906 C 30.5625 199.902344 30.894531 200.371094 31.117188 200.914063 C 31.339844 201.457031 31.46875 202.046875 31.507813 202.6875 L 31.507813 202.945313 C 31.507813 203.503906 31.429688 204.074219 31.269531 204.660156 C 31.066406 205.464844 30.734375 206.242188 30.28125 206.988281 C 29.824219 207.734375 29.265625 208.40625 28.59375 209 C 27.949219 209.546875 27.25 209.984375 26.484375 210.316406 C 25.71875 210.648438 24.949219 210.8125 24.179688 210.8125 C 23.046875 210.8125 22.078125 210.628906 21.28125 210.265625 C 20.480469 209.902344 19.886719 209.441406 19.503906 208.886719 L 18.039063 210.625 C 17.910156 210.75 17.777344 210.8125 17.640625 210.8125 L 17.550781 210.8125 C 17.304688 210.8125 17.167969 210.71875 17.148438 210.523438 C 17.148438 210.46875 17.164063 210.414063 17.195313 210.367188 L 18.910156 203.636719 C 18.96875 203.371094 19.144531 203.230469 19.429688 203.21875 L 19.753906 203.21875 C 19.875 203.222656 19.980469 203.269531 20.082031 203.363281 C 20.121094 203.441406 20.140625 203.507813 20.140625 203.566406 C 20.140625 203.605469 20.128906 203.652344 20.109375 203.710938 C 19.933594 204.402344 19.84375 205.042969 19.84375 205.636719 C 19.84375 206.585938 20.074219 207.390625 20.539063 208.050781 C 21.28125 209.117188 22.574219 209.648438 24.417969 209.648438 C 24.882813 209.648438 25.351563 209.539063 25.832031 209.324219 C 26.3125 209.109375 26.757813 208.820313 27.171875 208.453125 C 27.625 208.035156 28.007813 207.566406 28.316406 207.054688 C 28.628906 206.539063 28.859375 206.011719 29.007813 205.464844 C 29.105469 205.023438 29.15625 204.613281 29.15625 204.226563 C 29.15625 203.75 29.089844 203.289063 28.960938 202.847656 C 28.667969 202.109375 28.117188 201.636719 27.320313 201.421875 L 23.960938 200.472656 C 23.355469 200.3125 22.839844 200.046875 22.40625 199.675781 C 21.96875 199.308594 21.632813 198.871094 21.390625 198.363281 C 21.148438 197.855469 21.007813 197.292969 20.96875 196.679688 L 20.96875 196.363281 C 20.96875 195.882813 21.027344 195.382813 21.148438 194.851563 C 21.355469 194.085938 21.683594 193.355469 22.136719 192.65625 C 22.59375 191.953125 23.15625 191.335938 23.824219 190.796875 C 24.457031 190.28125 25.152344 189.867188 25.90625 189.554688 C 26.660156 189.246094 27.40625 189.089844 28.148438 189.085938 C 29.164063 189.089844 30.003906 189.277344 30.664063 189.65625 C 31.324219 190.035156 31.804688 190.484375 32.101563 191 L 33.519531 189.289063 C 33.601563 189.15625 33.730469 189.089844 33.90625 189.085938 L 34.039063 189.085938 C 34.277344 189.089844 34.394531 189.203125 34.394531 189.433594 L 34.394531 189.546875 Z M 32.664063 196.277344 "/>
<path style=" stroke:none;fill-rule:evenodd;fill:rgb(0%,0%,0%);fill-opacity:1;" d="M 42.433594 214.339844 C 41.296875 214.308594 40.1875 214.292969 39.109375 214.292969 C 38.035156 214.292969 36.925781 214.308594 35.789063 214.339844 L 35.789063 213.648438 L 36.429688 213.648438 C 36.632813 213.648438 36.824219 213.648438 37.003906 213.640625 C 37.183594 213.636719 37.351563 213.621094 37.515625 213.601563 C 37.675781 213.578125 37.816406 213.558594 37.933594 213.535156 C 38.03125 213.519531 38.113281 213.472656 38.175781 213.386719 C 38.242188 213.304688 38.273438 213.210938 38.273438 213.109375 L 38.273438 204.035156 C 37.964844 204.171875 37.585938 204.273438 37.132813 204.34375 C 36.679688 204.410156 36.1875 204.445313 35.648438 204.445313 L 35.648438 203.761719 C 36.390625 203.761719 37.078125 203.683594 37.703125 203.523438 C 38.332031 203.367188 38.875 203.070313 39.332031 202.632813 L 39.621094 202.632813 C 39.824219 202.636719 39.925781 202.722656 39.925781 202.898438 L 39.925781 213.109375 C 39.925781 213.21875 39.957031 213.3125 40.019531 213.390625 C 40.082031 213.472656 40.171875 213.519531 40.289063 213.535156 C 40.386719 213.558594 40.515625 213.578125 40.671875 213.601563 C 40.824219 213.621094 41 213.636719 41.191406 213.640625 C 41.390625 213.648438 41.578125 213.648438 41.765625 213.648438 L 42.433594 213.648438 Z M 42.433594 214.339844 "/>
<path style=" stroke:none;fill-rule:evenodd;fill:rgb(0%,0%,0%);fill-opacity:1;" d="M 31.980469 316.039063 C 31.921875 316.308594 31.773438 316.441406 31.535156 316.441406 C 31.515625 316.460938 31.46875 316.472656 31.386719 316.46875 C 31.339844 316.472656 31.300781 316.460938 31.269531 316.441406 L 31.136719 316.441406 C 30.878906 316.441406 30.75 316.347656 30.75 316.152344 L 30.75 316.054688 C 30.871094 315.34375 30.929688 314.6875 30.929688 314.085938 L 30.929688 313.535156 C 30.871094 312.800781 30.703125 312.164063 30.433594 311.632813 C 30.164063 311.101563 29.765625 310.6875 29.242188 310.394531 C 28.71875 310.105469 28.058594 309.960938 27.257813 309.957031 C 26.796875 309.960938 26.324219 310.058594 25.84375 310.261719 C 25.367188 310.460938 24.921875 310.734375 24.503906 311.078125 C 24.050781 311.453125 23.683594 311.878906 23.394531 312.351563 C 23.109375 312.828125 22.902344 313.3125 22.773438 313.808594 C 22.675781 314.167969 22.621094 314.507813 22.609375 314.832031 C 22.609375 315.28125 22.710938 315.714844 22.90625 316.125 C 23.191406 316.816406 23.707031 317.257813 24.445313 317.449219 L 27.851563 318.398438 C 28.472656 318.578125 29.003906 318.871094 29.441406 319.265625 C 29.882813 319.664063 30.210938 320.136719 30.433594 320.675781 C 30.65625 321.21875 30.785156 321.808594 30.824219 322.449219 L 30.824219 322.710938 C 30.824219 323.265625 30.746094 323.835938 30.589844 324.421875 C 30.382813 325.226563 30.050781 326.003906 29.597656 326.75 C 29.144531 327.5 28.582031 328.167969 27.910156 328.761719 C 27.269531 329.308594 26.566406 329.75 25.800781 330.078125 C 25.035156 330.410156 24.269531 330.574219 23.5 330.574219 C 22.363281 330.574219 21.398438 330.394531 20.597656 330.027344 C 19.796875 329.664063 19.207031 329.207031 18.820313 328.648438 L 17.355469 330.386719 C 17.226563 330.511719 17.09375 330.574219 16.957031 330.574219 L 16.867188 330.574219 C 16.621094 330.574219 16.488281 330.480469 16.46875 330.285156 C 16.46875 330.230469 16.484375 330.175781 16.511719 330.128906 L 18.230469 323.398438 C 18.289063 323.132813 18.460938 322.992188 18.746094 322.984375 L 19.070313 322.984375 C 19.191406 322.984375 19.300781 323.03125 19.398438 323.125 C 19.4375 323.203125 19.457031 323.273438 19.457031 323.328125 C 19.457031 323.367188 19.449219 323.414063 19.429688 323.472656 C 19.25 324.164063 19.160156 324.804688 19.160156 325.398438 C 19.160156 326.347656 19.394531 327.152344 19.855469 327.8125 C 20.597656 328.878906 21.890625 329.410156 23.734375 329.410156 C 24.199219 329.410156 24.671875 329.304688 25.148438 329.085938 C 25.628906 328.871094 26.074219 328.582031 26.488281 328.214844 C 26.941406 327.796875 27.324219 327.328125 27.636719 326.816406 C 27.945313 326.304688 28.175781 325.773438 28.324219 325.226563 C 28.421875 324.785156 28.472656 324.375 28.472656 323.988281 C 28.472656 323.511719 28.40625 323.050781 28.28125 322.609375 C 27.984375 321.871094 27.4375 321.398438 26.636719 321.1875 L 23.277344 320.238281 C 22.675781 320.074219 22.15625 319.808594 21.722656 319.441406 C 21.289063 319.070313 20.949219 318.632813 20.707031 318.125 C 20.46875 317.617188 20.328125 317.054688 20.285156 316.441406 L 20.285156 316.125 C 20.285156 315.648438 20.347656 315.144531 20.464844 314.613281 C 20.671875 313.851563 21.003906 313.117188 21.457031 312.417969 C 21.910156 311.71875 22.472656 311.097656 23.144531 310.558594 C 23.773438 310.042969 24.46875 309.632813 25.222656 309.316406 C 25.980469 309.007813 26.726563 308.851563 27.464844 308.847656 C 28.484375 308.851563 29.320313 309.039063 29.980469 309.421875 C 30.644531 309.796875 31.121094 310.246094 31.417969 310.761719 L 32.839844 309.050781 C 32.917969 308.917969 33.046875 308.851563 33.222656 308.847656 L 33.355469 308.847656 C 33.59375 308.851563 33.710938 308.964844 33.710938 309.195313 L 33.710938 309.308594 Z M 31.980469 316.039063 "/>
<path style=" stroke:none;fill-rule:evenodd;fill:rgb(0%,0%,0%);fill-opacity:1;" d="M 42.445313 334.105469 L 34.890625 334.105469 L 34.890625 333.660156 C 34.890625 333.628906 34.910156 333.582031 34.949219 333.515625 L 37.984375 330.570313 C 38.34375 330.214844 38.707031 329.851563 39.074219 329.484375 C 39.441406 329.113281 39.773438 328.734375 40.0625 328.347656 C 40.351563 327.960938 40.585938 327.5625 40.761719 327.152344 C 40.933594 326.742188 41.019531 326.3125 41.019531 325.859375 C 41.019531 325.480469 40.960938 325.121094 40.851563 324.792969 C 40.738281 324.460938 40.578125 324.171875 40.367188 323.921875 C 40.15625 323.675781 39.894531 323.472656 39.578125 323.320313 C 39.265625 323.167969 38.898438 323.089844 38.484375 323.089844 C 37.867188 323.089844 37.320313 323.253906 36.847656 323.585938 C 36.371094 323.914063 36.058594 324.277344 35.902344 324.675781 C 35.875 324.6875 35.921875 324.691406 36.050781 324.691406 L 36.210938 324.691406 C 36.394531 324.730469 36.554688 324.789063 36.691406 324.867188 C 36.828125 324.945313 36.945313 325.050781 37.035156 325.1875 C 37.128906 325.324219 37.175781 325.488281 37.175781 325.683594 C 37.175781 326.003906 37.058594 326.25 36.824219 326.421875 C 36.585938 326.59375 36.324219 326.679688 36.035156 326.679688 C 35.753906 326.679688 35.496094 326.59375 35.253906 326.421875 C 35.011719 326.25 34.890625 326.003906 34.890625 325.683594 C 34.890625 325.230469 34.992188 324.804688 35.1875 324.402344 C 35.386719 324 35.65625 323.652344 35.996094 323.355469 C 36.335938 323.0625 36.738281 322.828125 37.203125 322.65625 C 37.667969 322.484375 38.160156 322.398438 38.679688 322.398438 C 39.324219 322.398438 39.914063 322.480469 40.445313 322.652344 C 40.984375 322.820313 41.4375 323.0625 41.816406 323.378906 C 42.195313 323.695313 42.492188 324.0625 42.703125 324.480469 C 42.914063 324.894531 43.023438 325.355469 43.023438 325.859375 C 43.023438 326.417969 42.878906 326.933594 42.597656 327.402344 C 42.3125 327.871094 41.957031 328.300781 41.539063 328.695313 C 41.117188 329.085938 40.667969 329.453125 40.195313 329.800781 C 39.722656 330.148438 39.292969 330.484375 38.910156 330.8125 L 36.777344 332.605469 L 39.570313 332.605469 C 39.960938 332.605469 40.324219 332.605469 40.660156 332.597656 C 40.996094 332.59375 41.285156 332.582031 41.519531 332.566406 C 41.753906 332.550781 41.875 332.539063 41.882813 332.535156 C 41.929688 332.496094 41.976563 332.421875 42.023438 332.308594 C 42.0625 332.195313 42.105469 332.0625 42.140625 331.910156 C 42.175781 331.757813 42.214844 331.601563 42.253906 331.445313 C 42.292969 331.285156 42.324219 331.113281 42.355469 330.921875 L 43.042969 330.921875 Z M 42.445313 334.105469 "/>
<path style="fill:none;stroke-width:15;stroke-linecap:round;stroke-linejoin:round;stroke:rgb(0%,0%,0%);stroke-opacity:1;stroke-dasharray:120,60;stroke-miterlimit:10;" d="M 2969.740379 2005.422551 L 2969.740379 672.514457 " transform="matrix(0.14643,0,0,-0.146499,0,357.69839)"/>
<path style="fill-rule:evenodd;fill:rgb(0%,0%,0%);fill-opacity:1;stroke-width:15;stroke-linecap:round;stroke-linejoin:round;stroke:rgb(0%,0%,0%);stroke-opacity:1;stroke-miterlimit:10;" d="M 1484.736807 650.010017 L 2969.740379 650.010017 L 2969.740379 695.018896 L 1484.736807 695.018896 Z M 1484.736807 650.010017 " transform="matrix(0.14643,0,0,-0.146499,0,357.69839)"/>
<path style="fill:none;stroke-width:15;stroke-linecap:round;stroke-linejoin:round;stroke:rgb(0%,0%,0%);stroke-opacity:1;stroke-dasharray:120,60;stroke-miterlimit:10;" d="M 389.717736 672.514457 L 1919.724649 672.514457 " transform="matrix(0.14643,0,0,-0.146499,0,357.69839)"/>
<path style="fill:none;stroke-width:15;stroke-linecap:round;stroke-linejoin:round;stroke:rgb(0%,0%,94.099426%);stroke-opacity:1;stroke-miterlimit:10;" d="M 937.227271 888.146451 L 1492.152888 715.123573 " transform="matrix(0.14643,0,0,-0.146499,0,357.69839)"/>
<path style=" stroke:none;fill-rule:nonzero;fill:rgb(0%,0%,94.099426%);fill-opacity:1;" d="M 57.394531 201.539063 L 132.003906 224.804688 L 131.351563 226.902344 L 56.742188 203.640625 C 56.160156 203.457031 55.839844 202.839844 56.019531 202.261719 C 56.199219 201.683594 56.816406 201.359375 57.394531 201.539063 Z M 148.4375 231.078125 L 129.425781 218.246094 L 131.984375 224.796875 L 131.332031 226.894531 L 125.503906 230.832031 Z M 148.4375 231.078125 "/>
<path style=" stroke:none;fill-rule:nonzero;fill:rgb(0%,0%,94.099426%);fill-opacity:1;" d="M 216.066406 251.511719 L 392.984375 211.242188 L 393.472656 213.386719 L 216.554688 253.652344 C 215.960938 253.789063 215.375 253.417969 215.242188 252.824219 C 215.105469 252.234375 215.476563 251.644531 216.066406 251.511719 Z M 410.34375 208.417969 L 387.46875 206.867188 L 392.96875 211.246094 L 393.453125 213.390625 L 390.390625 219.722656 Z M 410.34375 208.417969 "/>
<path style="fill:none;stroke-width:15;stroke-linecap:round;stroke-linejoin:round;stroke:rgb(0%,0%,0%);stroke-opacity:1;stroke-miterlimit:10;" d="M 3974.72609 627.532241 L 3974.72609 2005.422551 " transform="matrix(0.14643,0,0,-0.146499,0,357.69839)"/>
<path style=" stroke:none;fill-rule:nonzero;fill:rgb(0%,0%,94.099426%);fill-opacity:1;" d="M 402.875 208.992188 L 563.886719 172.34375 L 564.375 174.488281 L 403.359375 211.136719 C 402.769531 211.269531 402.179688 210.898438 402.046875 210.308594 C 401.910156 209.71875 402.28125 209.128906 402.875 208.992188 Z M 581.246094 169.519531 L 558.367188 167.96875 L 563.867188 172.347656 L 564.355469 174.492188 L 561.292969 180.824219 Z M 581.246094 169.519531 "/>
<g clip-path="url(#clip1)" clip-rule="nonzero">
<g clip-path="url(#clip2)" clip-rule="nonzero">
<path style=" stroke:none;fill-rule:evenodd;fill:rgb(0%,0%,0%);fill-opacity:1;" d="M 440.214844 33.4375 C 440.183594 33.5625 440.121094 33.671875 440.023438 33.761719 C 439.921875 33.851563 439.816406 33.898438 439.695313 33.898438 C 439.65625 33.917969 439.609375 33.925781 439.546875 33.925781 C 439.429688 33.925781 439.371094 33.917969 439.371094 33.898438 C 439.125 33.898438 438.992188 33.792969 438.972656 33.582031 L 438.972656 33.480469 C 439.03125 33.03125 439.078125 32.574219 439.121094 32.113281 C 439.160156 31.757813 439.179688 31.433594 439.179688 31.136719 L 439.179688 30.890625 C 439.160156 30.507813 439.113281 30.164063 439.039063 29.863281 C 438.964844 29.5625 438.832031 29.308594 438.644531 29.09375 C 438.269531 28.652344 437.710938 28.394531 436.972656 28.3125 C 436.230469 28.230469 435.441406 28.191406 434.605469 28.1875 L 431.421875 28.1875 C 430.898438 28.191406 430.59375 28.230469 430.503906 28.304688 C 430.453125 28.34375 430.355469 28.625 430.207031 29.152344 L 428.371094 36.167969 L 430.414063 36.167969 C 430.96875 36.167969 431.472656 36.144531 431.925781 36.097656 C 432.378906 36.050781 432.769531 35.90625 433.09375 35.664063 C 433.390625 35.425781 433.617188 35.089844 433.769531 34.660156 C 433.921875 34.226563 434.070313 33.734375 434.21875 33.175781 C 434.328125 32.890625 434.515625 32.75 434.78125 32.761719 L 435.035156 32.761719 C 435.308594 32.761719 435.449219 32.886719 435.449219 33.132813 L 435.449219 33.234375 L 433.597656 40.351563 C 433.539063 40.652344 433.347656 40.792969 433.019531 40.785156 L 432.785156 40.785156 C 432.507813 40.785156 432.367188 40.667969 432.367188 40.4375 C 432.367188 40.382813 432.382813 40.328125 432.414063 40.28125 C 432.542969 39.746094 432.636719 39.25 432.695313 38.800781 C 432.714844 38.683594 432.726563 38.585938 432.726563 38.496094 C 432.726563 38.230469 432.664063 38.015625 432.546875 37.851563 C 432.378906 37.621094 432.082031 37.484375 431.652344 37.441406 C 431.222656 37.398438 430.742188 37.375 430.207031 37.375 L 428.078125 37.375 L 426.046875 45.253906 C 425.949219 45.589844 425.898438 45.839844 425.898438 46.003906 L 425.898438 46.058594 C 425.941406 46.101563 426.214844 46.125 426.730469 46.132813 L 430.117188 46.132813 C 430.996094 46.132813 431.847656 46.074219 432.671875 45.953125 C 433.496094 45.832031 434.265625 45.527344 434.972656 45.039063 C 435.289063 44.808594 435.59375 44.503906 435.878906 44.121094 C 436.164063 43.738281 436.433594 43.3125 436.691406 42.847656 C 436.949219 42.382813 437.191406 41.890625 437.425781 41.367188 C 437.65625 40.84375 437.886719 40.328125 438.113281 39.820313 C 438.191406 39.589844 438.363281 39.476563 438.628906 39.476563 L 438.882813 39.476563 C 439.160156 39.476563 439.296875 39.601563 439.296875 39.847656 L 439.296875 39.964844 L 436.351563 46.980469 C 436.242188 47.210938 436.066406 47.324219 435.816406 47.324219 L 420.425781 47.324219 C 420.277344 47.324219 420.167969 47.28125 420.097656 47.195313 C 420.03125 47.128906 419.996094 47.058594 419.996094 46.980469 C 419.996094 46.921875 420.003906 46.867188 420.023438 46.808594 L 420.082031 46.59375 C 420.113281 46.46875 420.183594 46.359375 420.289063 46.269531 C 420.398438 46.179688 420.523438 46.132813 420.660156 46.132813 C 421.125 46.132813 421.558594 46.125 421.964844 46.113281 C 422.367188 46.097656 422.675781 46.046875 422.878906 45.960938 C 423.058594 45.863281 423.195313 45.605469 423.296875 45.183594 L 427.453125 29.082031 C 427.515625 28.871094 427.542969 28.703125 427.542969 28.578125 C 427.542969 28.464844 427.519531 28.394531 427.46875 28.375 C 427.332031 28.289063 427.058594 28.238281 426.65625 28.21875 C 426.25 28.199219 425.816406 28.191406 425.351563 28.1875 C 425.078125 28.191406 424.9375 28.058594 424.9375 27.800781 L 424.9375 27.699219 L 424.996094 27.457031 C 425.078125 27.140625 425.269531 26.980469 425.574219 26.980469 L 440.570313 26.980469 C 440.816406 26.980469 440.949219 27.101563 440.96875 27.339844 L 440.96875 27.441406 Z M 440.214844 33.4375 "/>
</g>
</g>
<g clip-path="url(#clip3)" clip-rule="nonzero">
<g clip-path="url(#clip4)" clip-rule="nonzero">
<path style=" stroke:none;fill-rule:evenodd;fill:rgb(0%,0%,0%);fill-opacity:1;" d="M 446.257813 33.25 C 446.1875 33.429688 446.070313 33.515625 445.898438 33.515625 L 445.792969 33.515625 L 445.714844 33.480469 C 445.546875 33.445313 445.453125 33.339844 445.4375 33.171875 L 445.4375 33.089844 L 446.773438 25.671875 C 446.839844 25.320313 447.027344 25.050781 447.339844 24.875 C 447.652344 24.691406 447.96875 24.601563 448.289063 24.601563 C 448.632813 24.601563 448.910156 24.699219 449.121094 24.886719 C 449.253906 25.003906 449.320313 25.15625 449.320313 25.347656 C 449.320313 25.488281 449.28125 25.648438 449.203125 25.832031 Z M 446.257813 33.25 "/>
</g>
</g>
<path style=" stroke:none;fill-rule:evenodd;fill:rgb(0%,0%,0%);fill-opacity:1;" d="M 589.878906 30.125 C 589.847656 30.25 589.785156 30.359375 589.683594 30.449219 C 589.585938 30.542969 589.476563 30.585938 589.359375 30.585938 C 589.320313 30.605469 589.269531 30.617188 589.210938 30.613281 C 589.09375 30.617188 589.035156 30.605469 589.035156 30.585938 C 588.789063 30.585938 588.652344 30.480469 588.632813 30.269531 L 588.632813 30.167969 C 588.691406 29.71875 588.742188 29.261719 588.78125 28.804688 C 588.820313 28.449219 588.839844 28.121094 588.839844 27.824219 L 588.839844 27.582031 C 588.820313 27.195313 588.773438 26.855469 588.703125 26.550781 C 588.628906 26.25 588.496094 25.996094 588.308594 25.78125 C 587.933594 25.34375 587.375 25.082031 586.636719 25 C 585.894531 24.921875 585.105469 24.878906 584.265625 24.875 L 581.085938 24.875 C 580.5625 24.878906 580.257813 24.917969 580.167969 24.992188 C 580.117188 25.03125 580.019531 25.3125 579.871094 25.839844 L 578.035156 32.855469 L 580.078125 32.855469 C 580.632813 32.859375 581.136719 32.835938 581.589844 32.785156 C 582.042969 32.738281 582.433594 32.59375 582.757813 32.355469 C 583.054688 32.113281 583.277344 31.78125 583.429688 31.347656 C 583.585938 30.917969 583.734375 30.425781 583.882813 29.867188 C 583.992188 29.582031 584.179688 29.441406 584.445313 29.449219 L 584.695313 29.449219 C 584.972656 29.449219 585.109375 29.574219 585.109375 29.824219 L 585.109375 29.925781 L 583.261719 37.042969 C 583.203125 37.339844 583.007813 37.484375 582.683594 37.472656 L 582.445313 37.472656 C 582.171875 37.472656 582.03125 37.359375 582.03125 37.128906 C 582.03125 37.070313 582.046875 37.019531 582.074219 36.96875 C 582.207031 36.433594 582.300781 35.941406 582.359375 35.488281 C 582.378906 35.375 582.386719 35.273438 582.386719 35.1875 C 582.386719 34.917969 582.328125 34.703125 582.210938 34.539063 C 582.042969 34.308594 581.742188 34.171875 581.3125 34.128906 C 580.886719 34.085938 580.40625 34.066406 579.871094 34.066406 L 577.738281 34.066406 L 575.710938 41.945313 C 575.613281 42.28125 575.5625 42.53125 575.5625 42.691406 L 575.5625 42.75 C 575.601563 42.789063 575.878906 42.8125 576.390625 42.820313 L 579.78125 42.820313 C 580.660156 42.820313 581.511719 42.761719 582.335938 42.640625 C 583.160156 42.523438 583.925781 42.21875 584.636719 41.730469 C 584.953125 41.5 585.253906 41.191406 585.539063 40.808594 C 585.828125 40.425781 586.097656 40.003906 586.355469 39.535156 C 586.613281 39.074219 586.855469 38.578125 587.085938 38.054688 C 587.320313 37.535156 587.550781 37.019531 587.777344 36.507813 C 587.855469 36.28125 588.027344 36.164063 588.292969 36.164063 L 588.546875 36.164063 C 588.820313 36.164063 588.960938 36.289063 588.960938 36.539063 L 588.960938 36.652344 L 586.015625 43.667969 C 585.90625 43.898438 585.726563 44.015625 585.480469 44.015625 L 570.085938 44.015625 C 569.9375 44.015625 569.832031 43.972656 569.761719 43.886719 C 569.691406 43.820313 569.660156 43.746094 569.65625 43.667969 C 569.660156 43.613281 569.667969 43.554688 569.6875 43.496094 L 569.746094 43.28125 C 569.777344 43.15625 569.84375 43.050781 569.953125 42.957031 C 570.0625 42.867188 570.1875 42.820313 570.324219 42.820313 C 570.789063 42.820313 571.222656 42.816406 571.625 42.800781 C 572.03125 42.785156 572.335938 42.734375 572.542969 42.648438 C 572.722656 42.554688 572.859375 42.292969 572.957031 41.871094 L 577.117188 25.769531 C 577.175781 25.558594 577.207031 25.390625 577.207031 25.265625 C 577.207031 25.152344 577.183594 25.085938 577.132813 25.0625 C 576.996094 24.980469 576.722656 24.925781 576.320313 24.90625 C 575.914063 24.886719 575.480469 24.878906 575.015625 24.875 C 574.738281 24.878906 574.601563 24.746094 574.601563 24.488281 L 574.601563 24.386719 L 574.660156 24.144531 C 574.738281 23.828125 574.933594 23.667969 575.238281 23.667969 L 590.234375 23.667969 C 590.480469 23.667969 590.613281 23.789063 590.632813 24.03125 L 590.632813 24.128906 Z M 589.878906 30.125 "/>
<path style=" stroke:none;fill-rule:nonzero;fill:rgb(0%,0%,94.099426%);fill-opacity:1;" d="M 57.210938 201.5 L 239.90625 225.675781 L 239.621094 227.855469 L 56.925781 203.679688 C 56.324219 203.597656 55.898438 203.046875 55.980469 202.445313 C 56.058594 201.84375 56.613281 201.421875 57.210938 201.5 Z M 257.167969 229.070313 L 236.257813 219.652344 L 239.890625 225.675781 L 239.601563 227.851563 L 234.527344 232.722656 Z M 257.167969 229.070313 "/>
<path style="fill:none;stroke-width:15;stroke-linecap:round;stroke-linejoin:round;stroke:rgb(0%,0%,94.099426%);stroke-opacity:1;stroke-miterlimit:10;" d="M 1689.105865 880.360555 L 2974.728894 710.324048 " transform="matrix(0.14643,0,0,-0.146499,0,357.69839)"/>
<path style="fill:none;stroke-width:15;stroke-linecap:round;stroke-linejoin:round;stroke:rgb(0%,0%,0%);stroke-opacity:1;stroke-dasharray:120,60;stroke-miterlimit:10;" d="M 382.995245 241.277132 L 2974.968983 716.243462 " transform="matrix(0.14643,0,0,-0.146499,0,357.69839)"/>
<path style=" stroke:none;fill-rule:nonzero;fill:rgb(0%,0%,94.099426%);fill-opacity:1;" d="M 434.53125 251.851563 L 499.851563 239.878906 L 500.246094 242.039063 L 434.925781 254.015625 C 434.332031 254.125 433.757813 253.726563 433.648438 253.132813 C 433.539063 252.535156 433.933594 251.960938 434.53125 251.851563 Z M 517.316406 237.792969 L 494.523438 235.269531 L 499.832031 239.882813 L 500.230469 242.042969 L 496.898438 248.238281 Z M 517.316406 237.792969 "/>
<path style="fill:none;stroke-width:15;stroke-linecap:round;stroke-linejoin:round;stroke:rgb(0%,0%,94.099426%);stroke-opacity:1;stroke-miterlimit:10;" d="M 2968.860053 710.030744 L 3968.510453 893.23928 " transform="matrix(0.14643,0,0,-0.146499,0,357.69839)"/>
<path style="fill:none;stroke-width:15;stroke-linecap:round;stroke-linejoin:round;stroke:rgb(0%,0%,0%);stroke-opacity:1;stroke-dasharray:120,60;stroke-miterlimit:10;" d="M 382.995245 241.277132 L 1492.152888 672.514457 " transform="matrix(0.14643,0,0,-0.146499,0,357.69839)"/>
<path style="fill:none;stroke-width:15;stroke-linecap:round;stroke-linejoin:round;stroke:rgb(0%,0%,94.099426%);stroke-opacity:1;stroke-miterlimit:10;" d="M 382.995245 1058.769566 L 3974.72609 1426.279863 " transform="matrix(0.14643,0,0,-0.146499,0,357.69839)"/>
<path style=" stroke:none;fill-rule:nonzero;fill:rgb(0%,0%,94.099426%);fill-opacity:1;" d="M 55.96875 201.496094 L 308.484375 175.648438 L 308.707031 177.835938 L 56.191406 203.683594 C 55.589844 203.746094 55.050781 203.304688 54.988281 202.699219 C 54.925781 202.097656 55.363281 201.558594 55.96875 201.496094 Z M 326.058594 174.953125 L 303.539063 170.632813 L 308.46875 175.648438 L 308.691406 177.835938 L 304.878906 183.75 Z M 326.058594 174.953125 "/>
<path style=" stroke:none;fill-rule:evenodd;fill:rgb(0%,0%,0%);fill-opacity:1;" d="M 225.101563 265.335938 C 225.042969 265.636719 224.859375 265.78125 224.554688 265.78125 C 224.09375 265.78125 223.652344 265.792969 223.238281 265.8125 C 222.824219 265.832031 222.523438 265.882813 222.335938 265.964844 C 222.148438 266.042969 222 266.296875 221.890625 266.71875 L 217.730469 282.921875 C 217.671875 283.132813 217.640625 283.300781 217.640625 283.421875 C 217.640625 283.539063 217.671875 283.613281 217.730469 283.640625 C 217.867188 283.726563 218.136719 283.777344 218.539063 283.792969 C 218.9375 283.804688 219.367188 283.8125 219.832031 283.8125 C 220.109375 283.8125 220.246094 283.929688 220.246094 284.15625 C 220.246094 284.214844 220.238281 284.277344 220.21875 284.34375 L 220.15625 284.558594 C 220.128906 284.683594 220.0625 284.789063 219.957031 284.875 C 219.855469 284.960938 219.734375 285.003906 219.59375 285.003906 C 218.421875 284.949219 217.226563 284.917969 216.011719 284.917969 C 214.800781 284.917969 213.578125 284.949219 212.34375 285.003906 C 212.085938 285.003906 211.957031 284.882813 211.957031 284.632813 L 211.957031 284.515625 L 212.015625 284.273438 C 212.09375 283.957031 212.289063 283.804688 212.59375 283.8125 C 213.058594 283.8125 213.492188 283.804688 213.894531 283.792969 C 214.300781 283.777344 214.601563 283.726563 214.800781 283.640625 C 214.976563 283.542969 215.121094 283.285156 215.226563 282.863281 L 219.386719 266.800781 L 208.390625 284.601563 C 208.242188 284.871094 208.015625 285.003906 207.707031 285.003906 L 207.5625 285.003906 C 207.257813 285.003906 207.074219 284.851563 207.011719 284.546875 L 205.222656 266.960938 L 201.328125 282.128906 C 201.269531 282.304688 201.242188 282.484375 201.242188 282.675781 C 201.242188 282.722656 201.25 282.777344 201.269531 282.835938 C 201.289063 283.066406 201.367188 283.246094 201.507813 283.378906 C 201.683594 283.554688 201.921875 283.667969 202.21875 283.726563 C 202.515625 283.785156 202.847656 283.8125 203.222656 283.8125 C 203.5 283.8125 203.636719 283.929688 203.636719 284.15625 C 203.636719 284.214844 203.628906 284.277344 203.609375 284.34375 L 203.550781 284.558594 C 203.519531 284.683594 203.453125 284.789063 203.347656 284.875 C 203.246094 284.960938 203.121094 285.003906 202.972656 285.003906 C 201.984375 284.949219 200.988281 284.917969 199.980469 284.917969 C 198.976563 284.917969 197.953125 284.949219 196.917969 285.003906 C 196.769531 285.003906 196.660156 284.960938 196.59375 284.875 C 196.523438 284.808594 196.488281 284.738281 196.488281 284.660156 C 196.488281 284.601563 196.5 284.546875 196.519531 284.488281 L 196.578125 284.273438 C 196.65625 283.957031 196.847656 283.804688 197.15625 283.8125 C 197.53125 283.8125 197.882813 283.785156 198.214844 283.726563 C 198.542969 283.667969 198.851563 283.550781 199.140625 283.367188 C 199.367188 283.222656 199.550781 283.035156 199.695313 282.800781 C 199.835938 282.566406 199.941406 282.3125 200.011719 282.042969 L 203.976563 266.660156 C 204.039063 266.449219 204.066406 266.285156 204.066406 266.167969 C 204.066406 266.054688 204.042969 265.988281 203.992188 265.96875 C 203.855469 265.886719 203.585938 265.832031 203.1875 265.8125 C 202.789063 265.792969 202.355469 265.78125 201.890625 265.78125 C 201.625 265.78125 201.480469 265.652344 201.460938 265.394531 L 201.460938 265.292969 L 201.523438 265.035156 C 201.628906 264.746094 201.824219 264.605469 202.097656 264.601563 L 206.894531 264.601563 C 207.210938 264.605469 207.386719 264.757813 207.425781 265.066406 L 209.113281 281.496094 L 219.300781 265.003906 C 219.445313 264.734375 219.675781 264.605469 219.980469 264.601563 L 224.777344 264.601563 C 224.914063 264.605469 225.03125 264.652344 225.132813 264.746094 C 225.171875 264.824219 225.191406 264.894531 225.191406 264.960938 C 225.191406 265.019531 225.175781 265.074219 225.148438 265.121094 Z M 225.101563 265.335938 "/>
<path style=" stroke:none;fill-rule:evenodd;fill:rgb(0%,0%,0%);fill-opacity:1;" d="M 445.6875 275.640625 C 445.65625 275.765625 445.589844 275.871094 445.488281 275.957031 C 445.382813 276.042969 445.257813 276.085938 445.109375 276.085938 C 444.753906 276.085938 444.410156 276.113281 444.074219 276.164063 C 443.738281 276.21875 443.425781 276.347656 443.140625 276.546875 C 442.90625 276.6875 442.71875 276.878906 442.578125 277.113281 C 442.441406 277.347656 442.335938 277.601563 442.269531 277.867188 L 437.902344 294.878906 C 437.792969 295.164063 437.601563 295.308594 437.324219 295.308594 L 436.984375 295.308594 C 436.808594 295.308594 436.675781 295.230469 436.585938 295.078125 C 435.46875 292.070313 434.363281 289.066406 433.261719 286.070313 C 432.164063 283.078125 431.109375 280.246094 430.101563 277.578125 L 426.285156 292.433594 C 426.226563 292.597656 426.195313 292.761719 426.195313 292.921875 C 426.195313 292.988281 426.207031 293.0625 426.226563 293.136719 C 426.253906 293.367188 426.34375 293.550781 426.492188 293.683594 C 426.667969 293.855469 426.90625 293.972656 427.203125 294.03125 C 427.5 294.085938 427.832031 294.117188 428.210938 294.113281 C 428.484375 294.117188 428.625 294.230469 428.625 294.460938 C 428.625 294.519531 428.613281 294.582031 428.59375 294.648438 L 428.535156 294.863281 C 428.503906 294.996094 428.433594 295.105469 428.320313 295.1875 C 428.207031 295.269531 428.085938 295.308594 427.957031 295.308594 C 426.972656 295.25 425.96875 295.222656 424.953125 295.222656 C 423.945313 295.222656 422.929688 295.25 421.90625 295.308594 C 421.757813 295.308594 421.648438 295.265625 421.578125 295.179688 C 421.511719 295.113281 421.476563 295.039063 421.476563 294.964844 C 421.476563 294.90625 421.488281 294.847656 421.503906 294.789063 L 421.5625 294.574219 C 421.59375 294.449219 421.664063 294.34375 421.773438 294.253906 C 421.878906 294.160156 422.003906 294.117188 422.140625 294.113281 C 422.515625 294.117188 422.867188 294.085938 423.191406 294.03125 C 423.519531 293.972656 423.828125 293.851563 424.125 293.667969 C 424.351563 293.527344 424.535156 293.335938 424.671875 293.101563 C 424.8125 292.867188 424.917969 292.617188 424.996094 292.347656 L 429.140625 276.230469 C 428.972656 276.171875 428.671875 276.136719 428.230469 276.113281 C 427.792969 276.097656 427.324219 276.085938 426.832031 276.085938 C 426.683594 276.085938 426.574219 276.039063 426.507813 275.941406 C 426.449219 275.882813 426.417969 275.8125 426.417969 275.726563 C 426.417969 275.667969 426.433594 275.617188 426.460938 275.566406 L 426.507813 275.339844 C 426.617188 275.050781 426.808594 274.90625 427.082031 274.90625 L 431.714844 274.90625 C 431.90625 274.90625 432.027344 274.984375 432.085938 275.136719 L 437.722656 290.347656 L 440.964844 277.78125 C 441.023438 277.609375 441.054688 277.4375 441.054688 277.261719 C 441.054688 276.96875 440.960938 276.722656 440.773438 276.53125 C 440.566406 276.332031 440.320313 276.207031 440.042969 276.160156 C 439.761719 276.109375 439.433594 276.085938 439.054688 276.085938 C 438.910156 276.085938 438.800781 276.042969 438.730469 275.957031 C 438.664063 275.890625 438.628906 275.8125 438.628906 275.726563 C 438.628906 275.667969 438.644531 275.617188 438.671875 275.566406 L 438.714844 275.339844 C 438.824219 275.050781 439.015625 274.90625 439.292969 274.90625 C 440.300781 274.945313 441.3125 274.964844 442.328125 274.964844 C 443.332031 274.964844 444.34375 274.945313 445.363281 274.90625 C 445.5 274.90625 445.617188 274.953125 445.714844 275.050781 C 445.753906 275.128906 445.773438 275.199219 445.773438 275.265625 C 445.773438 275.324219 445.761719 275.375 445.730469 275.421875 Z M 445.6875 275.640625 "/>
<path style=" stroke:none;fill-rule:evenodd;fill:rgb(4.309082%,76.098633%,72.198486%);fill-opacity:0.39216;" d="M 580.242188 169.992188 L 579.144531 170.542969 L 576.398438 172.191406 L 565.417969 178.78125 L 563.769531 179.332031 L 561.023438 179.882813 L 561.574219 178.78125 L 563.769531 174.9375 L 561.574219 174.9375 L 556.632813 176.585938 L 544.550781 179.332031 L 525.332031 183.175781 L 513.253906 186.472656 L 469.871094 195.8125 L 457.792969 199.109375 L 445.710938 201.855469 L 440.769531 202.953125 L 438.574219 202.953125 L 438.023438 203.503906 L 436.375 203.503906 L 435.828125 213.394531 L 433.082031 212.84375 L 433.082031 204.601563 L 431.433594 204.601563 L 428.6875 205.703125 L 426.492188 205.703125 L 421.550781 207.347656 L 414.410156 208.449219 L 407.824219 210.097656 L 406.175781 210.644531 L 405.078125 211.195313 L 393.546875 217.789063 L 392.449219 218.886719 L 390.25 218.335938 L 390.800781 217.238281 L 392.449219 214.492188 L 392.996094 213.394531 L 390.25 213.941406 L 385.308594 215.589844 C 383.296875 216.046875 385.308594 215.589844 373.226563 218.335938 C 361.148438 221.082031 322.894531 229.78125 312.824219 232.070313 L 305.6875 233.171875 L 303.492188 233.71875 L 302.941406 234.269531 L 301.292969 234.269531 L 303.492188 234.269531 L 304.039063 234.816406 L 307.882813 234.816406 L 316.121094 235.917969 L 328.75 238.113281 L 336.988281 238.664063 L 403.429688 248.003906 L 424.296875 250.75 L 428.6875 251.300781 L 433.082031 251.300781 L 433.628906 248.003906 L 436.375 248.550781 L 436.375 250.75 L 438.574219 250.75 L 439.121094 250.199219 L 441.867188 250.199219 L 447.90625 249.101563 L 453.949219 247.453125 L 480.855469 243.058594 L 486.894531 241.410156 L 495.679688 240.3125 L 498.976563 239.214844 L 497.878906 238.113281 L 494.582031 235.367188 L 497.328125 234.816406 L 502.820313 235.917969 L 507.761719 235.917969 L 513.253906 237.015625 L 517.644531 237.015625 C 518.652344 236.832031 519.660156 236.648438 523.683594 235.917969 C 527.710938 235.183594 538.785156 233.171875 541.804688 232.621094 L 547.847656 230.972656 L 568.710938 227.675781 L 574.753906 226.578125 L 578.046875 225.480469 L 580.242188 225.480469 Z M 580.242188 169.992188 "/>
</g>
</svg>
