<?xml version="1.0" encoding="utf-8" standalone="no"?>
<!DOCTYPE svg PUBLIC "-//W3C//DTD SVG 1.1//EN"
  "http://www.w3.org/Graphics/SVG/1.1/DTD/svg11.dtd">
<svg xmlns:xlink="http://www.w3.org/1999/xlink" width="288pt" height="288pt" viewBox="0 0 288 288" xmlns="http://www.w3.org/2000/svg" version="1.1">
 <metadata>
  <rdf:RDF xmlns:dc="http://purl.org/dc/elements/1.1/" xmlns:cc="http://creativecommons.org/ns#" xmlns:rdf="http://www.w3.org/1999/02/22-rdf-syntax-ns#">
   <cc:Work>
    <dc:type rdf:resource="http://purl.org/dc/dcmitype/StillImage"/>
    <dc:date>2023-11-01T00:26:21.110164</dc:date>
    <dc:format>image/svg+xml</dc:format>
    <dc:creator>
     <cc:Agent>
      <dc:title>Matplotlib v3.8.0, https://matplotlib.org/</dc:title>
     </cc:Agent>
    </dc:creator>
   </cc:Work>
  </rdf:RDF>
 </metadata>
 <defs>
  <style type="text/css">*{stroke-linejoin: round; stroke-linecap: butt}</style>
 </defs>
 <g id="figure_1">
  <g id="patch_1">
   <path d="M 0 288 
L 288 288 
L 288 0 
L 0 0 
z
" style="fill: #ffffff"/>
  </g>
  <g id="axes_1">
   <g id="patch_2">
    <path d="M 179.133333 111.097706 
C 179.133333 101.785015 177.298936 92.562877 173.735124 83.959072 
C 170.171311 75.355268 164.94739 67.537117 158.362323 60.95205 
C 151.777255 54.366983 143.959105 49.143062 135.3553 45.579249 
C 126.751495 42.015436 117.529358 40.181039 108.216667 40.181039 
C 98.903975 40.181039 89.681838 42.015436 81.078033 45.579249 
C 72.474228 49.143062 64.656078 54.366983 58.071011 60.95205 
C 51.485944 67.537117 46.262023 75.355268 42.69821 83.959072 
C 39.134397 92.562877 37.3 101.785015 37.3 111.097706 
C 37.3 120.410397 39.134397 129.632534 42.69821 138.236339 
C 46.262023 146.840144 51.485944 154.658295 58.071011 161.243362 
C 64.656078 167.828429 72.474228 173.05235 81.078033 176.616163 
C 89.681838 180.179975 98.903975 182.014373 108.216667 182.014373 
C 117.529358 182.014373 126.751495 180.179975 135.3553 176.616163 
C 143.959105 173.05235 151.777255 167.828429 158.362323 161.243362 
C 164.94739 154.658295 170.171311 146.840144 173.735124 138.236339 
C 177.298936 129.632534 179.133333 120.410397 179.133333 111.097706 
M 108.216667 111.097706 
C 108.216667 111.097706 108.216667 111.097706 108.216667 111.097706 
C 108.216667 111.097706 108.216667 111.097706 108.216667 111.097706 
C 108.216667 111.097706 108.216667 111.097706 108.216667 111.097706 
C 108.216667 111.097706 108.216667 111.097706 108.216667 111.097706 
C 108.216667 111.097706 108.216667 111.097706 108.216667 111.097706 
C 108.216667 111.097706 108.216667 111.097706 108.216667 111.097706 
C 108.216667 111.097706 108.216667 111.097706 108.216667 111.097706 
C 108.216667 111.097706 108.216667 111.097706 108.216667 111.097706 
C 108.216667 111.097706 108.216667 111.097706 108.216667 111.097706 
C 108.216667 111.097706 108.216667 111.097706 108.216667 111.097706 
C 108.216667 111.097706 108.216667 111.097706 108.216667 111.097706 
C 108.216667 111.097706 108.216667 111.097706 108.216667 111.097706 
C 108.216667 111.097706 108.216667 111.097706 108.216667 111.097706 
C 108.216667 111.097706 108.216667 111.097706 108.216667 111.097706 
C 108.216667 111.097706 108.216667 111.097706 108.216667 111.097706 
C 108.216667 111.097706 108.216667 111.097706 108.216667 111.097706 
z
" style="fill: #ffffff"/>
   </g>
   <g id="matplotlib.axis_1">
    <g id="xtick_1">
     <g id="line2d_1">
      <path d="M 108.216667 111.097706 
L 179.133333 111.097706 
" clip-path="url(#pa416b76e41)" style="fill: none; stroke: #b0b0b0; stroke-width: 0.8; stroke-linecap: square"/>
     </g>
     <g id="text_1">
      <!-- 0° -->
      <g transform="translate(185.633333 113.910206) scale(0.1 -0.1)">
       <defs>
        <path id="SimHei-30" d="M 225 2537 
Q 250 3200 412 3587 
Q 575 3975 875 4225 
Q 1175 4475 1612 4475 
Q 2050 4475 2375 4112 
Q 2700 3750 2800 3200 
Q 2900 2650 2862 1937 
Q 2825 1225 2612 775 
Q 2400 325 1975 150 
Q 1550 -25 1125 187 
Q 700 400 525 750 
Q 350 1100 275 1487 
Q 200 1875 225 2537 
z
M 750 2687 
Q 675 2000 800 1462 
Q 925 925 1212 700 
Q 1500 475 1800 612 
Q 2100 750 2237 1162 
Q 2375 1575 2375 2062 
Q 2375 2550 2337 2950 
Q 2300 3350 2112 3675 
Q 1925 4000 1612 4012 
Q 1300 4025 1062 3700 
Q 825 3375 750 2687 
z
" transform="scale(0.015625)"/>
        <path id="SimHei-b0" d="M 1512 3225 
Q 1200 3250 1012 3450 
Q 825 3650 837 3950 
Q 850 4250 1000 4412 
Q 1150 4575 1375 4637 
Q 1600 4700 1812 4650 
Q 2025 4600 2175 4387 
Q 2325 4175 2287 3850 
Q 2250 3525 2037 3362 
Q 1825 3200 1512 3225 
z
M 1100 4000 
Q 1075 3825 1162 3675 
Q 1250 3525 1487 3487 
Q 1725 3450 1875 3587 
Q 2025 3725 2025 3962 
Q 2025 4200 1875 4325 
Q 1725 4450 1550 4425 
Q 1375 4400 1250 4287 
Q 1125 4175 1100 4000 
z
" transform="scale(0.015625)"/>
       </defs>
       <use xlink:href="#SimHei-30"/>
       <use xlink:href="#SimHei-b0" x="50"/>
      </g>
     </g>
    </g>
    <g id="xtick_2">
     <g id="line2d_2">
      <path d="M 108.216667 111.097706 
L 158.362323 60.95205 
" clip-path="url(#pa416b76e41)" style="fill: none; stroke: #b0b0b0; stroke-width: 0.8; stroke-linecap: square"/>
     </g>
     <g id="text_2">
      <!-- 45° -->
      <g transform="translate(158.261818 53.865055) scale(0.1 -0.1)">
       <defs>
        <path id="SimHei-34" d="M 2000 1100 
L 75 1100 
L 75 1525 
L 2100 4450 
L 2475 4450 
L 2475 1525 
L 3075 1525 
L 3075 1100 
L 2475 1100 
L 2475 150 
L 2000 150 
L 2000 1100 
z
M 2000 1525 
L 2000 3500 
L 600 1525 
L 2000 1525 
z
" transform="scale(0.015625)"/>
        <path id="SimHei-35" d="M 550 1325 
Q 725 650 1150 575 
Q 1575 500 1837 662 
Q 2100 825 2212 1087 
Q 2325 1350 2312 1675 
Q 2300 2000 2137 2225 
Q 1975 2450 1725 2525 
Q 1475 2600 1162 2525 
Q 850 2450 650 2175 
L 225 2225 
Q 275 2375 700 4375 
L 2675 4375 
L 2675 3925 
L 1075 3925 
Q 950 3250 825 2850 
Q 1200 3025 1525 3012 
Q 1850 3000 2150 2862 
Q 2450 2725 2587 2487 
Q 2725 2250 2787 2012 
Q 2850 1775 2837 1500 
Q 2825 1225 2725 937 
Q 2625 650 2425 462 
Q 2225 275 1937 162 
Q 1650 50 1275 75 
Q 900 100 562 350 
Q 225 600 100 1200 
L 550 1325 
z
" transform="scale(0.015625)"/>
       </defs>
       <use xlink:href="#SimHei-34"/>
       <use xlink:href="#SimHei-35" x="50"/>
       <use xlink:href="#SimHei-b0" x="100"/>
      </g>
     </g>
    </g>
    <g id="xtick_3">
     <g id="line2d_3">
      <path d="M 108.216667 111.097706 
L 108.216667 40.181039 
" clip-path="url(#pa416b76e41)" style="fill: none; stroke: #b0b0b0; stroke-width: 0.8; stroke-linecap: square"/>
     </g>
     <g id="text_3">
      <!-- 90° -->
      <g transform="translate(98.216667 28.993539) scale(0.1 -0.1)">
       <defs>
        <path id="SimHei-39" d="M 800 75 
Q 1350 1000 1700 1750 
Q 1075 1650 662 1912 
Q 250 2175 162 2625 
Q 75 3075 175 3437 
Q 275 3800 487 4037 
Q 700 4275 1000 4375 
Q 1300 4475 1537 4475 
Q 1775 4475 2025 4375 
Q 2275 4275 2475 4075 
Q 2675 3875 2750 3662 
Q 2825 3450 2825 3112 
Q 2825 2775 2575 2250 
Q 2325 1725 1350 75 
L 800 75 
z
M 662 2875 
Q 700 2550 937 2337 
Q 1175 2125 1450 2150 
Q 1725 2175 1887 2300 
Q 2050 2425 2200 2725 
Q 2300 3100 2250 3362 
Q 2200 3625 1987 3800 
Q 1775 3975 1525 3975 
Q 1375 4000 1137 3900 
Q 900 3800 762 3500 
Q 625 3200 662 2875 
z
" transform="scale(0.015625)"/>
       </defs>
       <use xlink:href="#SimHei-39"/>
       <use xlink:href="#SimHei-30" x="50"/>
       <use xlink:href="#SimHei-b0" x="100"/>
      </g>
     </g>
    </g>
    <g id="xtick_4">
     <g id="line2d_4">
      <path d="M 108.216667 111.097706 
L 58.071011 60.95205 
" clip-path="url(#pa416b76e41)" style="fill: none; stroke: #b0b0b0; stroke-width: 0.8; stroke-linecap: square"/>
     </g>
     <g id="text_4">
      <!-- 135° -->
      <g transform="translate(35.671516 53.865055) scale(0.1 -0.1)">
       <defs>
        <path id="SimHei-31" d="M 1400 3600 
Q 1075 3275 575 2975 
L 575 3450 
Q 1200 3875 1600 4450 
L 1900 4450 
L 1900 150 
L 1400 150 
L 1400 3600 
z
" transform="scale(0.015625)"/>
        <path id="SimHei-33" d="M 250 1225 
L 700 1300 
Q 800 975 1025 762 
Q 1250 550 1587 562 
Q 1925 575 2125 837 
Q 2325 1100 2300 1437 
Q 2275 1775 2037 1962 
Q 1800 2150 1275 2225 
L 1275 2550 
Q 1800 2600 2037 2825 
Q 2275 3050 2250 3412 
Q 2225 3775 1925 3937 
Q 1625 4100 1287 3975 
Q 950 3850 750 3275 
L 300 3350 
Q 450 3800 712 4100 
Q 975 4400 1425 4450 
Q 1875 4500 2212 4337 
Q 2550 4175 2687 3837 
Q 2825 3500 2725 3100 
Q 2625 2700 2150 2400 
Q 2500 2250 2687 1950 
Q 2875 1650 2812 1162 
Q 2750 675 2375 375 
Q 2000 75 1525 87 
Q 1050 100 700 387 
Q 350 675 250 1225 
z
" transform="scale(0.015625)"/>
       </defs>
       <use xlink:href="#SimHei-31"/>
       <use xlink:href="#SimHei-33" x="50"/>
       <use xlink:href="#SimHei-35" x="100"/>
       <use xlink:href="#SimHei-b0" x="150"/>
      </g>
     </g>
    </g>
    <g id="xtick_5">
     <g id="line2d_5">
      <path d="M 108.216667 111.097706 
L 37.3 111.097706 
" clip-path="url(#pa416b76e41)" style="fill: none; stroke: #b0b0b0; stroke-width: 0.8; stroke-linecap: square"/>
     </g>
     <g id="text_5">
      <!-- 180° -->
      <g transform="translate(10.8 113.910206) scale(0.1 -0.1)">
       <defs>
        <path id="SimHei-38" d="M 175 1375 
Q 175 1675 325 1962 
Q 475 2250 825 2425 
Q 525 2600 425 2812 
Q 325 3025 312 3300 
Q 300 3575 387 3775 
Q 475 3975 650 4150 
Q 825 4325 1037 4387 
Q 1250 4450 1500 4450 
Q 1750 4450 1950 4400 
Q 2150 4350 2375 4187 
Q 2600 4025 2700 3725 
Q 2800 3425 2687 3025 
Q 2575 2625 2100 2400 
Q 2525 2275 2700 2012 
Q 2875 1750 2875 1375 
Q 2875 1000 2762 775 
Q 2650 550 2512 400 
Q 2375 250 2137 162 
Q 1900 75 1537 75 
Q 1175 75 912 162 
Q 650 250 475 425 
Q 300 600 237 837 
Q 175 1075 175 1375 
z
M 687 1400 
Q 675 1100 787 875 
Q 900 650 1200 587 
Q 1500 525 1825 600 
Q 2150 675 2275 950 
Q 2400 1225 2362 1500 
Q 2325 1775 2050 1962 
Q 1775 2150 1450 2125 
Q 1125 2100 912 1900 
Q 700 1700 687 1400 
z
M 775 3350 
Q 775 3100 950 2875 
Q 1125 2650 1500 2650 
Q 1875 2650 2062 2875 
Q 2250 3100 2237 3412 
Q 2225 3725 2012 3875 
Q 1800 4025 1437 4000 
Q 1075 3975 925 3787 
Q 775 3600 775 3350 
z
" transform="scale(0.015625)"/>
       </defs>
       <use xlink:href="#SimHei-31"/>
       <use xlink:href="#SimHei-38" x="50"/>
       <use xlink:href="#SimHei-30" x="100"/>
       <use xlink:href="#SimHei-b0" x="150"/>
      </g>
     </g>
    </g>
    <g id="xtick_6">
     <g id="line2d_6">
      <path d="M 108.216667 111.097706 
L 58.071011 161.243362 
" clip-path="url(#pa416b76e41)" style="fill: none; stroke: #b0b0b0; stroke-width: 0.8; stroke-linecap: square"/>
     </g>
     <g id="text_6">
      <!-- 225° -->
      <g transform="translate(35.671516 173.955357) scale(0.1 -0.1)">
       <defs>
        <path id="SimHei-32" d="M 300 250 
Q 325 625 650 925 
Q 975 1225 1475 1862 
Q 1975 2500 2125 2850 
Q 2275 3200 2237 3450 
Q 2200 3700 2000 3862 
Q 1800 4025 1537 4000 
Q 1275 3975 1037 3800 
Q 800 3625 675 3275 
L 200 3350 
Q 400 3925 712 4187 
Q 1025 4450 1450 4475 
Q 1700 4500 1900 4462 
Q 2100 4425 2312 4287 
Q 2525 4150 2662 3875 
Q 2800 3600 2762 3212 
Q 2725 2825 2375 2287 
Q 2025 1750 1025 600 
L 2825 600 
L 2825 150 
L 300 150 
L 300 250 
z
" transform="scale(0.015625)"/>
       </defs>
       <use xlink:href="#SimHei-32"/>
       <use xlink:href="#SimHei-32" x="50"/>
       <use xlink:href="#SimHei-35" x="100"/>
       <use xlink:href="#SimHei-b0" x="150"/>
      </g>
     </g>
    </g>
    <g id="xtick_7">
     <g id="line2d_7">
      <path d="M 108.216667 111.097706 
L 108.216667 182.014373 
" clip-path="url(#pa416b76e41)" style="fill: none; stroke: #b0b0b0; stroke-width: 0.8; stroke-linecap: square"/>
     </g>
     <g id="text_7">
      <!-- 270° -->
      <g transform="translate(95.716667 198.826873) scale(0.1 -0.1)">
       <defs>
        <path id="SimHei-37" d="M 850 150 
Q 1300 2050 2425 3925 
L 275 3925 
L 275 4375 
L 2950 4375 
L 2950 3950 
Q 1775 2050 1400 150 
L 850 150 
z
" transform="scale(0.015625)"/>
       </defs>
       <use xlink:href="#SimHei-32"/>
       <use xlink:href="#SimHei-37" x="50"/>
       <use xlink:href="#SimHei-30" x="100"/>
       <use xlink:href="#SimHei-b0" x="150"/>
      </g>
     </g>
    </g>
    <g id="xtick_8">
     <g id="line2d_8">
      <path d="M 108.216667 111.097706 
L 158.362323 161.243362 
" clip-path="url(#pa416b76e41)" style="fill: none; stroke: #b0b0b0; stroke-width: 0.8; stroke-linecap: square"/>
     </g>
     <g id="text_8">
      <!-- 315° -->
      <g transform="translate(155.761818 173.955357) scale(0.1 -0.1)">
       <use xlink:href="#SimHei-33"/>
       <use xlink:href="#SimHei-31" x="50"/>
       <use xlink:href="#SimHei-35" x="100"/>
       <use xlink:href="#SimHei-b0" x="150"/>
      </g>
     </g>
    </g>
   </g>
   <g id="matplotlib.axis_2">
    <g id="ytick_1">
     <g id="line2d_9">
      <path d="M 125.108892 111.097706 
C 125.108892 108.879439 124.671942 106.682742 123.823048 104.633331 
C 122.974154 102.58392 121.729825 100.72165 120.161274 99.153099 
C 118.592722 97.584547 116.730453 96.340219 114.681041 95.491325 
C 112.63163 94.642431 110.434933 94.205481 108.216667 94.205481 
C 105.9984 94.205481 103.801703 94.642431 101.752292 95.491325 
C 99.702881 96.340219 97.840611 97.584547 96.27206 99.153099 
C 94.703508 100.72165 93.459179 102.58392 92.610285 104.633331 
C 91.761392 106.682742 91.324441 108.879439 91.324441 111.097706 
C 91.324441 113.315973 91.761392 115.512669 92.610285 117.562081 
C 93.459179 119.611492 94.703508 121.473761 96.27206 123.042313 
C 97.840611 124.610864 99.702881 125.855193 101.752292 126.704087 
C 103.801703 127.552981 105.9984 127.989931 108.216667 127.989931 
C 110.434933 127.989931 112.63163 127.552981 114.681041 126.704087 
C 116.730453 125.855193 118.592722 124.610864 120.161274 123.042313 
C 121.729825 121.473761 122.974154 119.611492 123.823048 117.562081 
C 124.671942 115.512669 125.108892 113.315973 125.108892 111.097706 
" clip-path="url(#pa416b76e41)" style="fill: none; stroke: #b0b0b0; stroke-width: 0.8; stroke-linecap: square"/>
     </g>
     <g id="text_9">
      <!-- 0.5 -->
      <g transform="translate(123.823048 103.383331) scale(0.1 -0.1)">
       <defs>
        <path id="SimHei-2e" d="M 1075 125 
L 500 125 
L 500 675 
L 1075 675 
L 1075 125 
z
" transform="scale(0.015625)"/>
       </defs>
       <use xlink:href="#SimHei-30"/>
       <use xlink:href="#SimHei-2e" x="50"/>
       <use xlink:href="#SimHei-35" x="100"/>
      </g>
     </g>
    </g>
    <g id="ytick_2">
     <g id="line2d_10">
      <path d="M 142.001117 111.097706 
C 142.001117 106.661172 141.127217 102.267779 139.429429 98.168956 
C 137.731641 94.070134 135.242984 90.345595 132.105881 87.208492 
C 128.968778 84.071389 125.244239 81.582731 121.145416 79.884944 
C 117.046594 78.187156 112.6532 77.313255 108.216667 77.313255 
C 103.780133 77.313255 99.38674 78.187156 95.287917 79.884944 
C 91.189095 81.582731 87.464555 84.071389 84.327453 87.208492 
C 81.19035 90.345595 78.701692 94.070134 77.003904 98.168956 
C 75.306117 102.267779 74.432216 106.661172 74.432216 111.097706 
C 74.432216 115.534239 75.306117 119.927633 77.003904 124.026455 
C 78.701692 128.125278 81.19035 131.849817 84.327453 134.98692 
C 87.464555 138.124023 91.189095 140.61268 95.287917 142.310468 
C 99.38674 144.008256 103.780133 144.882156 108.216667 144.882156 
C 112.6532 144.882156 117.046594 144.008256 121.145416 142.310468 
C 125.244239 140.61268 128.968778 138.124023 132.105881 134.98692 
C 135.242984 131.849817 137.731641 128.125278 139.429429 124.026455 
C 141.127217 119.927633 142.001117 115.534239 142.001117 111.097706 
" clip-path="url(#pa416b76e41)" style="fill: none; stroke: #b0b0b0; stroke-width: 0.8; stroke-linecap: square"/>
     </g>
     <g id="text_10">
      <!-- 1.0 -->
      <g transform="translate(139.429429 96.918956) scale(0.1 -0.1)">
       <use xlink:href="#SimHei-31"/>
       <use xlink:href="#SimHei-2e" x="50"/>
       <use xlink:href="#SimHei-30" x="100"/>
      </g>
     </g>
    </g>
    <g id="ytick_3">
     <g id="line2d_11">
      <path d="M 158.893342 111.097706 
C 158.893342 104.442906 157.582492 97.852815 155.03581 91.704582 
C 152.489128 85.556348 148.756142 79.969539 144.050488 75.263885 
C 139.344833 70.558231 133.758024 66.825244 127.609791 64.278562 
C 121.461557 61.731881 114.871467 60.42103 108.216667 60.42103 
C 101.561867 60.42103 94.971776 61.731881 88.823542 64.278562 
C 82.675309 66.825244 77.0885 70.558231 72.382846 75.263885 
C 67.677191 79.969539 63.944205 85.556348 61.397523 91.704582 
C 58.850841 97.852815 57.539991 104.442906 57.539991 111.097706 
C 57.539991 117.752506 58.850841 124.342597 61.397523 130.49083 
C 63.944205 136.639064 67.677191 142.225873 72.382846 146.931527 
C 77.0885 151.637181 82.675309 155.370168 88.823542 157.916849 
C 94.971776 160.463531 101.561867 161.774382 108.216667 161.774382 
C 114.871467 161.774382 121.461557 160.463531 127.609791 157.916849 
C 133.758024 155.370168 139.344833 151.637181 144.050488 146.931527 
C 148.756142 142.225873 152.489128 136.639064 155.03581 130.49083 
C 157.582492 124.342597 158.893342 117.752506 158.893342 111.097706 
" clip-path="url(#pa416b76e41)" style="fill: none; stroke: #b0b0b0; stroke-width: 0.8; stroke-linecap: square"/>
     </g>
     <g id="text_11">
      <!-- 1.5 -->
      <g transform="translate(155.03581 90.454582) scale(0.1 -0.1)">
       <use xlink:href="#SimHei-31"/>
       <use xlink:href="#SimHei-2e" x="50"/>
       <use xlink:href="#SimHei-35" x="100"/>
      </g>
     </g>
    </g>
    <g id="ytick_4">
     <g id="line2d_12">
      <path d="M 175.785568 111.097706 
C 175.785568 102.224639 174.037767 93.437852 170.642191 85.240207 
C 167.246616 77.042562 162.2693 69.593483 155.995095 63.319278 
C 149.720889 57.045072 142.27181 52.067757 134.074166 48.672181 
C 125.876521 45.276606 117.089733 43.528805 108.216667 43.528805 
C 99.3436 43.528805 90.556812 45.276606 82.359168 48.672181 
C 74.161523 52.067757 66.712444 57.045072 60.438239 63.319278 
C 54.164033 69.593483 49.186718 77.042562 45.791142 85.240207 
C 42.395566 93.437852 40.647766 102.224639 40.647766 111.097706 
C 40.647766 119.970773 42.395566 128.75756 45.791142 136.955205 
C 49.186718 145.15285 54.164033 152.601928 60.438239 158.876134 
C 66.712444 165.15034 74.161523 170.127655 82.359168 173.523231 
C 90.556812 176.918806 99.3436 178.666607 108.216667 178.666607 
C 117.089733 178.666607 125.876521 176.918806 134.074166 173.523231 
C 142.27181 170.127655 149.720889 165.15034 155.995095 158.876134 
C 162.2693 152.601928 167.246616 145.15285 170.642191 136.955205 
C 174.037767 128.75756 175.785568 119.970773 175.785568 111.097706 
" clip-path="url(#pa416b76e41)" style="fill: none; stroke: #b0b0b0; stroke-width: 0.8; stroke-linecap: square"/>
     </g>
     <g id="text_12">
      <!-- 2.0 -->
      <g transform="translate(170.642191 83.990207) scale(0.1 -0.1)">
       <use xlink:href="#SimHei-32"/>
       <use xlink:href="#SimHei-2e" x="50"/>
       <use xlink:href="#SimHei-30" x="100"/>
      </g>
     </g>
    </g>
   </g>
   <g id="line2d_13">
    <path d="M 108.216667 111.097706 
L 108.384605 111.080856 
L 108.876682 110.963914 
L 109.658205 110.651786 
L 110.673054 110.059162 
L 111.846178 109.114895 
L 113.086923 107.765784 
L 114.293091 105.979604 
L 115.35554 103.747247 
L 116.163142 101.08389 
L 116.607904 98.029128 
L 116.590031 94.646058 
L 116.02272 91.019354 
L 114.8365 87.252387 
L 112.98292 83.463524 
L 110.437435 79.781717 
L 107.201372 76.341592 
L 103.302874 73.278197 
L 98.796789 70.721644 
L 93.763486 68.791836 
L 88.306644 67.593514 
L 82.550089 67.211797 
L 76.633791 67.708423 
L 70.709178 69.118813 
L 64.933947 71.450117 
L 59.466559 74.680289 
L 54.460637 78.75826 
L 50.059486 83.6052 
L 46.390944 89.116817 
L 43.562758 95.166634 
L 41.658676 101.610094 
L 40.735396 108.289361 
L 40.820498 115.03862 
L 41.911437 121.689684 
L 43.975637 128.077696 
L 46.95168 134.04669 
L 50.751544 139.454832 
L 55.263808 144.179108 
L 60.357694 148.119306 
L 65.88779 151.201127 
L 71.69927 153.378325 
L 77.633411 154.633781 
L 83.53319 154.979492 
L 89.248754 154.45547 
L 94.642535 153.127612 
L 99.593839 151.084622 
L 104.002708 148.434117 
L 107.792937 145.298076 
L 110.914116 141.807813 
L 113.342629 138.09868 
L 115.081598 134.304708 
L 116.159748 130.553405 
L 116.629292 126.960905 
L 116.562893 123.627674 
L 116.049856 120.634934 
L 115.1917 118.041938 
L 114.097305 115.884212 
L 112.877818 114.17281 
L 111.641555 112.894629 
L 110.489083 112.013742 
L 109.508696 111.473694 
L 108.772475 111.200676 
L 108.333086 111.107413 
" clip-path="url(#pa416b76e41)" style="fill: none; stroke: #1f77b4; stroke-width: 1.5; stroke-linecap: square"/>
   </g>
   <g id="patch_3">
    <path d="M 179.133333 111.097706 
C 179.133333 101.785015 177.298936 92.562877 173.735124 83.959072 
C 170.171311 75.355268 164.94739 67.537117 158.362323 60.95205 
C 151.777255 54.366983 143.959105 49.143062 135.3553 45.579249 
C 126.751495 42.015436 117.529358 40.181039 108.216667 40.181039 
C 98.903975 40.181039 89.681838 42.015436 81.078033 45.579249 
C 72.474228 49.143062 64.656078 54.366983 58.071011 60.95205 
C 51.485944 67.537117 46.262023 75.355268 42.69821 83.959072 
C 39.134397 92.562877 37.3 101.785015 37.3 111.097706 
C 37.3 120.410397 39.134397 129.632534 42.69821 138.236339 
C 46.262023 146.840144 51.485944 154.658295 58.071011 161.243362 
C 64.656078 167.828429 72.474228 173.05235 81.078033 176.616163 
C 89.681838 180.179975 98.903975 182.014373 108.216667 182.014373 
C 117.529358 182.014373 126.751495 180.179975 135.3553 176.616163 
C 143.959105 173.05235 151.777255 167.828429 158.362323 161.243362 
C 164.94739 154.658295 170.171311 146.840144 173.735124 138.236339 
C 177.298936 129.632534 179.133333 120.410397 179.133333 111.097706 
" style="fill: none; stroke: #000000; stroke-width: 0.8; stroke-linejoin: miter; stroke-linecap: square"/>
   </g>
   <g id="text_13">
    <!-- Ax1 -->
    <g transform="translate(99.216667 16.118539) scale(0.12 -0.12)">
     <defs>
      <path id="SimHei-41" d="M 3075 125 
L 2475 125 
L 2125 1450 
L 1025 1450 
L 675 125 
L 75 125 
L 1325 4450 
L 1825 4450 
L 3075 125 
z
M 2000 1925 
L 1600 3450 
L 1550 3450 
L 1150 1925 
L 2000 1925 
z
" transform="scale(0.015625)"/>
      <path id="SimHei-78" d="M 2875 125 
L 2275 125 
L 1550 1200 
L 825 125 
L 225 125 
L 1250 1550 
L 300 2925 
L 900 2925 
L 1550 1875 
L 2200 2925 
L 2800 2925 
L 1850 1550 
L 2875 125 
z
" transform="scale(0.015625)"/>
     </defs>
     <use xlink:href="#SimHei-41"/>
     <use xlink:href="#SimHei-78" x="50"/>
     <use xlink:href="#SimHei-31" x="100"/>
    </g>
   </g>
  </g>
  <g id="axes_2">
   <g id="patch_4">
    <path d="M 233.433333 191.661735 
L 277.2 191.661735 
L 277.2 30.533676 
L 233.433333 30.533676 
z
" style="fill: #ffffff"/>
   </g>
   <g id="matplotlib.axis_3">
    <g id="xtick_9">
     <g id="line2d_14">
      <defs>
       <path id="m1def92d075" d="M 0 0 
L 0 3.5 
" style="stroke: #000000; stroke-width: 0.8"/>
      </defs>
      <g>
       <use xlink:href="#m1def92d075" x="235.422727" y="191.661735" style="stroke: #000000; stroke-width: 0.8"/>
      </g>
     </g>
     <g id="text_14">
      <!-- 0 -->
      <g transform="translate(232.922727 205.536735) scale(0.1 -0.1)">
       <use xlink:href="#SimHei-30"/>
      </g>
     </g>
    </g>
    <g id="xtick_10">
     <g id="line2d_15">
      <g>
       <use xlink:href="#m1def92d075" x="267.509726" y="191.661735" style="stroke: #000000; stroke-width: 0.8"/>
      </g>
     </g>
     <g id="text_15">
      <!-- 5 -->
      <g transform="translate(265.009726 205.536735) scale(0.1 -0.1)">
       <use xlink:href="#SimHei-35"/>
      </g>
     </g>
    </g>
   </g>
   <g id="matplotlib.axis_4">
    <g id="ytick_5">
     <g id="line2d_16">
      <defs>
       <path id="maa65aae253" d="M 0 0 
L -3.5 0 
" style="stroke: #000000; stroke-width: 0.8"/>
      </defs>
      <g>
       <use xlink:href="#maa65aae253" x="233.433333" y="184.635608" style="stroke: #000000; stroke-width: 0.8"/>
      </g>
     </g>
     <g id="text_16">
      <!-- 0 -->
      <g transform="translate(221.433333 188.073108) scale(0.1 -0.1)">
       <use xlink:href="#SimHei-30"/>
      </g>
     </g>
    </g>
    <g id="ytick_6">
     <g id="line2d_17">
      <g>
       <use xlink:href="#maa65aae253" x="233.433333" y="154.848046" style="stroke: #000000; stroke-width: 0.8"/>
      </g>
     </g>
     <g id="text_17">
      <!-- 100 -->
      <g transform="translate(211.433333 158.285546) scale(0.1 -0.1)">
       <use xlink:href="#SimHei-31"/>
       <use xlink:href="#SimHei-30" x="50"/>
       <use xlink:href="#SimHei-30" x="100"/>
      </g>
     </g>
    </g>
    <g id="ytick_7">
     <g id="line2d_18">
      <g>
       <use xlink:href="#maa65aae253" x="233.433333" y="125.060483" style="stroke: #000000; stroke-width: 0.8"/>
      </g>
     </g>
     <g id="text_18">
      <!-- 200 -->
      <g transform="translate(211.433333 128.497983) scale(0.1 -0.1)">
       <use xlink:href="#SimHei-32"/>
       <use xlink:href="#SimHei-30" x="50"/>
       <use xlink:href="#SimHei-30" x="100"/>
      </g>
     </g>
    </g>
    <g id="ytick_8">
     <g id="line2d_19">
      <g>
       <use xlink:href="#maa65aae253" x="233.433333" y="95.27292" style="stroke: #000000; stroke-width: 0.8"/>
      </g>
     </g>
     <g id="text_19">
      <!-- 300 -->
      <g transform="translate(211.433333 98.71042) scale(0.1 -0.1)">
       <use xlink:href="#SimHei-33"/>
       <use xlink:href="#SimHei-30" x="50"/>
       <use xlink:href="#SimHei-30" x="100"/>
      </g>
     </g>
    </g>
    <g id="ytick_9">
     <g id="line2d_20">
      <g>
       <use xlink:href="#maa65aae253" x="233.433333" y="65.485358" style="stroke: #000000; stroke-width: 0.8"/>
      </g>
     </g>
     <g id="text_20">
      <!-- 400 -->
      <g transform="translate(211.433333 68.922858) scale(0.1 -0.1)">
       <use xlink:href="#SimHei-34"/>
       <use xlink:href="#SimHei-30" x="50"/>
       <use xlink:href="#SimHei-30" x="100"/>
      </g>
     </g>
    </g>
    <g id="ytick_10">
     <g id="line2d_21">
      <g>
       <use xlink:href="#maa65aae253" x="233.433333" y="35.697795" style="stroke: #000000; stroke-width: 0.8"/>
      </g>
     </g>
     <g id="text_21">
      <!-- 500 -->
      <g transform="translate(211.433333 39.135295) scale(0.1 -0.1)">
       <use xlink:href="#SimHei-35"/>
       <use xlink:href="#SimHei-30" x="50"/>
       <use xlink:href="#SimHei-30" x="100"/>
      </g>
     </g>
    </g>
   </g>
   <g id="line2d_22">
    <path d="M 235.422727 184.337733 
L 236.064467 184.306405 
L 236.706207 184.271782 
L 237.347947 184.233518 
L 237.989687 184.19123 
L 238.631427 184.144494 
L 239.273167 184.092843 
L 239.914907 184.03576 
L 240.556647 183.972674 
L 241.198387 183.902952 
L 241.840127 183.825898 
L 242.481867 183.74074 
L 243.123607 183.646626 
L 243.765347 183.542614 
L 244.407087 183.427663 
L 245.048827 183.300622 
L 245.690567 183.160221 
L 246.332307 183.005053 
L 246.974047 182.833566 
L 247.615787 182.644043 
L 248.257527 182.434589 
L 248.899267 182.203105 
L 249.541007 181.947277 
L 250.182747 181.664542 
L 250.824487 181.352073 
L 251.466227 181.00674 
L 252.107967 180.625089 
L 252.749707 180.203299 
L 253.391447 179.737149 
L 254.033187 179.221973 
L 254.674927 178.652616 
L 255.316667 178.02338 
L 255.958407 177.327965 
L 256.600147 176.559414 
L 257.241887 175.710033 
L 257.883627 174.771322 
L 258.525367 173.733886 
L 259.167107 172.587342 
L 259.808847 171.320215 
L 260.450587 169.919823 
L 261.092326 168.37215 
L 261.734066 166.661707 
L 262.375806 164.771376 
L 263.017546 162.682236 
L 263.659286 160.37338 
L 264.301026 157.821699 
L 264.942766 155.001655 
L 265.584506 151.885025 
L 266.226246 148.440617 
L 266.867986 144.633956 
L 267.509726 140.426946 
L 268.151466 135.77748 
L 268.793206 130.639026 
L 269.434946 124.960156 
L 270.076686 118.684033 
L 270.718426 111.747846 
L 271.360166 104.082173 
L 272.001906 95.610294 
L 272.643646 86.24742 
L 273.285386 75.899844 
L 273.927126 64.464004 
L 274.568866 51.825446 
L 275.210606 37.857679 
" clip-path="url(#pe0d4e36634)" style="fill: none; stroke: #1f77b4; stroke-width: 1.5; stroke-linecap: square"/>
   </g>
   <g id="patch_5">
    <path d="M 233.433333 191.661735 
L 233.433333 30.533676 
" style="fill: none; stroke: #000000; stroke-width: 0.8; stroke-linejoin: miter; stroke-linecap: square"/>
   </g>
   <g id="patch_6">
    <path d="M 277.2 191.661735 
L 277.2 30.533676 
" style="fill: none; stroke: #000000; stroke-width: 0.8; stroke-linejoin: miter; stroke-linecap: square"/>
   </g>
   <g id="patch_7">
    <path d="M 233.433333 191.661735 
L 277.2 191.661735 
" style="fill: none; stroke: #000000; stroke-width: 0.8; stroke-linejoin: miter; stroke-linecap: square"/>
   </g>
   <g id="patch_8">
    <path d="M 233.433333 30.533676 
L 277.2 30.533676 
" style="fill: none; stroke: #000000; stroke-width: 0.8; stroke-linejoin: miter; stroke-linecap: square"/>
   </g>
   <g id="text_22">
    <!-- Ax2 -->
    <g transform="translate(246.316667 24.533676) scale(0.12 -0.12)">
     <use xlink:href="#SimHei-41"/>
     <use xlink:href="#SimHei-78" x="50"/>
     <use xlink:href="#SimHei-32" x="100"/>
    </g>
   </g>
  </g>
  <g id="axes_3">
   <g id="patch_9">
    <path d="M 37.3 262.075 
L 157.25 262.075 
L 157.25 231.836735 
L 37.3 231.836735 
z
" style="fill: #ffffff"/>
   </g>
   <g id="matplotlib.axis_5">
    <g id="xtick_11">
     <g id="line2d_23">
      <g>
       <use xlink:href="#m1def92d075" x="42.752273" y="262.075" style="stroke: #000000; stroke-width: 0.8"/>
      </g>
     </g>
     <g id="text_23">
      <!-- 0.0 -->
      <g transform="translate(35.252273 275.95) scale(0.1 -0.1)">
       <use xlink:href="#SimHei-30"/>
       <use xlink:href="#SimHei-2e" x="50"/>
       <use xlink:href="#SimHei-30" x="100"/>
      </g>
     </g>
    </g>
    <g id="xtick_12">
     <g id="line2d_24">
      <g>
       <use xlink:href="#m1def92d075" x="86.722214" y="262.075" style="stroke: #000000; stroke-width: 0.8"/>
      </g>
     </g>
     <g id="text_24">
      <!-- 2.5 -->
      <g transform="translate(79.222214 275.95) scale(0.1 -0.1)">
       <use xlink:href="#SimHei-32"/>
       <use xlink:href="#SimHei-2e" x="50"/>
       <use xlink:href="#SimHei-35" x="100"/>
      </g>
     </g>
    </g>
    <g id="xtick_13">
     <g id="line2d_25">
      <g>
       <use xlink:href="#m1def92d075" x="130.692155" y="262.075" style="stroke: #000000; stroke-width: 0.8"/>
      </g>
     </g>
     <g id="text_25">
      <!-- 5.0 -->
      <g transform="translate(123.192155 275.95) scale(0.1 -0.1)">
       <use xlink:href="#SimHei-35"/>
       <use xlink:href="#SimHei-2e" x="50"/>
       <use xlink:href="#SimHei-30" x="100"/>
      </g>
     </g>
    </g>
   </g>
   <g id="matplotlib.axis_6">
    <g id="ytick_11">
     <g id="line2d_26">
      <g>
       <use xlink:href="#maa65aae253" x="37.3" y="260.700533" style="stroke: #000000; stroke-width: 0.8"/>
      </g>
     </g>
     <g id="text_26">
      <!-- -1 -->
      <g transform="translate(20.3 264.138033) scale(0.1 -0.1)">
       <defs>
        <path id="SimHei-2d" d="M 2975 2125 
L 125 2125 
L 125 2525 
L 2975 2525 
L 2975 2125 
z
" transform="scale(0.015625)"/>
       </defs>
       <use xlink:href="#SimHei-2d"/>
       <use xlink:href="#SimHei-31" x="50"/>
      </g>
     </g>
    </g>
    <g id="ytick_12">
     <g id="line2d_27">
      <g>
       <use xlink:href="#maa65aae253" x="37.3" y="246.952937" style="stroke: #000000; stroke-width: 0.8"/>
      </g>
     </g>
     <g id="text_27">
      <!-- 0 -->
      <g transform="translate(25.3 250.390437) scale(0.1 -0.1)">
       <use xlink:href="#SimHei-30"/>
      </g>
     </g>
    </g>
    <g id="ytick_13">
     <g id="line2d_28">
      <g>
       <use xlink:href="#maa65aae253" x="37.3" y="233.20534" style="stroke: #000000; stroke-width: 0.8"/>
      </g>
     </g>
     <g id="text_28">
      <!-- 1 -->
      <g transform="translate(25.3 236.64284) scale(0.1 -0.1)">
       <use xlink:href="#SimHei-31"/>
      </g>
     </g>
    </g>
   </g>
   <g id="line2d_29">
    <path d="M 42.752273 246.952937 
L 44.51107 245.580467 
L 46.269868 244.221711 
L 48.028666 242.890244 
L 49.787463 241.59937 
L 51.546261 240.361988 
L 53.305059 239.19046 
L 55.063856 238.096492 
L 56.822654 237.091014 
L 58.581452 236.184074 
L 60.340249 235.384733 
L 62.099047 234.700977 
L 63.857845 234.139639 
L 65.616642 233.706327 
L 67.37544 233.405371 
L 69.134238 233.239778 
L 70.893035 233.211202 
L 72.651833 233.319929 
L 74.41063 233.564872 
L 76.169428 233.943585 
L 77.928226 234.452282 
L 79.687023 235.085882 
L 81.445821 235.838054 
L 83.204619 236.701282 
L 84.963416 237.666941 
L 86.722214 238.725383 
L 88.481012 239.866032 
L 90.239809 241.07749 
L 91.998607 242.347655 
L 93.757405 243.663833 
L 95.516202 245.012876 
L 97.275 246.381303 
L 99.033798 247.755441 
L 100.792595 249.121561 
L 102.551393 250.466013 
L 104.310191 251.775363 
L 106.068988 253.036529 
L 107.827786 254.23691 
L 109.586584 255.364512 
L 111.345381 256.408068 
L 113.104179 257.357152 
L 114.862977 258.20228 
L 116.621774 258.935009 
L 118.380572 259.548017 
L 120.13937 260.035178 
L 121.898167 260.391627 
L 123.656965 260.6138 
L 125.415762 260.699478 
L 127.17456 260.647806 
L 128.933358 260.459299 
L 130.692155 260.135841 
L 132.450953 259.680664 
L 134.209751 259.098315 
L 135.968548 258.394614 
L 137.727346 257.576591 
L 139.486144 256.652421 
L 141.244941 255.631336 
L 143.003739 254.523539 
L 144.762537 253.3401 
L 146.521334 252.092842 
L 148.280132 250.794228 
L 150.03893 249.457233 
L 151.797727 248.095216 
" clip-path="url(#p15eb18e617)" style="fill: none; stroke: #1f77b4; stroke-width: 1.5; stroke-linecap: square"/>
   </g>
   <g id="patch_10">
    <path d="M 37.3 262.075 
L 37.3 231.836735 
" style="fill: none; stroke: #000000; stroke-width: 0.8; stroke-linejoin: miter; stroke-linecap: square"/>
   </g>
   <g id="patch_11">
    <path d="M 157.25 262.075 
L 157.25 231.836735 
" style="fill: none; stroke: #000000; stroke-width: 0.8; stroke-linejoin: miter; stroke-linecap: square"/>
   </g>
   <g id="patch_12">
    <path d="M 37.3 262.075 
L 157.25 262.075 
" style="fill: none; stroke: #000000; stroke-width: 0.8; stroke-linejoin: miter; stroke-linecap: square"/>
   </g>
   <g id="patch_13">
    <path d="M 37.3 231.836735 
L 157.25 231.836735 
" style="fill: none; stroke: #000000; stroke-width: 0.8; stroke-linejoin: miter; stroke-linecap: square"/>
   </g>
   <g id="text_29">
    <!-- Ax3 -->
    <g transform="translate(88.275 225.836735) scale(0.12 -0.12)">
     <use xlink:href="#SimHei-41"/>
     <use xlink:href="#SimHei-78" x="50"/>
     <use xlink:href="#SimHei-33" x="100"/>
    </g>
   </g>
  </g>
  <g id="axes_4">
   <g id="patch_14">
    <path d="M 157.25 262.075 
L 277.2 262.075 
L 277.2 231.836735 
L 157.25 231.836735 
z
" style="fill: #ffffff"/>
   </g>
   <g id="matplotlib.axis_7">
    <g id="xtick_14">
     <g id="line2d_30">
      <g>
       <use xlink:href="#m1def92d075" x="173.986589" y="262.075" style="stroke: #000000; stroke-width: 0.8"/>
      </g>
     </g>
     <g id="text_30">
      <!-- -2.5 -->
      <g transform="translate(163.986589 275.95) scale(0.1 -0.1)">
       <use xlink:href="#SimHei-2d"/>
       <use xlink:href="#SimHei-32" x="50"/>
       <use xlink:href="#SimHei-2e" x="100"/>
       <use xlink:href="#SimHei-35" x="150"/>
      </g>
     </g>
    </g>
    <g id="xtick_15">
     <g id="line2d_31">
      <g>
       <use xlink:href="#m1def92d075" x="217.956531" y="262.075" style="stroke: #000000; stroke-width: 0.8"/>
      </g>
     </g>
     <g id="text_31">
      <!-- 0.0 -->
      <g transform="translate(210.456531 275.95) scale(0.1 -0.1)">
       <use xlink:href="#SimHei-30"/>
       <use xlink:href="#SimHei-2e" x="50"/>
       <use xlink:href="#SimHei-30" x="100"/>
      </g>
     </g>
    </g>
    <g id="xtick_16">
     <g id="line2d_32">
      <g>
       <use xlink:href="#m1def92d075" x="261.926472" y="262.075" style="stroke: #000000; stroke-width: 0.8"/>
      </g>
     </g>
     <g id="text_32">
      <!-- 2.5 -->
      <g transform="translate(254.426472 275.95) scale(0.1 -0.1)">
       <use xlink:href="#SimHei-32"/>
       <use xlink:href="#SimHei-2e" x="50"/>
       <use xlink:href="#SimHei-35" x="100"/>
      </g>
     </g>
    </g>
   </g>
   <g id="line2d_33">
    <path d="M 162.702273 260.700533 
L 164.46107 260.631853 
L 166.219868 260.426497 
L 167.978666 260.086517 
L 169.737463 259.615312 
L 171.496261 259.017588 
L 173.255059 258.299318 
L 175.013856 257.467679 
L 176.772654 256.53098 
L 178.531452 255.49858 
L 180.290249 254.380795 
L 182.049047 253.188793 
L 183.807845 251.934485 
L 185.566642 250.630403 
L 187.32544 249.289576 
L 189.084238 247.925403 
L 190.843035 246.551513 
L 192.601833 245.181635 
L 194.36063 243.829454 
L 196.119428 242.508482 
L 197.878226 241.231918 
L 199.637023 240.012516 
L 201.395821 238.862461 
L 203.154619 237.793243 
L 204.913416 236.815545 
L 206.672214 235.939137 
L 208.431012 235.172776 
L 210.189809 234.524117 
L 211.948607 233.999644 
L 213.707405 233.604595 
L 215.466202 233.342919 
L 217.225 233.21723 
L 218.983798 233.228783 
L 220.742595 233.377463 
L 222.501393 233.661785 
L 224.260191 234.078908 
L 226.018988 234.624664 
L 227.777786 235.293599 
L 229.536584 236.079032 
L 231.295381 236.973112 
L 233.054179 237.966908 
L 234.812977 239.050489 
L 236.571774 240.213029 
L 238.330572 241.442911 
L 240.08937 242.727848 
L 241.848167 244.055001 
L 243.606965 245.411109 
L 245.365762 246.782622 
L 247.12456 248.155837 
L 248.883358 249.517034 
L 250.642155 250.85261 
L 252.400953 252.149222 
L 254.159751 253.393915 
L 255.918548 254.574251 
L 257.677346 255.678438 
L 259.436144 256.695443 
L 261.194941 257.615104 
L 262.953739 258.428231 
L 264.712537 259.126702 
L 266.471334 259.703536 
L 268.230132 260.152971 
L 269.98893 260.470515 
L 271.747727 260.652996 
" clip-path="url(#p13b90d29e6)" style="fill: none; stroke: #1f77b4; stroke-width: 1.5; stroke-linecap: square"/>
   </g>
   <g id="patch_15">
    <path d="M 157.25 262.075 
L 157.25 231.836735 
" style="fill: none; stroke: #000000; stroke-width: 0.8; stroke-linejoin: miter; stroke-linecap: square"/>
   </g>
   <g id="patch_16">
    <path d="M 277.2 262.075 
L 277.2 231.836735 
" style="fill: none; stroke: #000000; stroke-width: 0.8; stroke-linejoin: miter; stroke-linecap: square"/>
   </g>
   <g id="patch_17">
    <path d="M 157.25 262.075 
L 277.2 262.075 
" style="fill: none; stroke: #000000; stroke-width: 0.8; stroke-linejoin: miter; stroke-linecap: square"/>
   </g>
   <g id="patch_18">
    <path d="M 157.25 231.836735 
L 277.2 231.836735 
" style="fill: none; stroke: #000000; stroke-width: 0.8; stroke-linejoin: miter; stroke-linecap: square"/>
   </g>
   <g id="text_33">
    <!-- Ax4 -->
    <g transform="translate(208.225 225.836735) scale(0.12 -0.12)">
     <use xlink:href="#SimHei-41"/>
     <use xlink:href="#SimHei-78" x="50"/>
     <use xlink:href="#SimHei-34" x="100"/>
    </g>
   </g>
  </g>
 </g>
 <defs>
  <clipPath id="pa416b76e41">
   <path d="M 179.133333 111.097706 
C 179.133333 101.785015 177.298936 92.562877 173.735124 83.959072 
C 170.171311 75.355268 164.94739 67.537117 158.362323 60.95205 
C 151.777255 54.366983 143.959105 49.143062 135.3553 45.579249 
C 126.751495 42.015436 117.529358 40.181039 108.216667 40.181039 
C 98.903975 40.181039 89.681838 42.015436 81.078033 45.579249 
C 72.474228 49.143062 64.656078 54.366983 58.071011 60.95205 
C 51.485944 67.537117 46.262023 75.355268 42.69821 83.959072 
C 39.134397 92.562877 37.3 101.785015 37.3 111.097706 
C 37.3 120.410397 39.134397 129.632534 42.69821 138.236339 
C 46.262023 146.840144 51.485944 154.658295 58.071011 161.243362 
C 64.656078 167.828429 72.474228 173.05235 81.078033 176.616163 
C 89.681838 180.179975 98.903975 182.014373 108.216667 182.014373 
C 117.529358 182.014373 126.751495 180.179975 135.3553 176.616163 
C 143.959105 173.05235 151.777255 167.828429 158.362323 161.243362 
C 164.94739 154.658295 170.171311 146.840144 173.735124 138.236339 
C 177.298936 129.632534 179.133333 120.410397 179.133333 111.097706 
M 108.216667 111.097706 
C 108.216667 111.097706 108.216667 111.097706 108.216667 111.097706 
C 108.216667 111.097706 108.216667 111.097706 108.216667 111.097706 
C 108.216667 111.097706 108.216667 111.097706 108.216667 111.097706 
C 108.216667 111.097706 108.216667 111.097706 108.216667 111.097706 
C 108.216667 111.097706 108.216667 111.097706 108.216667 111.097706 
C 108.216667 111.097706 108.216667 111.097706 108.216667 111.097706 
C 108.216667 111.097706 108.216667 111.097706 108.216667 111.097706 
C 108.216667 111.097706 108.216667 111.097706 108.216667 111.097706 
C 108.216667 111.097706 108.216667 111.097706 108.216667 111.097706 
C 108.216667 111.097706 108.216667 111.097706 108.216667 111.097706 
C 108.216667 111.097706 108.216667 111.097706 108.216667 111.097706 
C 108.216667 111.097706 108.216667 111.097706 108.216667 111.097706 
C 108.216667 111.097706 108.216667 111.097706 108.216667 111.097706 
C 108.216667 111.097706 108.216667 111.097706 108.216667 111.097706 
C 108.216667 111.097706 108.216667 111.097706 108.216667 111.097706 
C 108.216667 111.097706 108.216667 111.097706 108.216667 111.097706 
z
"/>
  </clipPath>
  <clipPath id="pe0d4e36634">
   <rect x="233.433333" y="30.533676" width="43.766667" height="161.128059"/>
  </clipPath>
  <clipPath id="p15eb18e617">
   <rect x="37.3" y="231.836735" width="119.95" height="30.238265"/>
  </clipPath>
  <clipPath id="p13b90d29e6">
   <rect x="157.25" y="231.836735" width="119.95" height="30.238265"/>
  </clipPath>
 </defs>
</svg>
