<?xml version="1.0" encoding="utf-8" standalone="no"?>
<!DOCTYPE svg PUBLIC "-//W3C//DTD SVG 1.1//EN"
  "http://www.w3.org/Graphics/SVG/1.1/DTD/svg11.dtd">
<svg xmlns:xlink="http://www.w3.org/1999/xlink" width="648pt" height="648pt" viewBox="0 0 648 648" xmlns="http://www.w3.org/2000/svg" version="1.1">
 <metadata>
  <rdf:RDF xmlns:dc="http://purl.org/dc/elements/1.1/" xmlns:cc="http://creativecommons.org/ns#" xmlns:rdf="http://www.w3.org/1999/02/22-rdf-syntax-ns#">
   <cc:Work>
    <dc:type rdf:resource="http://purl.org/dc/dcmitype/StillImage"/>
    <dc:date>2023-10-31T22:10:32.259781</dc:date>
    <dc:format>image/svg+xml</dc:format>
    <dc:creator>
     <cc:Agent>
      <dc:title>Matplotlib v3.8.0, https://matplotlib.org/</dc:title>
     </cc:Agent>
    </dc:creator>
   </cc:Work>
  </rdf:RDF>
 </metadata>
 <defs>
  <style type="text/css">*{stroke-linejoin: round; stroke-linecap: butt}</style>
 </defs>
 <g id="figure_1">
  <g id="patch_1">
   <path d="M 0 648 
L 648 648 
L 648 0 
L 0 0 
z
" style="fill: #ffffff"/>
  </g>
  <g id="axes_1">
   <g id="patch_2">
    <path d="M 17 225.491667 
L 227.333333 225.491667 
L 227.333333 21.8 
L 17 21.8 
z
" style="fill: #ffffff"/>
   </g>
   <g id="matplotlib.axis_1">
    <g id="ytick_1">
     <g id="line2d_1">
      <defs>
       <path id="m6f38ae4432" d="M 0 0 
L -3.5 0 
" style="stroke: #000000; stroke-width: 0.8"/>
      </defs>
      <g>
       <use xlink:href="#m6f38ae4432" x="17" y="201.532115" style="stroke: #000000; stroke-width: 0.8"/>
      </g>
     </g>
     <g id="text_1">
      <!-- -4 -->
      <g transform="translate(0 204.969615) scale(0.1 -0.1)">
       <defs>
        <path id="SimHei-2d" d="M 2975 2125 
L 125 2125 
L 125 2525 
L 2975 2525 
L 2975 2125 
z
" transform="scale(0.015625)"/>
        <path id="SimHei-34" d="M 2000 1100 
L 75 1100 
L 75 1525 
L 2100 4450 
L 2475 4450 
L 2475 1525 
L 3075 1525 
L 3075 1100 
L 2475 1100 
L 2475 150 
L 2000 150 
L 2000 1100 
z
M 2000 1525 
L 2000 3500 
L 600 1525 
L 2000 1525 
z
" transform="scale(0.015625)"/>
       </defs>
       <use xlink:href="#SimHei-2d"/>
       <use xlink:href="#SimHei-34" x="50"/>
      </g>
     </g>
    </g>
    <g id="ytick_2">
     <g id="line2d_2">
      <g>
       <use xlink:href="#m6f38ae4432" x="17" y="168.02349" style="stroke: #000000; stroke-width: 0.8"/>
      </g>
     </g>
     <g id="text_2">
      <!-- -2 -->
      <g transform="translate(0 171.46099) scale(0.1 -0.1)">
       <defs>
        <path id="SimHei-32" d="M 300 250 
Q 325 625 650 925 
Q 975 1225 1475 1862 
Q 1975 2500 2125 2850 
Q 2275 3200 2237 3450 
Q 2200 3700 2000 3862 
Q 1800 4025 1537 4000 
Q 1275 3975 1037 3800 
Q 800 3625 675 3275 
L 200 3350 
Q 400 3925 712 4187 
Q 1025 4450 1450 4475 
Q 1700 4500 1900 4462 
Q 2100 4425 2312 4287 
Q 2525 4150 2662 3875 
Q 2800 3600 2762 3212 
Q 2725 2825 2375 2287 
Q 2025 1750 1025 600 
L 2825 600 
L 2825 150 
L 300 150 
L 300 250 
z
" transform="scale(0.015625)"/>
       </defs>
       <use xlink:href="#SimHei-2d"/>
       <use xlink:href="#SimHei-32" x="50"/>
      </g>
     </g>
    </g>
    <g id="ytick_3">
     <g id="line2d_3">
      <g>
       <use xlink:href="#m6f38ae4432" x="17" y="134.514866" style="stroke: #000000; stroke-width: 0.8"/>
      </g>
     </g>
     <g id="text_3">
      <!-- 0 -->
      <g transform="translate(5 137.952366) scale(0.1 -0.1)">
       <defs>
        <path id="SimHei-30" d="M 225 2537 
Q 250 3200 412 3587 
Q 575 3975 875 4225 
Q 1175 4475 1612 4475 
Q 2050 4475 2375 4112 
Q 2700 3750 2800 3200 
Q 2900 2650 2862 1937 
Q 2825 1225 2612 775 
Q 2400 325 1975 150 
Q 1550 -25 1125 187 
Q 700 400 525 750 
Q 350 1100 275 1487 
Q 200 1875 225 2537 
z
M 750 2687 
Q 675 2000 800 1462 
Q 925 925 1212 700 
Q 1500 475 1800 612 
Q 2100 750 2237 1162 
Q 2375 1575 2375 2062 
Q 2375 2550 2337 2950 
Q 2300 3350 2112 3675 
Q 1925 4000 1612 4012 
Q 1300 4025 1062 3700 
Q 825 3375 750 2687 
z
" transform="scale(0.015625)"/>
       </defs>
       <use xlink:href="#SimHei-30"/>
      </g>
     </g>
    </g>
    <g id="ytick_4">
     <g id="line2d_4">
      <g>
       <use xlink:href="#m6f38ae4432" x="17" y="101.006241" style="stroke: #000000; stroke-width: 0.8"/>
      </g>
     </g>
     <g id="text_4">
      <!-- 2 -->
      <g transform="translate(5 104.443741) scale(0.1 -0.1)">
       <use xlink:href="#SimHei-32"/>
      </g>
     </g>
    </g>
    <g id="ytick_5">
     <g id="line2d_5">
      <g>
       <use xlink:href="#m6f38ae4432" x="17" y="67.497617" style="stroke: #000000; stroke-width: 0.8"/>
      </g>
     </g>
     <g id="text_5">
      <!-- 4 -->
      <g transform="translate(5 70.935117) scale(0.1 -0.1)">
       <use xlink:href="#SimHei-34"/>
      </g>
     </g>
    </g>
    <g id="ytick_6">
     <g id="line2d_6">
      <g>
       <use xlink:href="#m6f38ae4432" x="17" y="33.988993" style="stroke: #000000; stroke-width: 0.8"/>
      </g>
     </g>
     <g id="text_6">
      <!-- 6 -->
      <g transform="translate(5 37.426493) scale(0.1 -0.1)">
       <defs>
        <path id="SimHei-36" d="M 250 1612 
Q 275 1975 387 2225 
Q 500 2475 725 2850 
L 1750 4450 
L 2325 4450 
L 1275 2800 
Q 1950 2975 2350 2750 
Q 2750 2525 2887 2237 
Q 3025 1950 3037 1612 
Q 3050 1275 2937 950 
Q 2825 625 2537 362 
Q 2250 100 1737 75 
Q 1225 50 862 262 
Q 500 475 362 862 
Q 225 1250 250 1612 
z
M 1025 787 
Q 1250 550 1625 525 
Q 2000 500 2250 775 
Q 2500 1050 2500 1575 
Q 2500 2100 2187 2300 
Q 1875 2500 1487 2450 
Q 1100 2400 925 2075 
Q 750 1750 775 1387 
Q 800 1025 1025 787 
z
" transform="scale(0.015625)"/>
       </defs>
       <use xlink:href="#SimHei-36"/>
      </g>
     </g>
    </g>
   </g>
   <g id="line2d_7">
    <path d="M 26.560606 120.376673 
L 27.804107 121.945103 
L 29.238915 124.13136 
L 30.960685 127.190744 
L 33.256378 131.772422 
L 38.70865 142.83356 
L 40.43042 145.757228 
L 41.865228 147.799572 
L 43.108729 149.224402 
L 44.256575 150.223194 
L 45.308768 150.853491 
L 46.265307 151.18 
L 47.221846 151.26682 
L 48.178385 151.112701 
L 49.134924 150.719859 
L 50.187116 150.018853 
L 51.239309 149.048098 
L 52.48281 147.576438 
L 53.821964 145.638009 
L 55.44808 142.86908 
L 57.456812 138.984064 
L 64.726507 124.482656 
L 66.352623 121.972214 
L 67.691778 120.291413 
L 68.935278 119.088443 
L 69.987471 118.362262 
L 70.94401 117.94573 
L 71.900549 117.767508 
L 72.857088 117.830159 
L 73.813627 118.132782 
L 74.770165 118.671023 
L 75.822358 119.525891 
L 76.970205 120.755266 
L 78.309359 122.547405 
L 79.839821 125.004798 
L 81.657245 128.368697 
L 84.335554 133.851384 
L 88.257364 141.838434 
L 90.170441 145.210448 
L 91.700903 147.474794 
L 93.040058 149.067819 
L 94.187905 150.108515 
L 95.240097 150.779331 
L 96.196636 151.143815 
L 97.153175 151.269129 
L 98.109714 151.153472 
L 99.066253 150.798506 
L 100.022792 150.209336 
L 101.074984 149.300957 
L 102.222831 148.017262 
L 103.561986 146.168551 
L 105.092448 143.657405 
L 107.005525 140.058022 
L 110.06645 133.731112 
L 113.318682 127.155042 
L 115.23176 123.788269 
L 116.762222 121.529414 
L 118.101376 119.941969 
L 119.249223 118.906511 
L 120.301416 118.240766 
L 121.257955 117.88104 
L 122.214494 117.760554 
L 123.171032 117.88104 
L 124.127571 118.240766 
L 125.08411 118.834558 
L 126.136303 119.747785 
L 127.28415 121.036388 
L 128.623304 122.890193 
L 130.153766 125.406152 
L 132.066844 129.009787 
L 135.127768 135.338907 
L 138.380001 141.910901 
L 140.293078 145.272415 
L 141.823541 147.525767 
L 143.162695 149.107621 
L 144.310542 150.137836 
L 145.362734 150.798506 
L 146.319273 151.153472 
L 147.275812 151.269129 
L 148.232351 151.143815 
L 149.18889 150.779331 
L 150.145429 150.180919 
L 151.197622 149.26285 
L 152.345468 147.969347 
L 153.684623 146.11046 
L 155.215085 143.589701 
L 157.128163 139.981834 
L 160.189087 133.650542 
L 163.441319 127.082661 
L 165.258743 123.881023 
L 166.789205 121.605819 
L 168.12836 120.001743 
L 169.276206 118.950671 
L 170.328399 118.269802 
L 171.284938 117.895881 
L 172.241477 117.760986 
L 173.198016 117.867058 
L 174.154555 118.212571 
L 175.111093 118.792555 
L 176.163286 119.691298 
L 177.311133 120.96523 
L 178.650287 122.8038 
L 180.180749 125.305348 
L 182.093827 128.89623 
L 185.059098 135.017727 
L 188.406984 141.802691 
L 190.320062 145.179846 
L 191.850524 147.449585 
L 193.189678 149.048098 
L 194.337525 150.093946 
L 195.389718 150.769751 
L 196.346256 151.138919 
L 197.302795 151.268987 
L 198.259334 151.158085 
L 199.215873 150.807808 
L 200.172412 150.223194 
L 201.224605 149.319593 
L 202.372451 148.040738 
L 203.711606 146.197054 
L 205.242068 143.690663 
L 207.155146 140.095488 
L 210.21607 133.770788 
L 213.468302 127.190744 
L 215.38138 123.81881 
L 216.911842 121.554548 
L 217.772727 120.485567 
L 217.772727 120.485567 
" clip-path="url(#p34c6533d09)" style="fill: none; stroke: #1f77b4; stroke-width: 1.5; stroke-linecap: square"/>
   </g>
   <g id="patch_3">
    <path d="M 17 225.491667 
L 17 21.8 
" style="fill: none; stroke: #000000; stroke-width: 0.8; stroke-linejoin: miter; stroke-linecap: square"/>
   </g>
   <g id="patch_4">
    <path d="M 227.333333 225.491667 
L 227.333333 21.8 
" style="fill: none; stroke: #000000; stroke-width: 0.8; stroke-linejoin: miter; stroke-linecap: square"/>
   </g>
   <g id="patch_5">
    <path d="M 17 225.491667 
L 227.333333 225.491667 
" style="fill: none; stroke: #000000; stroke-width: 0.8; stroke-linejoin: miter; stroke-linecap: square"/>
   </g>
   <g id="patch_6">
    <path d="M 17 21.8 
L 227.333333 21.8 
" style="fill: none; stroke: #000000; stroke-width: 0.8; stroke-linejoin: miter; stroke-linecap: square"/>
   </g>
   <g id="text_7">
    <!-- s = 0.0 + -1.2i -->
    <g transform="translate(59.066667 62.538333) scale(0.1 -0.1)">
     <defs>
      <path id="SimHei-73" d="M 2750 900 
Q 2750 500 2437 287 
Q 2125 75 1650 75 
Q 1050 75 725 312 
Q 400 550 400 1000 
L 900 1000 
Q 900 700 1112 600 
Q 1325 500 1625 500 
Q 1925 500 2075 612 
Q 2225 725 2225 900 
Q 2225 1025 2100 1150 
Q 1975 1275 1475 1350 
Q 900 1425 687 1637 
Q 475 1850 475 2200 
Q 475 2500 762 2737 
Q 1050 2975 1600 2975 
Q 2100 2975 2387 2750 
Q 2675 2525 2675 2150 
L 2175 2150 
Q 2175 2375 2012 2462 
Q 1850 2550 1600 2550 
Q 1275 2550 1137 2437 
Q 1000 2325 1000 2175 
Q 1000 2000 1125 1900 
Q 1250 1800 1650 1750 
Q 2300 1650 2525 1437 
Q 2750 1225 2750 900 
z
" transform="scale(0.015625)"/>
      <path id="SimHei-20" transform="scale(0.015625)"/>
      <path id="SimHei-3d" d="M 2975 2900 
L 125 2900 
L 125 3300 
L 2975 3300 
L 2975 2900 
z
M 2975 1375 
L 125 1375 
L 125 1775 
L 2975 1775 
L 2975 1375 
z
" transform="scale(0.015625)"/>
      <path id="SimHei-2e" d="M 1075 125 
L 500 125 
L 500 675 
L 1075 675 
L 1075 125 
z
" transform="scale(0.015625)"/>
      <path id="SimHei-2b" d="M 3000 2125 
L 1775 2125 
L 1775 900 
L 1350 900 
L 1350 2125 
L 125 2125 
L 125 2525 
L 1350 2525 
L 1350 3750 
L 1775 3750 
L 1775 2525 
L 3000 2525 
L 3000 2125 
z
" transform="scale(0.015625)"/>
      <path id="SimHei-31" d="M 1400 3600 
Q 1075 3275 575 2975 
L 575 3450 
Q 1200 3875 1600 4450 
L 1900 4450 
L 1900 150 
L 1400 150 
L 1400 3600 
z
" transform="scale(0.015625)"/>
      <path id="SimHei-69" d="M 1800 3725 
L 1300 3725 
L 1300 4375 
L 1800 4375 
L 1800 3725 
z
M 1800 125 
L 1300 125 
L 1300 2925 
L 1800 2925 
L 1800 125 
z
" transform="scale(0.015625)"/>
     </defs>
     <use xlink:href="#SimHei-73"/>
     <use xlink:href="#SimHei-20" x="50"/>
     <use xlink:href="#SimHei-3d" x="100"/>
     <use xlink:href="#SimHei-20" x="150"/>
     <use xlink:href="#SimHei-30" x="200"/>
     <use xlink:href="#SimHei-2e" x="250"/>
     <use xlink:href="#SimHei-30" x="300"/>
     <use xlink:href="#SimHei-20" x="350"/>
     <use xlink:href="#SimHei-2b" x="400"/>
     <use xlink:href="#SimHei-20" x="450"/>
     <use xlink:href="#SimHei-2d" x="500"/>
     <use xlink:href="#SimHei-31" x="550"/>
     <use xlink:href="#SimHei-2e" x="600"/>
     <use xlink:href="#SimHei-32" x="650"/>
     <use xlink:href="#SimHei-69" x="700"/>
    </g>
   </g>
  </g>
  <g id="axes_2">
   <g id="patch_7">
    <path d="M 227.333333 225.491667 
L 437.666667 225.491667 
L 437.666667 21.8 
L 227.333333 21.8 
z
" style="fill: #ffffff"/>
   </g>
   <g id="line2d_8">
    <path d="M 236.893939 129.313715 
L 238.520055 130.015727 
L 240.337479 131.053849 
L 242.441865 132.532132 
L 245.215828 134.780886 
L 250.476791 139.089064 
L 252.485523 140.422624 
L 254.207293 141.308991 
L 255.737755 141.853703 
L 257.172564 142.130233 
L 258.511718 142.169202 
L 259.850872 141.989188 
L 261.190027 141.589151 
L 262.624835 140.922479 
L 264.155297 139.95622 
L 265.877067 138.588811 
L 267.885799 136.689392 
L 270.659762 133.72654 
L 275.155494 128.921099 
L 277.164226 127.124567 
L 278.790342 125.960042 
L 280.22515 125.199196 
L 281.564305 124.745236 
L 282.807805 124.56337 
L 283.955652 124.60993 
L 285.103499 124.866573 
L 286.346999 125.38121 
L 287.5905 126.135696 
L 288.929654 127.202124 
L 290.460116 128.713746 
L 292.27754 130.85142 
L 294.573234 133.933752 
L 300.88639 142.632051 
L 302.60816 144.525826 
L 304.042968 145.796484 
L 305.286469 146.629196 
L 306.434316 147.151444 
L 307.486508 147.407456 
L 308.538701 147.44079 
L 309.590894 147.245902 
L 310.643087 146.821168 
L 311.790933 146.098624 
L 312.93878 145.114161 
L 314.277934 143.654115 
L 315.712743 141.753217 
L 317.434513 139.085552 
L 319.634552 135.234844 
L 325.852055 124.088017 
L 327.478171 121.732147 
L 328.912979 120.033376 
L 330.15648 118.90405 
L 331.208673 118.226082 
L 332.165211 117.846657 
L 333.12175 117.703395 
L 334.078289 117.803162 
L 335.034828 118.149408 
L 335.991367 118.742047 
L 337.04356 119.674019 
L 338.191406 121.013692 
L 339.434907 122.822331 
L 340.869715 125.325688 
L 342.591485 128.82386 
L 344.791525 133.852402 
L 350.722066 147.708873 
L 352.348182 150.825009 
L 353.687336 152.957903 
L 354.835183 154.414683 
L 355.887376 155.413194 
L 356.843914 156.019522 
L 357.704799 156.307061 
L 358.47003 156.350612 
L 359.235262 156.190758 
L 360.096147 155.765638 
L 360.957032 155.081193 
L 361.91357 154.020784 
L 362.965763 152.500518 
L 364.11361 150.440953 
L 365.452764 147.553104 
L 366.983226 143.697917 
L 368.896304 138.233897 
L 372.052883 128.407091 
L 375.018153 119.432365 
L 376.835577 114.628577 
L 378.270385 111.438185 
L 379.513886 109.207189 
L 380.566078 107.76086 
L 381.522617 106.828559 
L 382.287848 106.359924 
L 383.05308 106.146906 
L 383.722657 106.175065 
L 384.392234 106.406272 
L 385.157465 106.920622 
L 385.922696 107.701203 
L 386.783581 108.89375 
L 387.74012 110.599497 
L 388.887967 113.151764 
L 390.131467 116.493697 
L 391.566276 121.008931 
L 393.288046 127.184674 
L 395.775047 137.043881 
L 400.079472 154.181629 
L 401.801242 160.110235 
L 403.23605 164.29719 
L 404.383896 167.037219 
L 405.436089 169.006212 
L 406.296974 170.197163 
L 407.062205 170.919837 
L 407.731783 171.282928 
L 408.40136 171.388219 
L 408.975283 171.269907 
L 409.64486 170.88616 
L 410.314438 170.236922 
L 411.079669 169.171084 
L 411.940554 167.564598 
L 412.897092 165.28712 
L 413.949285 162.209948 
L 415.192786 157.856459 
L 416.627594 151.978662 
L 418.349364 143.944406 
L 420.836365 131.127149 
L 425.045136 109.328608 
L 426.766906 101.576944 
L 428.106061 96.417395 
L 428.106061 96.417395 
" clip-path="url(#p2e81c01763)" style="fill: none; stroke: #1f77b4; stroke-width: 1.5; stroke-linecap: square"/>
   </g>
   <g id="patch_8">
    <path d="M 227.333333 225.491667 
L 227.333333 21.8 
" style="fill: none; stroke: #000000; stroke-width: 0.8; stroke-linejoin: miter; stroke-linecap: square"/>
   </g>
   <g id="patch_9">
    <path d="M 437.666667 225.491667 
L 437.666667 21.8 
" style="fill: none; stroke: #000000; stroke-width: 0.8; stroke-linejoin: miter; stroke-linecap: square"/>
   </g>
   <g id="patch_10">
    <path d="M 227.333333 225.491667 
L 437.666667 225.491667 
" style="fill: none; stroke: #000000; stroke-width: 0.8; stroke-linejoin: miter; stroke-linecap: square"/>
   </g>
   <g id="patch_11">
    <path d="M 227.333333 21.8 
L 437.666667 21.8 
" style="fill: none; stroke: #000000; stroke-width: 0.8; stroke-linejoin: miter; stroke-linecap: square"/>
   </g>
   <g id="text_8">
    <!-- s = 0.1 + -1.2i -->
    <g transform="translate(269.4 62.538333) scale(0.1 -0.1)">
     <use xlink:href="#SimHei-73"/>
     <use xlink:href="#SimHei-20" x="50"/>
     <use xlink:href="#SimHei-3d" x="100"/>
     <use xlink:href="#SimHei-20" x="150"/>
     <use xlink:href="#SimHei-30" x="200"/>
     <use xlink:href="#SimHei-2e" x="250"/>
     <use xlink:href="#SimHei-31" x="300"/>
     <use xlink:href="#SimHei-20" x="350"/>
     <use xlink:href="#SimHei-2b" x="400"/>
     <use xlink:href="#SimHei-20" x="450"/>
     <use xlink:href="#SimHei-2d" x="500"/>
     <use xlink:href="#SimHei-31" x="550"/>
     <use xlink:href="#SimHei-2e" x="600"/>
     <use xlink:href="#SimHei-32" x="650"/>
     <use xlink:href="#SimHei-69" x="700"/>
    </g>
   </g>
  </g>
  <g id="axes_3">
   <g id="patch_12">
    <path d="M 437.666667 225.491667 
L 648 225.491667 
L 648 21.8 
L 437.666667 21.8 
z
" style="fill: #ffffff"/>
   </g>
   <g id="line2d_9">
    <path d="M 447.227273 132.601469 
L 449.714274 132.990048 
L 452.392583 133.63346 
L 455.644815 134.65425 
L 463.871049 137.352431 
L 466.262396 137.831751 
L 468.366782 138.032207 
L 470.375514 137.996861 
L 472.288591 137.741195 
L 474.201669 137.266368 
L 476.306055 136.504305 
L 478.601748 135.425816 
L 481.567018 133.765099 
L 487.593213 130.325879 
L 489.697599 129.415673 
L 491.515023 128.86479 
L 493.141139 128.598497 
L 494.671601 128.568734 
L 496.202063 128.768924 
L 497.732525 129.206455 
L 499.262988 129.879949 
L 500.889104 130.841978 
L 502.706528 132.187412 
L 504.810913 134.034394 
L 507.871837 137.052594 
L 511.697993 140.779063 
L 513.706725 142.422226 
L 515.332841 143.471489 
L 516.767649 144.132475 
L 518.01115 144.473327 
L 519.25465 144.577233 
L 520.402497 144.44951 
L 521.550343 144.099 
L 522.69819 143.522387 
L 523.941691 142.644374 
L 525.280845 141.413877 
L 526.715653 139.789684 
L 528.341769 137.611718 
L 530.350501 134.530384 
L 533.602733 129.054702 
L 536.663658 124.055988 
L 538.481081 121.502848 
L 539.91589 119.84484 
L 541.15939 118.728542 
L 542.211583 118.051733 
L 543.168122 117.670646 
L 544.124661 117.528042 
L 544.985546 117.613487 
L 545.846431 117.908164 
L 546.80297 118.485852 
L 547.759509 119.328856 
L 548.811701 120.560229 
L 549.959548 122.257211 
L 551.203048 124.490422 
L 552.637857 127.53163 
L 554.359627 131.736984 
L 556.559666 137.741764 
L 562.107592 153.184214 
L 563.733708 156.928307 
L 565.072862 159.475712 
L 566.220709 161.188329 
L 567.177248 162.238062 
L 568.038133 162.862735 
L 568.803364 163.147535 
L 569.472941 163.178761 
L 570.142518 163.000192 
L 570.812095 162.607185 
L 571.577327 161.891418 
L 572.438212 160.743625 
L 573.39475 159.044014 
L 574.446943 156.667546 
L 575.59479 153.492209 
L 576.933944 149.071159 
L 578.464406 143.182469 
L 580.28183 135.261504 
L 583.055793 122.026783 
L 586.499333 105.794163 
L 588.221103 98.714166 
L 589.560257 94.04758 
L 590.708104 90.785886 
L 591.664643 88.669165 
L 592.525528 87.280005 
L 593.195105 86.56095 
L 593.769028 86.208409 
L 594.342952 86.107679 
L 594.916875 86.26542 
L 595.490798 86.68706 
L 596.160376 87.517958 
L 596.829953 88.717878 
L 597.595184 90.543087 
L 598.456069 93.172619 
L 599.412608 96.797959 
L 600.560454 102.09153 
L 601.803955 108.914726 
L 603.238763 118.046279 
L 604.960533 130.469584 
L 607.447534 150.254762 
L 611.656305 183.846808 
L 613.378075 195.679682 
L 614.71723 203.433572 
L 615.865076 208.813413 
L 616.821615 212.268645 
L 617.586846 214.294022 
L 618.256424 215.49211 
L 618.830347 216.073222 
L 619.308616 216.232955 
L 619.691232 216.143525 
L 620.169501 215.755455 
L 620.647771 215.056022 
L 621.221694 213.800604 
L 621.891271 211.757113 
L 622.656502 208.655507 
L 623.517387 204.193794 
L 624.473926 198.049142 
L 625.621773 189.08481 
L 626.865274 177.538447 
L 628.300082 162.095321 
L 630.021852 141.097505 
L 632.508853 107.679058 
L 636.62197 52.190798 
L 638.34374 32.081699 
L 638.439394 31.058712 
L 638.439394 31.058712 
" clip-path="url(#p354bb6a056)" style="fill: none; stroke: #1f77b4; stroke-width: 1.5; stroke-linecap: square"/>
   </g>
   <g id="patch_13">
    <path d="M 437.666667 225.491667 
L 437.666667 21.8 
" style="fill: none; stroke: #000000; stroke-width: 0.8; stroke-linejoin: miter; stroke-linecap: square"/>
   </g>
   <g id="patch_14">
    <path d="M 648 225.491667 
L 648 21.8 
" style="fill: none; stroke: #000000; stroke-width: 0.8; stroke-linejoin: miter; stroke-linecap: square"/>
   </g>
   <g id="patch_15">
    <path d="M 437.666667 225.491667 
L 648 225.491667 
" style="fill: none; stroke: #000000; stroke-width: 0.8; stroke-linejoin: miter; stroke-linecap: square"/>
   </g>
   <g id="patch_16">
    <path d="M 437.666667 21.8 
L 648 21.8 
" style="fill: none; stroke: #000000; stroke-width: 0.8; stroke-linejoin: miter; stroke-linecap: square"/>
   </g>
   <g id="text_9">
    <!-- s = 0.2 + -1.2i -->
    <g transform="translate(479.733333 62.538333) scale(0.1 -0.1)">
     <use xlink:href="#SimHei-73"/>
     <use xlink:href="#SimHei-20" x="50"/>
     <use xlink:href="#SimHei-3d" x="100"/>
     <use xlink:href="#SimHei-20" x="150"/>
     <use xlink:href="#SimHei-30" x="200"/>
     <use xlink:href="#SimHei-2e" x="250"/>
     <use xlink:href="#SimHei-32" x="300"/>
     <use xlink:href="#SimHei-20" x="350"/>
     <use xlink:href="#SimHei-2b" x="400"/>
     <use xlink:href="#SimHei-20" x="450"/>
     <use xlink:href="#SimHei-2d" x="500"/>
     <use xlink:href="#SimHei-31" x="550"/>
     <use xlink:href="#SimHei-2e" x="600"/>
     <use xlink:href="#SimHei-32" x="650"/>
     <use xlink:href="#SimHei-69" x="700"/>
    </g>
   </g>
  </g>
  <g id="axes_4">
   <g id="patch_17">
    <path d="M 17 429.183333 
L 227.333333 429.183333 
L 227.333333 225.491667 
L 17 225.491667 
z
" style="fill: #ffffff"/>
   </g>
   <g id="matplotlib.axis_2">
    <g id="ytick_7">
     <g id="line2d_10">
      <g>
       <use xlink:href="#m6f38ae4432" x="17" y="401.375572" style="stroke: #000000; stroke-width: 0.8"/>
      </g>
     </g>
     <g id="text_10">
      <!-- -2 -->
      <g transform="translate(0 404.813072) scale(0.1 -0.1)">
       <use xlink:href="#SimHei-2d"/>
       <use xlink:href="#SimHei-32" x="50"/>
      </g>
     </g>
    </g>
    <g id="ytick_8">
     <g id="line2d_11">
      <g>
       <use xlink:href="#m6f38ae4432" x="17" y="364.625769" style="stroke: #000000; stroke-width: 0.8"/>
      </g>
     </g>
     <g id="text_11">
      <!-- 0 -->
      <g transform="translate(5 368.063269) scale(0.1 -0.1)">
       <use xlink:href="#SimHei-30"/>
      </g>
     </g>
    </g>
    <g id="ytick_9">
     <g id="line2d_12">
      <g>
       <use xlink:href="#m6f38ae4432" x="17" y="327.875967" style="stroke: #000000; stroke-width: 0.8"/>
      </g>
     </g>
     <g id="text_12">
      <!-- 2 -->
      <g transform="translate(5 331.313467) scale(0.1 -0.1)">
       <use xlink:href="#SimHei-32"/>
      </g>
     </g>
    </g>
    <g id="ytick_10">
     <g id="line2d_13">
      <g>
       <use xlink:href="#m6f38ae4432" x="17" y="291.126164" style="stroke: #000000; stroke-width: 0.8"/>
      </g>
     </g>
     <g id="text_13">
      <!-- 4 -->
      <g transform="translate(5 294.563664) scale(0.1 -0.1)">
       <use xlink:href="#SimHei-34"/>
      </g>
     </g>
    </g>
    <g id="ytick_11">
     <g id="line2d_14">
      <g>
       <use xlink:href="#m6f38ae4432" x="17" y="254.376362" style="stroke: #000000; stroke-width: 0.8"/>
      </g>
     </g>
     <g id="text_14">
      <!-- 6 -->
      <g transform="translate(5 257.813862) scale(0.1 -0.1)">
       <use xlink:href="#SimHei-36"/>
      </g>
     </g>
    </g>
   </g>
   <g id="line2d_15">
    <path d="M 26.560606 346.982735 
L 28.37803 347.681291 
L 30.291108 348.654042 
L 32.299839 349.922367 
L 34.499879 351.57813 
L 36.891226 353.658096 
L 39.665189 356.376011 
L 43.108729 360.086672 
L 49.517539 367.415077 
L 53.917618 372.258812 
L 56.978542 375.308049 
L 59.561197 377.57963 
L 61.856891 379.315693 
L 63.961276 380.640723 
L 65.970008 381.64587 
L 67.883085 382.352458 
L 69.700509 382.787677 
L 71.517933 382.98712 
L 73.239703 382.956192 
L 74.961473 382.711667 
L 76.778897 382.225015 
L 78.596321 381.509891 
L 80.509399 380.52055 
L 82.613784 379.168878 
L 84.813824 377.485657 
L 87.300825 375.290321 
L 90.170441 372.439124 
L 93.709635 368.585558 
L 105.570717 355.387483 
L 108.34468 352.777145 
L 110.831681 350.738966 
L 113.03172 349.215694 
L 115.040452 348.080143 
L 116.95353 347.242335 
L 118.770954 346.677854 
L 120.588378 346.346372 
L 122.310147 346.251199 
L 124.031917 346.370139 
L 125.849341 346.726403 
L 127.666765 347.315036 
L 129.579843 348.177241 
L 131.588575 349.336901 
L 133.69296 350.811413 
L 135.988653 352.693092 
L 138.571308 355.103089 
L 141.632233 358.276814 
L 145.841004 362.996289 
L 153.684623 371.835476 
L 156.841201 375.019266 
L 159.51951 377.406677 
L 161.815203 379.168878 
L 163.919589 380.52055 
L 165.92832 381.553088 
L 167.841398 382.287135 
L 169.658822 382.749317 
L 171.476246 382.976221 
L 173.198016 382.971446 
L 174.919786 382.752895 
L 176.73721 382.293133 
L 178.554633 381.604015 
L 180.467711 380.640723 
L 182.476443 379.381658 
L 184.676482 377.735078 
L 187.067829 375.663757 
L 189.841792 372.953882 
L 193.189678 369.356506 
L 199.024565 362.688783 
L 203.80726 357.375396 
L 206.963838 354.195825 
L 209.546493 351.892374 
L 211.842186 350.123104 
L 213.946572 348.764212 
L 215.955303 347.724243 
L 217.772727 347.013858 
L 217.772727 347.013858 
" clip-path="url(#p47ee1c9c0e)" style="fill: none; stroke: #1f77b4; stroke-width: 1.5; stroke-linecap: square"/>
   </g>
   <g id="patch_18">
    <path d="M 17 429.183333 
L 17 225.491667 
" style="fill: none; stroke: #000000; stroke-width: 0.8; stroke-linejoin: miter; stroke-linecap: square"/>
   </g>
   <g id="patch_19">
    <path d="M 227.333333 429.183333 
L 227.333333 225.491667 
" style="fill: none; stroke: #000000; stroke-width: 0.8; stroke-linejoin: miter; stroke-linecap: square"/>
   </g>
   <g id="patch_20">
    <path d="M 17 429.183333 
L 227.333333 429.183333 
" style="fill: none; stroke: #000000; stroke-width: 0.8; stroke-linejoin: miter; stroke-linecap: square"/>
   </g>
   <g id="patch_21">
    <path d="M 17 225.491667 
L 227.333333 225.491667 
" style="fill: none; stroke: #000000; stroke-width: 0.8; stroke-linejoin: miter; stroke-linecap: square"/>
   </g>
   <g id="text_15">
    <!-- s = 0.0 + -0.6i -->
    <g transform="translate(59.066667 266.23) scale(0.1 -0.1)">
     <use xlink:href="#SimHei-73"/>
     <use xlink:href="#SimHei-20" x="50"/>
     <use xlink:href="#SimHei-3d" x="100"/>
     <use xlink:href="#SimHei-20" x="150"/>
     <use xlink:href="#SimHei-30" x="200"/>
     <use xlink:href="#SimHei-2e" x="250"/>
     <use xlink:href="#SimHei-30" x="300"/>
     <use xlink:href="#SimHei-20" x="350"/>
     <use xlink:href="#SimHei-2b" x="400"/>
     <use xlink:href="#SimHei-20" x="450"/>
     <use xlink:href="#SimHei-2d" x="500"/>
     <use xlink:href="#SimHei-30" x="550"/>
     <use xlink:href="#SimHei-2e" x="600"/>
     <use xlink:href="#SimHei-36" x="650"/>
     <use xlink:href="#SimHei-69" x="700"/>
    </g>
   </g>
  </g>
  <g id="axes_5">
   <g id="patch_22">
    <path d="M 227.333333 429.183333 
L 437.666667 429.183333 
L 437.666667 225.491667 
L 227.333333 225.491667 
z
" style="fill: #ffffff"/>
   </g>
   <g id="line2d_16">
    <path d="M 236.893939 358.13526 
L 239.763556 358.394096 
L 242.633173 358.882211 
L 245.502789 359.597079 
L 248.46806 360.562825 
L 251.720292 361.862898 
L 255.35514 363.56609 
L 259.946526 365.98253 
L 270.755416 371.774158 
L 274.103302 373.259506 
L 276.972918 374.300008 
L 279.555573 375.009668 
L 281.94692 375.446464 
L 284.242614 375.646149 
L 286.442653 375.621516 
L 288.642693 375.375836 
L 290.842732 374.903617 
L 293.042771 374.203636 
L 295.338465 373.233989 
L 297.729812 371.973951 
L 300.216813 370.410803 
L 302.990776 368.395462 
L 306.147354 365.812337 
L 310.164817 362.211582 
L 320.112822 353.155239 
L 323.078092 350.833628 
L 325.565093 349.156893 
L 327.765133 347.927685 
L 329.773864 347.045615 
L 331.686942 346.442044 
L 333.504366 346.099595 
L 335.226136 345.995143 
L 336.947906 346.114049 
L 338.669676 346.46305 
L 340.391446 347.046323 
L 342.113216 347.865344 
L 343.93064 348.984091 
L 345.843717 350.438179 
L 347.852449 352.258874 
L 349.956834 354.470408 
L 352.252528 357.20709 
L 354.835183 360.637479 
L 357.896107 365.085677 
L 362.296186 371.921792 
L 368.609343 381.702723 
L 371.574613 385.873748 
L 373.96596 388.873731 
L 376.070346 391.16903 
L 377.983424 392.925607 
L 379.705194 394.203952 
L 381.235656 395.077551 
L 382.670464 395.656647 
L 384.105272 395.991315 
L 385.444427 396.074056 
L 386.783581 395.928001 
L 388.122736 395.547726 
L 389.46189 394.929375 
L 390.801044 394.070733 
L 392.235853 392.883563 
L 393.766315 391.314442 
L 395.392431 389.310265 
L 397.114201 386.820536 
L 398.931625 383.800269 
L 400.940357 380.023848 
L 403.140396 375.409702 
L 405.723051 369.446555 
L 408.783975 361.789909 
L 413.662324 348.886498 
L 418.540672 336.179374 
L 421.410288 329.318434 
L 423.705982 324.381704 
L 425.714713 320.57803 
L 427.436483 317.768276 
L 428.106061 316.799481 
L 428.106061 316.799481 
" clip-path="url(#p97c804f043)" style="fill: none; stroke: #1f77b4; stroke-width: 1.5; stroke-linecap: square"/>
   </g>
   <g id="patch_23">
    <path d="M 227.333333 429.183333 
L 227.333333 225.491667 
" style="fill: none; stroke: #000000; stroke-width: 0.8; stroke-linejoin: miter; stroke-linecap: square"/>
   </g>
   <g id="patch_24">
    <path d="M 437.666667 429.183333 
L 437.666667 225.491667 
" style="fill: none; stroke: #000000; stroke-width: 0.8; stroke-linejoin: miter; stroke-linecap: square"/>
   </g>
   <g id="patch_25">
    <path d="M 227.333333 429.183333 
L 437.666667 429.183333 
" style="fill: none; stroke: #000000; stroke-width: 0.8; stroke-linejoin: miter; stroke-linecap: square"/>
   </g>
   <g id="patch_26">
    <path d="M 227.333333 225.491667 
L 437.666667 225.491667 
" style="fill: none; stroke: #000000; stroke-width: 0.8; stroke-linejoin: miter; stroke-linecap: square"/>
   </g>
   <g id="text_16">
    <!-- s = 0.1 + -0.6i -->
    <g transform="translate(269.4 266.23) scale(0.1 -0.1)">
     <use xlink:href="#SimHei-73"/>
     <use xlink:href="#SimHei-20" x="50"/>
     <use xlink:href="#SimHei-3d" x="100"/>
     <use xlink:href="#SimHei-20" x="150"/>
     <use xlink:href="#SimHei-30" x="200"/>
     <use xlink:href="#SimHei-2e" x="250"/>
     <use xlink:href="#SimHei-31" x="300"/>
     <use xlink:href="#SimHei-20" x="350"/>
     <use xlink:href="#SimHei-2b" x="400"/>
     <use xlink:href="#SimHei-20" x="450"/>
     <use xlink:href="#SimHei-2d" x="500"/>
     <use xlink:href="#SimHei-30" x="550"/>
     <use xlink:href="#SimHei-2e" x="600"/>
     <use xlink:href="#SimHei-36" x="650"/>
     <use xlink:href="#SimHei-69" x="700"/>
    </g>
   </g>
  </g>
  <g id="axes_6">
   <g id="patch_27">
    <path d="M 437.666667 429.183333 
L 648 429.183333 
L 648 225.491667 
L 437.666667 225.491667 
z
" style="fill: #ffffff"/>
   </g>
   <g id="line2d_17">
    <path d="M 447.227273 362.238044 
L 451.723005 362.318736 
L 455.931776 362.610709 
L 460.044894 363.114087 
L 464.253665 363.852372 
L 468.749397 364.868931 
L 474.106015 366.318031 
L 487.880175 370.169427 
L 491.515023 370.883074 
L 494.671601 371.285344 
L 497.541218 371.433341 
L 500.219526 371.354853 
L 502.802181 371.059646 
L 505.289182 370.556897 
L 507.776184 369.830412 
L 510.263185 368.876326 
L 512.84584 367.64705 
L 515.524148 366.126349 
L 518.393765 364.24267 
L 521.645997 361.837784 
L 525.759114 358.503503 
L 535.037541 350.880009 
L 537.907158 348.865331 
L 540.298505 347.444739 
L 542.402891 346.441887 
L 544.315969 345.767902 
L 546.133392 345.365744 
L 547.855162 345.22131 
L 549.481279 345.313868 
L 551.011741 345.617517 
L 552.542203 346.142071 
L 554.072665 346.896589 
L 555.698781 347.958284 
L 557.324897 349.293872 
L 559.046667 351.010188 
L 560.864091 353.159084 
L 562.777169 355.789852 
L 564.785901 358.945853 
L 566.98594 362.83842 
L 569.377287 367.538057 
L 572.15125 373.507343 
L 575.59479 381.480407 
L 584.873217 403.262988 
L 587.264564 408.163958 
L 589.273296 411.803637 
L 590.995066 414.491229 
L 592.525528 416.488734 
L 593.864682 417.896867 
L 595.108183 418.893278 
L 596.25603 419.526721 
L 597.308222 419.850707 
L 598.264761 419.921179 
L 599.2213 419.768938 
L 600.177839 419.385515 
L 601.134378 418.76304 
L 602.186571 417.79362 
L 603.238763 416.517622 
L 604.38661 414.767216 
L 605.630111 412.439901 
L 606.969265 409.423646 
L 608.404073 405.598476 
L 609.934535 400.839047 
L 611.560652 395.018469 
L 613.282422 388.013672 
L 615.195499 379.250751 
L 617.299885 368.490505 
L 619.595578 355.538732 
L 622.273887 339.071604 
L 625.621773 316.983758 
L 634.9002 254.875302 
L 637.195893 241.402053 
L 638.439394 234.750379 
L 638.439394 234.750379 
" clip-path="url(#p218d8acc7f)" style="fill: none; stroke: #1f77b4; stroke-width: 1.5; stroke-linecap: square"/>
   </g>
   <g id="patch_28">
    <path d="M 437.666667 429.183333 
L 437.666667 225.491667 
" style="fill: none; stroke: #000000; stroke-width: 0.8; stroke-linejoin: miter; stroke-linecap: square"/>
   </g>
   <g id="patch_29">
    <path d="M 648 429.183333 
L 648 225.491667 
" style="fill: none; stroke: #000000; stroke-width: 0.8; stroke-linejoin: miter; stroke-linecap: square"/>
   </g>
   <g id="patch_30">
    <path d="M 437.666667 429.183333 
L 648 429.183333 
" style="fill: none; stroke: #000000; stroke-width: 0.8; stroke-linejoin: miter; stroke-linecap: square"/>
   </g>
   <g id="patch_31">
    <path d="M 437.666667 225.491667 
L 648 225.491667 
" style="fill: none; stroke: #000000; stroke-width: 0.8; stroke-linejoin: miter; stroke-linecap: square"/>
   </g>
   <g id="text_17">
    <!-- s = 0.2 + -0.6i -->
    <g transform="translate(479.733333 266.23) scale(0.1 -0.1)">
     <use xlink:href="#SimHei-73"/>
     <use xlink:href="#SimHei-20" x="50"/>
     <use xlink:href="#SimHei-3d" x="100"/>
     <use xlink:href="#SimHei-20" x="150"/>
     <use xlink:href="#SimHei-30" x="200"/>
     <use xlink:href="#SimHei-2e" x="250"/>
     <use xlink:href="#SimHei-32" x="300"/>
     <use xlink:href="#SimHei-20" x="350"/>
     <use xlink:href="#SimHei-2b" x="400"/>
     <use xlink:href="#SimHei-20" x="450"/>
     <use xlink:href="#SimHei-2d" x="500"/>
     <use xlink:href="#SimHei-30" x="550"/>
     <use xlink:href="#SimHei-2e" x="600"/>
     <use xlink:href="#SimHei-36" x="650"/>
     <use xlink:href="#SimHei-69" x="700"/>
    </g>
   </g>
  </g>
  <g id="axes_7">
   <g id="patch_32">
    <path d="M 17 632.875 
L 227.333333 632.875 
L 227.333333 429.183333 
L 17 429.183333 
z
" style="fill: #ffffff"/>
   </g>
   <g id="matplotlib.axis_3">
    <g id="xtick_1">
     <g id="line2d_18">
      <defs>
       <path id="md981048f8f" d="M 0 0 
L 0 3.5 
" style="stroke: #000000; stroke-width: 0.8"/>
      </defs>
      <g>
       <use xlink:href="#md981048f8f" x="26.560606" y="632.875" style="stroke: #000000; stroke-width: 0.8"/>
      </g>
     </g>
     <g id="text_18">
      <!-- -10 -->
      <g transform="translate(19.060606 646.75) scale(0.1 -0.1)">
       <use xlink:href="#SimHei-2d"/>
       <use xlink:href="#SimHei-31" x="50"/>
       <use xlink:href="#SimHei-30" x="100"/>
      </g>
     </g>
    </g>
    <g id="xtick_2">
     <g id="line2d_19">
      <g>
       <use xlink:href="#md981048f8f" x="74.38755" y="632.875" style="stroke: #000000; stroke-width: 0.8"/>
      </g>
     </g>
     <g id="text_19">
      <!-- -5 -->
      <g transform="translate(69.38755 646.75) scale(0.1 -0.1)">
       <defs>
        <path id="SimHei-35" d="M 550 1325 
Q 725 650 1150 575 
Q 1575 500 1837 662 
Q 2100 825 2212 1087 
Q 2325 1350 2312 1675 
Q 2300 2000 2137 2225 
Q 1975 2450 1725 2525 
Q 1475 2600 1162 2525 
Q 850 2450 650 2175 
L 225 2225 
Q 275 2375 700 4375 
L 2675 4375 
L 2675 3925 
L 1075 3925 
Q 950 3250 825 2850 
Q 1200 3025 1525 3012 
Q 1850 3000 2150 2862 
Q 2450 2725 2587 2487 
Q 2725 2250 2787 2012 
Q 2850 1775 2837 1500 
Q 2825 1225 2725 937 
Q 2625 650 2425 462 
Q 2225 275 1937 162 
Q 1650 50 1275 75 
Q 900 100 562 350 
Q 225 600 100 1200 
L 550 1325 
z
" transform="scale(0.015625)"/>
       </defs>
       <use xlink:href="#SimHei-2d"/>
       <use xlink:href="#SimHei-35" x="50"/>
      </g>
     </g>
    </g>
    <g id="xtick_3">
     <g id="line2d_20">
      <g>
       <use xlink:href="#md981048f8f" x="122.214494" y="632.875" style="stroke: #000000; stroke-width: 0.8"/>
      </g>
     </g>
     <g id="text_20">
      <!-- 0 -->
      <g transform="translate(119.714494 646.75) scale(0.1 -0.1)">
       <use xlink:href="#SimHei-30"/>
      </g>
     </g>
    </g>
    <g id="xtick_4">
     <g id="line2d_21">
      <g>
       <use xlink:href="#md981048f8f" x="170.041437" y="632.875" style="stroke: #000000; stroke-width: 0.8"/>
      </g>
     </g>
     <g id="text_21">
      <!-- 5 -->
      <g transform="translate(167.541437 646.75) scale(0.1 -0.1)">
       <use xlink:href="#SimHei-35"/>
      </g>
     </g>
    </g>
    <g id="xtick_5">
     <g id="line2d_22">
      <g>
       <use xlink:href="#md981048f8f" x="217.868381" y="632.875" style="stroke: #000000; stroke-width: 0.8"/>
      </g>
     </g>
     <g id="text_22">
      <!-- 10 -->
      <g transform="translate(212.868381 646.75) scale(0.1 -0.1)">
       <use xlink:href="#SimHei-31"/>
       <use xlink:href="#SimHei-30" x="50"/>
      </g>
     </g>
    </g>
   </g>
   <g id="matplotlib.axis_4">
    <g id="ytick_12">
     <g id="line2d_23">
      <g>
       <use xlink:href="#m6f38ae4432" x="17" y="627.078196" style="stroke: #000000; stroke-width: 0.8"/>
      </g>
     </g>
     <g id="text_23">
      <!-- 0 -->
      <g transform="translate(5 630.515696) scale(0.1 -0.1)">
       <use xlink:href="#SimHei-30"/>
      </g>
     </g>
    </g>
    <g id="ytick_13">
     <g id="line2d_24">
      <g>
       <use xlink:href="#m6f38ae4432" x="17" y="601.49796" style="stroke: #000000; stroke-width: 0.8"/>
      </g>
     </g>
     <g id="text_24">
      <!-- 1 -->
      <g transform="translate(5 604.93546) scale(0.1 -0.1)">
       <use xlink:href="#SimHei-31"/>
      </g>
     </g>
    </g>
    <g id="ytick_14">
     <g id="line2d_25">
      <g>
       <use xlink:href="#m6f38ae4432" x="17" y="575.917724" style="stroke: #000000; stroke-width: 0.8"/>
      </g>
     </g>
     <g id="text_25">
      <!-- 2 -->
      <g transform="translate(5 579.355224) scale(0.1 -0.1)">
       <use xlink:href="#SimHei-32"/>
      </g>
     </g>
    </g>
    <g id="ytick_15">
     <g id="line2d_26">
      <g>
       <use xlink:href="#m6f38ae4432" x="17" y="550.337488" style="stroke: #000000; stroke-width: 0.8"/>
      </g>
     </g>
     <g id="text_26">
      <!-- 3 -->
      <g transform="translate(5 553.774988) scale(0.1 -0.1)">
       <defs>
        <path id="SimHei-33" d="M 250 1225 
L 700 1300 
Q 800 975 1025 762 
Q 1250 550 1587 562 
Q 1925 575 2125 837 
Q 2325 1100 2300 1437 
Q 2275 1775 2037 1962 
Q 1800 2150 1275 2225 
L 1275 2550 
Q 1800 2600 2037 2825 
Q 2275 3050 2250 3412 
Q 2225 3775 1925 3937 
Q 1625 4100 1287 3975 
Q 950 3850 750 3275 
L 300 3350 
Q 450 3800 712 4100 
Q 975 4400 1425 4450 
Q 1875 4500 2212 4337 
Q 2550 4175 2687 3837 
Q 2825 3500 2725 3100 
Q 2625 2700 2150 2400 
Q 2500 2250 2687 1950 
Q 2875 1650 2812 1162 
Q 2750 675 2375 375 
Q 2000 75 1525 87 
Q 1050 100 700 387 
Q 350 675 250 1225 
z
" transform="scale(0.015625)"/>
       </defs>
       <use xlink:href="#SimHei-33"/>
      </g>
     </g>
    </g>
    <g id="ytick_16">
     <g id="line2d_27">
      <g>
       <use xlink:href="#m6f38ae4432" x="17" y="524.757251" style="stroke: #000000; stroke-width: 0.8"/>
      </g>
     </g>
     <g id="text_27">
      <!-- 4 -->
      <g transform="translate(5 528.194751) scale(0.1 -0.1)">
       <use xlink:href="#SimHei-34"/>
      </g>
     </g>
    </g>
    <g id="ytick_17">
     <g id="line2d_28">
      <g>
       <use xlink:href="#m6f38ae4432" x="17" y="499.177015" style="stroke: #000000; stroke-width: 0.8"/>
      </g>
     </g>
     <g id="text_28">
      <!-- 5 -->
      <g transform="translate(5 502.614515) scale(0.1 -0.1)">
       <use xlink:href="#SimHei-35"/>
      </g>
     </g>
    </g>
    <g id="ytick_18">
     <g id="line2d_29">
      <g>
       <use xlink:href="#m6f38ae4432" x="17" y="473.596779" style="stroke: #000000; stroke-width: 0.8"/>
      </g>
     </g>
     <g id="text_29">
      <!-- 6 -->
      <g transform="translate(5 477.034279) scale(0.1 -0.1)">
       <use xlink:href="#SimHei-36"/>
      </g>
     </g>
    </g>
    <g id="ytick_19">
     <g id="line2d_30">
      <g>
       <use xlink:href="#m6f38ae4432" x="17" y="448.016543" style="stroke: #000000; stroke-width: 0.8"/>
      </g>
     </g>
     <g id="text_30">
      <!-- 7 -->
      <g transform="translate(5 451.454043) scale(0.1 -0.1)">
       <defs>
        <path id="SimHei-37" d="M 850 150 
Q 1300 2050 2425 3925 
L 275 3925 
L 275 4375 
L 2950 4375 
L 2950 3950 
Q 1775 2050 1400 150 
L 850 150 
z
" transform="scale(0.015625)"/>
       </defs>
       <use xlink:href="#SimHei-37"/>
      </g>
     </g>
    </g>
   </g>
   <g id="line2d_31">
    <path d="M 26.560606 601.49796 
L 217.772727 601.49796 
L 217.772727 601.49796 
" clip-path="url(#p17297b6e34)" style="fill: none; stroke: #1f77b4; stroke-width: 1.5; stroke-linecap: square"/>
   </g>
   <g id="patch_33">
    <path d="M 17 632.875 
L 17 429.183333 
" style="fill: none; stroke: #000000; stroke-width: 0.8; stroke-linejoin: miter; stroke-linecap: square"/>
   </g>
   <g id="patch_34">
    <path d="M 227.333333 632.875 
L 227.333333 429.183333 
" style="fill: none; stroke: #000000; stroke-width: 0.8; stroke-linejoin: miter; stroke-linecap: square"/>
   </g>
   <g id="patch_35">
    <path d="M 17 632.875 
L 227.333333 632.875 
" style="fill: none; stroke: #000000; stroke-width: 0.8; stroke-linejoin: miter; stroke-linecap: square"/>
   </g>
   <g id="patch_36">
    <path d="M 17 429.183333 
L 227.333333 429.183333 
" style="fill: none; stroke: #000000; stroke-width: 0.8; stroke-linejoin: miter; stroke-linecap: square"/>
   </g>
   <g id="text_31">
    <!-- s = 0.0 + 0.0i -->
    <g transform="translate(59.066667 469.921667) scale(0.1 -0.1)">
     <use xlink:href="#SimHei-73"/>
     <use xlink:href="#SimHei-20" x="50"/>
     <use xlink:href="#SimHei-3d" x="100"/>
     <use xlink:href="#SimHei-20" x="150"/>
     <use xlink:href="#SimHei-30" x="200"/>
     <use xlink:href="#SimHei-2e" x="250"/>
     <use xlink:href="#SimHei-30" x="300"/>
     <use xlink:href="#SimHei-20" x="350"/>
     <use xlink:href="#SimHei-2b" x="400"/>
     <use xlink:href="#SimHei-20" x="450"/>
     <use xlink:href="#SimHei-30" x="500"/>
     <use xlink:href="#SimHei-2e" x="550"/>
     <use xlink:href="#SimHei-30" x="600"/>
     <use xlink:href="#SimHei-69" x="650"/>
    </g>
   </g>
  </g>
  <g id="axes_8">
   <g id="patch_37">
    <path d="M 227.333333 632.875 
L 437.666667 632.875 
L 437.666667 429.183333 
L 227.333333 429.183333 
z
" style="fill: #ffffff"/>
   </g>
   <g id="matplotlib.axis_5">
    <g id="xtick_6">
     <g id="line2d_32">
      <g>
       <use xlink:href="#md981048f8f" x="236.893939" y="632.875" style="stroke: #000000; stroke-width: 0.8"/>
      </g>
     </g>
     <g id="text_32">
      <!-- -10 -->
      <g transform="translate(229.393939 646.75) scale(0.1 -0.1)">
       <use xlink:href="#SimHei-2d"/>
       <use xlink:href="#SimHei-31" x="50"/>
       <use xlink:href="#SimHei-30" x="100"/>
      </g>
     </g>
    </g>
    <g id="xtick_7">
     <g id="line2d_33">
      <g>
       <use xlink:href="#md981048f8f" x="284.720883" y="632.875" style="stroke: #000000; stroke-width: 0.8"/>
      </g>
     </g>
     <g id="text_33">
      <!-- -5 -->
      <g transform="translate(279.720883 646.75) scale(0.1 -0.1)">
       <use xlink:href="#SimHei-2d"/>
       <use xlink:href="#SimHei-35" x="50"/>
      </g>
     </g>
    </g>
    <g id="xtick_8">
     <g id="line2d_34">
      <g>
       <use xlink:href="#md981048f8f" x="332.547827" y="632.875" style="stroke: #000000; stroke-width: 0.8"/>
      </g>
     </g>
     <g id="text_34">
      <!-- 0 -->
      <g transform="translate(330.047827 646.75) scale(0.1 -0.1)">
       <use xlink:href="#SimHei-30"/>
      </g>
     </g>
    </g>
    <g id="xtick_9">
     <g id="line2d_35">
      <g>
       <use xlink:href="#md981048f8f" x="380.374771" y="632.875" style="stroke: #000000; stroke-width: 0.8"/>
      </g>
     </g>
     <g id="text_35">
      <!-- 5 -->
      <g transform="translate(377.874771 646.75) scale(0.1 -0.1)">
       <use xlink:href="#SimHei-35"/>
      </g>
     </g>
    </g>
    <g id="xtick_10">
     <g id="line2d_36">
      <g>
       <use xlink:href="#md981048f8f" x="428.201714" y="632.875" style="stroke: #000000; stroke-width: 0.8"/>
      </g>
     </g>
     <g id="text_36">
      <!-- 10 -->
      <g transform="translate(423.201714 646.75) scale(0.1 -0.1)">
       <use xlink:href="#SimHei-31"/>
       <use xlink:href="#SimHei-30" x="50"/>
      </g>
     </g>
    </g>
   </g>
   <g id="line2d_37">
    <path d="M 236.893939 617.667753 
L 251.242023 616.144821 
L 264.633567 614.501822 
L 277.164226 612.741534 
L 288.929654 610.865089 
L 300.025505 608.870943 
L 310.451779 606.774153 
L 320.399783 604.548821 
L 329.869518 602.204272 
L 338.956637 599.725365 
L 347.661141 597.119488 
L 355.983029 594.396341 
L 364.017956 591.532467 
L 371.765921 588.533441 
L 379.226924 585.406588 
L 386.400966 582.161031 
L 393.383699 578.75943 
L 400.175125 575.204075 
L 406.775244 571.498385 
L 413.184054 567.646955 
L 419.497211 563.592157 
L 425.61906 559.396212 
L 428.106061 557.613405 
L 428.106061 557.613405 
" clip-path="url(#p6f91e0b0de)" style="fill: none; stroke: #1f77b4; stroke-width: 1.5; stroke-linecap: square"/>
   </g>
   <g id="patch_38">
    <path d="M 227.333333 632.875 
L 227.333333 429.183333 
" style="fill: none; stroke: #000000; stroke-width: 0.8; stroke-linejoin: miter; stroke-linecap: square"/>
   </g>
   <g id="patch_39">
    <path d="M 437.666667 632.875 
L 437.666667 429.183333 
" style="fill: none; stroke: #000000; stroke-width: 0.8; stroke-linejoin: miter; stroke-linecap: square"/>
   </g>
   <g id="patch_40">
    <path d="M 227.333333 632.875 
L 437.666667 632.875 
" style="fill: none; stroke: #000000; stroke-width: 0.8; stroke-linejoin: miter; stroke-linecap: square"/>
   </g>
   <g id="patch_41">
    <path d="M 227.333333 429.183333 
L 437.666667 429.183333 
" style="fill: none; stroke: #000000; stroke-width: 0.8; stroke-linejoin: miter; stroke-linecap: square"/>
   </g>
   <g id="text_37">
    <!-- s = 0.1 + 0.0i -->
    <g transform="translate(269.4 469.921667) scale(0.1 -0.1)">
     <use xlink:href="#SimHei-73"/>
     <use xlink:href="#SimHei-20" x="50"/>
     <use xlink:href="#SimHei-3d" x="100"/>
     <use xlink:href="#SimHei-20" x="150"/>
     <use xlink:href="#SimHei-30" x="200"/>
     <use xlink:href="#SimHei-2e" x="250"/>
     <use xlink:href="#SimHei-31" x="300"/>
     <use xlink:href="#SimHei-20" x="350"/>
     <use xlink:href="#SimHei-2b" x="400"/>
     <use xlink:href="#SimHei-20" x="450"/>
     <use xlink:href="#SimHei-30" x="500"/>
     <use xlink:href="#SimHei-2e" x="550"/>
     <use xlink:href="#SimHei-30" x="600"/>
     <use xlink:href="#SimHei-69" x="650"/>
    </g>
   </g>
  </g>
  <g id="axes_9">
   <g id="patch_42">
    <path d="M 437.666667 632.875 
L 648 632.875 
L 648 429.183333 
L 437.666667 429.183333 
z
" style="fill: #ffffff"/>
   </g>
   <g id="matplotlib.axis_6">
    <g id="xtick_11">
     <g id="line2d_38">
      <g>
       <use xlink:href="#md981048f8f" x="447.227273" y="632.875" style="stroke: #000000; stroke-width: 0.8"/>
      </g>
     </g>
     <g id="text_38">
      <!-- -10 -->
      <g transform="translate(439.727273 646.75) scale(0.1 -0.1)">
       <use xlink:href="#SimHei-2d"/>
       <use xlink:href="#SimHei-31" x="50"/>
       <use xlink:href="#SimHei-30" x="100"/>
      </g>
     </g>
    </g>
    <g id="xtick_12">
     <g id="line2d_39">
      <g>
       <use xlink:href="#md981048f8f" x="495.054217" y="632.875" style="stroke: #000000; stroke-width: 0.8"/>
      </g>
     </g>
     <g id="text_39">
      <!-- -5 -->
      <g transform="translate(490.054217 646.75) scale(0.1 -0.1)">
       <use xlink:href="#SimHei-2d"/>
       <use xlink:href="#SimHei-35" x="50"/>
      </g>
     </g>
    </g>
    <g id="xtick_13">
     <g id="line2d_40">
      <g>
       <use xlink:href="#md981048f8f" x="542.88116" y="632.875" style="stroke: #000000; stroke-width: 0.8"/>
      </g>
     </g>
     <g id="text_40">
      <!-- 0 -->
      <g transform="translate(540.38116 646.75) scale(0.1 -0.1)">
       <use xlink:href="#SimHei-30"/>
      </g>
     </g>
    </g>
    <g id="xtick_14">
     <g id="line2d_41">
      <g>
       <use xlink:href="#md981048f8f" x="590.708104" y="632.875" style="stroke: #000000; stroke-width: 0.8"/>
      </g>
     </g>
     <g id="text_41">
      <!-- 5 -->
      <g transform="translate(588.208104 646.75) scale(0.1 -0.1)">
       <use xlink:href="#SimHei-35"/>
      </g>
     </g>
    </g>
    <g id="xtick_15">
     <g id="line2d_42">
      <g>
       <use xlink:href="#md981048f8f" x="638.535048" y="632.875" style="stroke: #000000; stroke-width: 0.8"/>
      </g>
     </g>
     <g id="text_42">
      <!-- 10 -->
      <g transform="translate(633.535048 646.75) scale(0.1 -0.1)">
       <use xlink:href="#SimHei-31"/>
       <use xlink:href="#SimHei-30" x="50"/>
      </g>
     </g>
    </g>
   </g>
   <g id="line2d_43">
    <path d="M 447.227273 623.616288 
L 458.897047 622.659609 
L 469.227667 621.594277 
L 478.601748 620.406861 
L 487.114944 619.107116 
L 494.958563 617.686555 
L 502.228258 616.144821 
L 508.92403 614.501822 
L 515.237187 612.727191 
L 521.167728 610.83263 
L 526.811307 608.797969 
L 532.167925 606.631526 
L 537.237581 604.345141 
L 542.115929 601.903987 
L 546.80297 599.31198 
L 551.298702 596.575349 
L 555.698781 593.635948 
L 559.907552 590.559658 
L 564.020669 587.280062 
L 568.038133 583.792596 
L 571.959942 580.09359 
L 575.786098 576.18038 
L 579.516599 572.051413 
L 583.247101 567.587494 
L 586.881949 562.889955 
L 590.516796 557.821487 
L 594.05599 552.5021 
L 597.595184 546.774148 
L 601.038724 540.779022 
L 604.482264 534.336327 
L 607.925804 527.412651 
L 611.27369 520.186084 
L 614.621576 512.435531 
L 617.969462 504.123 
L 621.317348 495.207742 
L 624.665234 485.646056 
L 628.01312 475.391068 
L 631.361006 464.39251 
L 634.613238 452.945082 
L 637.865471 440.692152 
L 638.439394 438.442045 
L 638.439394 438.442045 
" clip-path="url(#p7a20a76e27)" style="fill: none; stroke: #1f77b4; stroke-width: 1.5; stroke-linecap: square"/>
   </g>
   <g id="patch_43">
    <path d="M 437.666667 632.875 
L 437.666667 429.183333 
" style="fill: none; stroke: #000000; stroke-width: 0.8; stroke-linejoin: miter; stroke-linecap: square"/>
   </g>
   <g id="patch_44">
    <path d="M 648 632.875 
L 648 429.183333 
" style="fill: none; stroke: #000000; stroke-width: 0.8; stroke-linejoin: miter; stroke-linecap: square"/>
   </g>
   <g id="patch_45">
    <path d="M 437.666667 632.875 
L 648 632.875 
" style="fill: none; stroke: #000000; stroke-width: 0.8; stroke-linejoin: miter; stroke-linecap: square"/>
   </g>
   <g id="patch_46">
    <path d="M 437.666667 429.183333 
L 648 429.183333 
" style="fill: none; stroke: #000000; stroke-width: 0.8; stroke-linejoin: miter; stroke-linecap: square"/>
   </g>
   <g id="text_43">
    <!-- s = 0.2 + 0.0i -->
    <g transform="translate(479.733333 469.921667) scale(0.1 -0.1)">
     <use xlink:href="#SimHei-73"/>
     <use xlink:href="#SimHei-20" x="50"/>
     <use xlink:href="#SimHei-3d" x="100"/>
     <use xlink:href="#SimHei-20" x="150"/>
     <use xlink:href="#SimHei-30" x="200"/>
     <use xlink:href="#SimHei-2e" x="250"/>
     <use xlink:href="#SimHei-32" x="300"/>
     <use xlink:href="#SimHei-20" x="350"/>
     <use xlink:href="#SimHei-2b" x="400"/>
     <use xlink:href="#SimHei-20" x="450"/>
     <use xlink:href="#SimHei-30" x="500"/>
     <use xlink:href="#SimHei-2e" x="550"/>
     <use xlink:href="#SimHei-30" x="600"/>
     <use xlink:href="#SimHei-69" x="650"/>
    </g>
   </g>
  </g>
  <g id="text_44">
   <!-- $y=e^{st}$ -->
   <g transform="translate(292.5 17.6) scale(0.2 -0.2)">
    <defs>
     <path id="DejaVuSans-Oblique-79" d="M 1588 -325 
Q 1188 -997 936 -1164 
Q 684 -1331 294 -1331 
L -159 -1331 
L -63 -850 
L 269 -850 
Q 509 -850 678 -719 
Q 847 -588 1056 -206 
L 1234 128 
L 459 3500 
L 1069 3500 
L 1650 819 
L 3256 3500 
L 3859 3500 
L 1588 -325 
z
" transform="scale(0.015625)"/>
     <path id="DejaVuSans-3d" d="M 678 2906 
L 4684 2906 
L 4684 2381 
L 678 2381 
L 678 2906 
z
M 678 1631 
L 4684 1631 
L 4684 1100 
L 678 1100 
L 678 1631 
z
" transform="scale(0.015625)"/>
     <path id="DejaVuSans-Oblique-65" d="M 3078 2063 
Q 3088 2113 3092 2166 
Q 3097 2219 3097 2272 
Q 3097 2653 2873 2875 
Q 2650 3097 2266 3097 
Q 1838 3097 1509 2826 
Q 1181 2556 1013 2059 
L 3078 2063 
z
M 3578 1613 
L 903 1613 
Q 884 1494 878 1425 
Q 872 1356 872 1306 
Q 872 872 1139 634 
Q 1406 397 1894 397 
Q 2269 397 2603 481 
Q 2938 566 3225 728 
L 3116 159 
Q 2806 34 2476 -28 
Q 2147 -91 1806 -91 
Q 1078 -91 686 257 
Q 294 606 294 1247 
Q 294 1794 489 2264 
Q 684 2734 1063 3103 
Q 1306 3334 1642 3459 
Q 1978 3584 2356 3584 
Q 2950 3584 3301 3228 
Q 3653 2872 3653 2272 
Q 3653 2128 3634 1964 
Q 3616 1800 3578 1613 
z
" transform="scale(0.015625)"/>
     <path id="DejaVuSans-Oblique-73" d="M 3200 3397 
L 3091 2853 
Q 2863 2978 2609 3040 
Q 2356 3103 2088 3103 
Q 1634 3103 1373 2948 
Q 1113 2794 1113 2528 
Q 1113 2219 1719 2053 
Q 1766 2041 1788 2034 
L 1972 1978 
Q 2547 1819 2739 1644 
Q 2931 1469 2931 1166 
Q 2931 609 2489 259 
Q 2047 -91 1331 -91 
Q 1053 -91 747 -37 
Q 441 16 72 128 
L 184 722 
Q 500 559 806 475 
Q 1113 391 1394 391 
Q 1816 391 2080 572 
Q 2344 753 2344 1031 
Q 2344 1331 1650 1516 
L 1591 1531 
L 1394 1581 
Q 956 1697 753 1886 
Q 550 2075 550 2369 
Q 550 2928 970 3256 
Q 1391 3584 2113 3584 
Q 2397 3584 2667 3537 
Q 2938 3491 3200 3397 
z
" transform="scale(0.015625)"/>
     <path id="DejaVuSans-Oblique-74" d="M 2706 3500 
L 2619 3053 
L 1472 3053 
L 1100 1153 
Q 1081 1047 1072 975 
Q 1063 903 1063 863 
Q 1063 663 1183 572 
Q 1303 481 1569 481 
L 2150 481 
L 2053 0 
L 1503 0 
Q 991 0 739 200 
Q 488 400 488 806 
Q 488 878 497 964 
Q 506 1050 525 1153 
L 897 3053 
L 409 3053 
L 500 3500 
L 978 3500 
L 1172 4494 
L 1747 4494 
L 1556 3500 
L 2706 3500 
z
" transform="scale(0.015625)"/>
    </defs>
    <use xlink:href="#DejaVuSans-Oblique-79" transform="translate(0 0.565625)"/>
    <use xlink:href="#DejaVuSans-3d" transform="translate(78.662109 0.565625)"/>
    <use xlink:href="#DejaVuSans-Oblique-65" transform="translate(181.933594 0.565625)"/>
    <use xlink:href="#DejaVuSans-Oblique-73" transform="translate(248.106927 38.846875) scale(0.7)"/>
    <use xlink:href="#DejaVuSans-Oblique-74" transform="translate(284.576654 38.846875) scale(0.7)"/>
   </g>
  </g>
 </g>
 <defs>
  <clipPath id="p34c6533d09">
   <rect x="17" y="21.8" width="210.333333" height="203.691667"/>
  </clipPath>
  <clipPath id="p2e81c01763">
   <rect x="227.333333" y="21.8" width="210.333333" height="203.691667"/>
  </clipPath>
  <clipPath id="p354bb6a056">
   <rect x="437.666667" y="21.8" width="210.333333" height="203.691667"/>
  </clipPath>
  <clipPath id="p47ee1c9c0e">
   <rect x="17" y="225.491667" width="210.333333" height="203.691667"/>
  </clipPath>
  <clipPath id="p97c804f043">
   <rect x="227.333333" y="225.491667" width="210.333333" height="203.691667"/>
  </clipPath>
  <clipPath id="p218d8acc7f">
   <rect x="437.666667" y="225.491667" width="210.333333" height="203.691667"/>
  </clipPath>
  <clipPath id="p17297b6e34">
   <rect x="17" y="429.183333" width="210.333333" height="203.691667"/>
  </clipPath>
  <clipPath id="p6f91e0b0de">
   <rect x="227.333333" y="429.183333" width="210.333333" height="203.691667"/>
  </clipPath>
  <clipPath id="p7a20a76e27">
   <rect x="437.666667" y="429.183333" width="210.333333" height="203.691667"/>
  </clipPath>
 </defs>
</svg>
