<?xml version="1.0" encoding="utf-8" standalone="no"?>
<!DOCTYPE svg PUBLIC "-//W3C//DTD SVG 1.1//EN"
  "http://www.w3.org/Graphics/SVG/1.1/DTD/svg11.dtd">
<svg xmlns:xlink="http://www.w3.org/1999/xlink" width="460.8pt" height="345.6pt" viewBox="0 0 460.8 345.6" xmlns="http://www.w3.org/2000/svg" version="1.1">
 <metadata>
  <rdf:RDF xmlns:dc="http://purl.org/dc/elements/1.1/" xmlns:cc="http://creativecommons.org/ns#" xmlns:rdf="http://www.w3.org/1999/02/22-rdf-syntax-ns#">
   <cc:Work>
    <dc:type rdf:resource="http://purl.org/dc/dcmitype/StillImage"/>
    <dc:date>2024-01-26T15:32:03.680502</dc:date>
    <dc:format>image/svg+xml</dc:format>
    <dc:creator>
     <cc:Agent>
      <dc:title>Matplotlib v3.8.2, https://matplotlib.org/</dc:title>
     </cc:Agent>
    </dc:creator>
   </cc:Work>
  </rdf:RDF>
 </metadata>
 <defs>
  <style type="text/css">*{stroke-linejoin: round; stroke-linecap: butt}</style>
 </defs>
 <g id="figure_1">
  <g id="patch_1">
   <path d="M 0 345.6 
L 460.8 345.6 
L 460.8 0 
L 0 0 
z
" style="fill: #ffffff"/>
  </g>
  <g id="patch_2">
   <path d="M 103.104 307.584 
L 369.216 307.584 
L 369.216 41.472 
L 103.104 41.472 
z
" style="fill: #ffffff"/>
  </g>
  <g id="pane3d_1">
   <g id="patch_3">
    <path d="M 212.174524 169.204197 
L 352.495544 210.378657 
L 357.472964 99.931446 
L 211.017996 62.580733 
" style="fill: #f2f2f2; opacity: 0.5; stroke: #f2f2f2; stroke-linejoin: miter"/>
   </g>
  </g>
  <g id="pane3d_2">
   <g id="patch_4">
    <path d="M 212.174524 169.204197 
L 122.919888 241.401186 
L 117.565562 128.178247 
L 211.017996 62.580733 
" style="fill: #e6e6e6; opacity: 0.5; stroke: #e6e6e6; stroke-linejoin: miter"/>
   </g>
  </g>
  <g id="pane3d_3">
   <g id="patch_5">
    <path d="M 212.174524 169.204197 
L 122.919888 241.401186 
L 271.453006 290.438549 
L 352.495544 210.378657 
" style="fill: #ececec; opacity: 0.5; stroke: #ececec; stroke-linejoin: miter"/>
   </g>
  </g>
  <g id="grid3d_1">
   <g id="Line3DCollection_1">
    <path d="M 347.7546 215.062118 
L 206.930947 173.445663 
L 205.547063 66.420972 
" style="fill: none; stroke: #b0b0b0; stroke-width: 0.8"/>
    <path d="M 329.964239 232.636769 
L 187.279175 189.341742 
L 185.021878 80.828313 
" style="fill: none; stroke: #b0b0b0; stroke-width: 0.8"/>
    <path d="M 311.430175 250.946106 
L 166.847297 205.86884 
L 163.646141 95.832686 
" style="fill: none; stroke: #b0b0b0; stroke-width: 0.8"/>
    <path d="M 292.104779 270.03718 
L 145.587919 223.065292 
L 141.365863 111.471988 
" style="fill: none; stroke: #b0b0b0; stroke-width: 0.8"/>
   </g>
  </g>
  <g id="grid3d_2">
   <g id="Line3DCollection_2">
    <path d="M 219.897909 64.845396 
L 220.699537 171.705696 
L 131.905643 244.367782 
" style="fill: none; stroke: #b0b0b0; stroke-width: 0.8"/>
    <path d="M 252.863983 73.252801 
L 252.328825 180.986692 
L 165.287374 255.388571 
" style="fill: none; stroke: #b0b0b0; stroke-width: 0.8"/>
    <path d="M 286.622201 81.86223 
L 284.686749 190.481492 
L 199.508395 266.686445 
" style="fill: none; stroke: #b0b0b0; stroke-width: 0.8"/>
    <path d="M 321.201464 90.68105 
L 317.798781 200.197571 
L 234.60076 278.27199 
" style="fill: none; stroke: #b0b0b0; stroke-width: 0.8"/>
   </g>
  </g>
  <g id="grid3d_3">
   <g id="Line3DCollection_3">
    <path d="M 122.817404 239.234056 
L 212.152306 167.155898 
L 352.590964 208.261323 
" style="fill: none; stroke: #b0b0b0; stroke-width: 0.8"/>
    <path d="M 122.088843 223.827854 
L 211.994452 152.602918 
L 353.269138 193.212881 
" style="fill: none; stroke: #b0b0b0; stroke-width: 0.8"/>
    <path d="M 121.351147 208.228479 
L 211.834783 137.882536 
L 353.955513 177.982452 
" style="fill: none; stroke: #b0b0b0; stroke-width: 0.8"/>
    <path d="M 120.604142 192.432274 
L 211.673266 122.991848 
L 354.65024 162.566716 
" style="fill: none; stroke: #b0b0b0; stroke-width: 0.8"/>
    <path d="M 119.847652 176.435491 
L 211.509869 107.927881 
L 355.35347 146.962271 
" style="fill: none; stroke: #b0b0b0; stroke-width: 0.8"/>
    <path d="M 119.081495 160.234284 
L 211.344561 92.687593 
L 356.065363 131.16563 
" style="fill: none; stroke: #b0b0b0; stroke-width: 0.8"/>
    <path d="M 118.305485 143.824711 
L 211.177305 77.267869 
L 356.786077 115.173219 
" style="fill: none; stroke: #b0b0b0; stroke-width: 0.8"/>
   </g>
  </g>
  <g id="axis3d_1">
   <g id="line2d_1">
    <path d="M 352.495544 210.378657 
L 271.453006 290.438549 
" style="fill: none; stroke: #000000; stroke-width: 0.8; stroke-linecap: square"/>
   </g>
   <g id="xtick_1">
    <g id="line2d_2">
     <path d="M 346.571091 214.712365 
L 350.124514 215.762479 
" style="fill: none; stroke: #000000; stroke-width: 0.8; stroke-linecap: square"/>
    </g>
    <g id="text_1">
     <!-- -2 -->
     <g transform="translate(354.661815 234.383027) scale(0.1 -0.1)">
      <defs>
       <path id="SimHei-2d" d="M 2975 2125 
L 125 2125 
L 125 2525 
L 2975 2525 
L 2975 2125 
z
" transform="scale(0.015625)"/>
       <path id="SimHei-32" d="M 300 250 
Q 325 625 650 925 
Q 975 1225 1475 1862 
Q 1975 2500 2125 2850 
Q 2275 3200 2237 3450 
Q 2200 3700 2000 3862 
Q 1800 4025 1537 4000 
Q 1275 3975 1037 3800 
Q 800 3625 675 3275 
L 200 3350 
Q 400 3925 712 4187 
Q 1025 4450 1450 4475 
Q 1700 4500 1900 4462 
Q 2100 4425 2312 4287 
Q 2525 4150 2662 3875 
Q 2800 3600 2762 3212 
Q 2725 2825 2375 2287 
Q 2025 1750 1025 600 
L 2825 600 
L 2825 150 
L 300 150 
L 300 250 
z
" transform="scale(0.015625)"/>
      </defs>
      <use xlink:href="#SimHei-2d"/>
      <use xlink:href="#SimHei-32" x="50"/>
     </g>
    </g>
   </g>
   <g id="xtick_2">
    <g id="line2d_3">
     <path d="M 328.763906 232.272551 
L 332.367903 233.366114 
" style="fill: none; stroke: #000000; stroke-width: 0.8; stroke-linecap: square"/>
    </g>
    <g id="text_2">
     <!-- -1 -->
     <g transform="translate(337.102697 252.225241) scale(0.1 -0.1)">
      <defs>
       <path id="SimHei-31" d="M 1400 3600 
Q 1075 3275 575 2975 
L 575 3450 
Q 1200 3875 1600 4450 
L 1900 4450 
L 1900 150 
L 1400 150 
L 1400 3600 
z
" transform="scale(0.015625)"/>
      </defs>
      <use xlink:href="#SimHei-2d"/>
      <use xlink:href="#SimHei-31" x="50"/>
     </g>
    </g>
   </g>
   <g id="xtick_3">
    <g id="line2d_4">
     <path d="M 310.212631 250.566507 
L 313.868368 251.706272 
" style="fill: none; stroke: #000000; stroke-width: 0.8; stroke-linecap: square"/>
    </g>
    <g id="text_3">
     <!-- 0 -->
     <g transform="translate(321.309008 270.813869) scale(0.1 -0.1)">
      <defs>
       <path id="SimHei-30" d="M 225 2537 
Q 250 3200 412 3587 
Q 575 3975 875 4225 
Q 1175 4475 1612 4475 
Q 2050 4475 2375 4112 
Q 2700 3750 2800 3200 
Q 2900 2650 2862 1937 
Q 2825 1225 2612 775 
Q 2400 325 1975 150 
Q 1550 -25 1125 187 
Q 700 400 525 750 
Q 350 1100 275 1487 
Q 200 1875 225 2537 
z
M 750 2687 
Q 675 2000 800 1462 
Q 925 925 1212 700 
Q 1500 475 1800 612 
Q 2100 750 2237 1162 
Q 2375 1575 2375 2062 
Q 2375 2550 2337 2950 
Q 2300 3350 2112 3675 
Q 1925 4000 1612 4012 
Q 1300 4025 1062 3700 
Q 825 3375 750 2687 
z
" transform="scale(0.015625)"/>
      </defs>
      <use xlink:href="#SimHei-30"/>
     </g>
    </g>
   </g>
   <g id="xtick_4">
    <g id="line2d_5">
     <path d="M 290.869632 269.641204 
L 294.57829 270.830164 
" style="fill: none; stroke: #000000; stroke-width: 0.8; stroke-linecap: square"/>
    </g>
    <g id="text_4">
     <!-- 1 -->
     <g transform="translate(302.233667 290.196752) scale(0.1 -0.1)">
      <use xlink:href="#SimHei-31"/>
     </g>
    </g>
   </g>
  </g>
  <g id="axis3d_2">
   <g id="line2d_6">
    <path d="M 122.919888 241.401186 
L 271.453006 290.438549 
" style="fill: none; stroke: #000000; stroke-width: 0.8; stroke-linecap: square"/>
   </g>
   <g id="xtick_5">
    <g id="line2d_7">
     <path d="M 132.678772 243.735113 
L 130.356072 245.635832 
" style="fill: none; stroke: #000000; stroke-width: 0.8; stroke-linecap: square"/>
    </g>
    <g id="text_5">
     <!-- -2 -->
     <g transform="translate(119.246083 266.869865) scale(0.1 -0.1)">
      <use xlink:href="#SimHei-2d"/>
      <use xlink:href="#SimHei-32" x="50"/>
     </g>
    </g>
   </g>
   <g id="xtick_6">
    <g id="line2d_8">
     <path d="M 166.046008 254.7401 
L 163.766815 256.688324 
" style="fill: none; stroke: #000000; stroke-width: 0.8; stroke-linecap: square"/>
    </g>
    <g id="text_6">
     <!-- -1 -->
     <g transform="translate(152.659549 278.127394) scale(0.1 -0.1)">
      <use xlink:href="#SimHei-2d"/>
      <use xlink:href="#SimHei-31" x="50"/>
     </g>
    </g>
   </g>
   <g id="xtick_7">
    <g id="line2d_9">
     <path d="M 200.251556 266.021575 
L 198.018807 268.019108 
" style="fill: none; stroke: #000000; stroke-width: 0.8; stroke-linecap: square"/>
    </g>
    <g id="text_7">
     <!-- 0 -->
     <g transform="translate(189.416343 289.669054) scale(0.1 -0.1)">
      <use xlink:href="#SimHei-30"/>
     </g>
    </g>
   </g>
   <g id="xtick_8">
    <g id="line2d_10">
     <path d="M 235.327411 277.590089 
L 233.144226 279.638826 
" style="fill: none; stroke: #000000; stroke-width: 0.8; stroke-linecap: square"/>
    </g>
    <g id="text_8">
     <!-- 1 -->
     <g transform="translate(224.548801 301.505739) scale(0.1 -0.1)">
      <use xlink:href="#SimHei-31"/>
     </g>
    </g>
   </g>
  </g>
  <g id="axis3d_3">
   <g id="line2d_11">
    <path d="M 122.919888 241.401186 
L 117.565562 128.178247 
" style="fill: none; stroke: #000000; stroke-width: 0.8; stroke-linecap: square"/>
   </g>
   <g id="xtick_9">
    <g id="line2d_12">
     <path d="M 123.595088 238.606596 
L 121.258712 240.491657 
" style="fill: none; stroke: #000000; stroke-width: 0.8; stroke-linecap: square"/>
    </g>
    <g id="text_9">
     <!-- 0 -->
     <g transform="translate(100.499294 248.780473) scale(0.1 -0.1)">
      <use xlink:href="#SimHei-30"/>
     </g>
    </g>
   </g>
   <g id="xtick_10">
    <g id="line2d_13">
     <path d="M 122.87189 223.20751 
L 120.519381 225.071212 
" style="fill: none; stroke: #000000; stroke-width: 0.8; stroke-linecap: square"/>
    </g>
    <g id="text_10">
     <!-- 20 -->
     <g transform="translate(97.144665 233.344041) scale(0.1 -0.1)">
      <use xlink:href="#SimHei-32"/>
      <use xlink:href="#SimHei-30" x="50"/>
     </g>
    </g>
   </g>
   <g id="xtick_11">
    <g id="line2d_14">
     <path d="M 122.13963 207.615478 
L 119.770767 209.457135 
" style="fill: none; stroke: #000000; stroke-width: 0.8; stroke-linecap: square"/>
    </g>
    <g id="text_11">
     <!-- 40 -->
     <g transform="translate(96.279288 217.713464) scale(0.1 -0.1)">
      <defs>
       <path id="SimHei-34" d="M 2000 1100 
L 75 1100 
L 75 1525 
L 2100 4450 
L 2475 4450 
L 2475 1525 
L 3075 1525 
L 3075 1100 
L 2475 1100 
L 2475 150 
L 2000 150 
L 2000 1100 
z
M 2000 1525 
L 2000 3500 
L 600 1525 
L 2000 1525 
z
" transform="scale(0.015625)"/>
      </defs>
      <use xlink:href="#SimHei-34"/>
      <use xlink:href="#SimHei-30" x="50"/>
     </g>
    </g>
   </g>
   <g id="xtick_12">
    <g id="line2d_15">
     <path d="M 121.398138 191.826851 
L 119.012693 193.645758 
" style="fill: none; stroke: #000000; stroke-width: 0.8; stroke-linecap: square"/>
    </g>
    <g id="text_12">
     <!-- 60 -->
     <g transform="translate(95.402958 201.885056) scale(0.1 -0.1)">
      <defs>
       <path id="SimHei-36" d="M 250 1612 
Q 275 1975 387 2225 
Q 500 2475 725 2850 
L 1750 4450 
L 2325 4450 
L 1275 2800 
Q 1950 2975 2350 2750 
Q 2750 2525 2887 2237 
Q 3025 1950 3037 1612 
Q 3050 1275 2937 950 
Q 2825 625 2537 362 
Q 2250 100 1737 75 
Q 1225 50 862 262 
Q 500 475 362 862 
Q 225 1250 250 1612 
z
M 1025 787 
Q 1250 550 1625 525 
Q 2000 500 2250 775 
Q 2500 1050 2500 1575 
Q 2500 2100 2187 2300 
Q 1875 2500 1487 2450 
Q 1100 2400 925 2075 
Q 750 1750 775 1387 
Q 800 1025 1025 787 
z
" transform="scale(0.015625)"/>
      </defs>
      <use xlink:href="#SimHei-36"/>
      <use xlink:href="#SimHei-30" x="50"/>
     </g>
    </g>
   </g>
   <g id="xtick_13">
    <g id="line2d_16">
     <path d="M 120.647237 175.837888 
L 118.244979 177.633316 
" style="fill: none; stroke: #000000; stroke-width: 0.8; stroke-linecap: square"/>
    </g>
    <g id="text_13">
     <!-- 80 -->
     <g transform="translate(94.515465 185.855036) scale(0.1 -0.1)">
      <defs>
       <path id="SimHei-38" d="M 175 1375 
Q 175 1675 325 1962 
Q 475 2250 825 2425 
Q 525 2600 425 2812 
Q 325 3025 312 3300 
Q 300 3575 387 3775 
Q 475 3975 650 4150 
Q 825 4325 1037 4387 
Q 1250 4450 1500 4450 
Q 1750 4450 1950 4400 
Q 2150 4350 2375 4187 
Q 2600 4025 2700 3725 
Q 2800 3425 2687 3025 
Q 2575 2625 2100 2400 
Q 2525 2275 2700 2012 
Q 2875 1750 2875 1375 
Q 2875 1000 2762 775 
Q 2650 550 2512 400 
Q 2375 250 2137 162 
Q 1900 75 1537 75 
Q 1175 75 912 162 
Q 650 250 475 425 
Q 300 600 237 837 
Q 175 1075 175 1375 
z
M 687 1400 
Q 675 1100 787 875 
Q 900 650 1200 587 
Q 1500 525 1825 600 
Q 2150 675 2275 950 
Q 2400 1225 2362 1500 
Q 2325 1775 2050 1962 
Q 1775 2150 1450 2125 
Q 1125 2100 912 1900 
Q 700 1700 687 1400 
z
M 775 3350 
Q 775 3100 950 2875 
Q 1125 2650 1500 2650 
Q 1875 2650 2062 2875 
Q 2250 3100 2237 3412 
Q 2225 3725 2012 3875 
Q 1800 4025 1437 4000 
Q 1075 3975 925 3787 
Q 775 3600 775 3350 
z
" transform="scale(0.015625)"/>
      </defs>
      <use xlink:href="#SimHei-38"/>
      <use xlink:href="#SimHei-30" x="50"/>
     </g>
    </g>
   </g>
   <g id="xtick_14">
    <g id="line2d_17">
     <path d="M 119.886747 159.644752 
L 117.46744 161.41595 
" style="fill: none; stroke: #000000; stroke-width: 0.8; stroke-linecap: square"/>
    </g>
    <g id="text_14">
     <!-- 100 -->
     <g transform="translate(91.116596 169.619527) scale(0.1 -0.1)">
      <use xlink:href="#SimHei-31"/>
      <use xlink:href="#SimHei-30" x="50"/>
      <use xlink:href="#SimHei-30" x="100"/>
     </g>
    </g>
   </g>
   <g id="xtick_15">
    <g id="line2d_18">
     <path d="M 119.116484 143.243506 
L 116.679886 144.9897 
" style="fill: none; stroke: #000000; stroke-width: 0.8; stroke-linecap: square"/>
    </g>
    <g id="text_15">
     <!-- 120 -->
     <g transform="translate(90.20613 153.174554) scale(0.1 -0.1)">
      <use xlink:href="#SimHei-31"/>
      <use xlink:href="#SimHei-32" x="50"/>
      <use xlink:href="#SimHei-30" x="100"/>
     </g>
    </g>
   </g>
  </g>
  <g id="axes_1">
   <g id="Poly3DCollection_1">
    <path d="M 263.557106 169.502352 
L 258.835273 176.039717 
L 266.989884 185.160483 
L 271.67394 179.143889 
z
" clip-path="url(#pd7c694f885)" style="fill: #0b2a3f"/>
    <path d="M 255.45241 157.985866 
L 250.692946 165.046241 
L 258.835273 176.039717 
L 263.557106 169.502352 
z
" clip-path="url(#pd7c694f885)" style="fill: #0b2a40"/>
    <path d="M 271.67394 179.143889 
L 266.989884 185.160483 
L 275.17485 192.427283 
L 279.820813 186.931525 
z
" clip-path="url(#pd7c694f885)" style="fill: #0b2a3f"/>
    <path d="M 247.341982 144.565075 
L 242.54488 152.153007 
L 250.692946 165.046241 
L 255.45241 157.985866 
z
" clip-path="url(#pd7c694f885)" style="fill: #0b2a40"/>
    <path d="M 279.820813 186.931525 
L 275.17485 192.427283 
L 283.40842 197.850681 
L 288.015784 192.878155 
z
" clip-path="url(#pd7c694f885)" style="fill: #0b293e"/>
    <path d="M 239.207853 129.202071 
L 234.372966 137.324436 
L 242.54488 152.153007 
L 247.341982 144.565075 
z
" clip-path="url(#pd7c694f885)" style="fill: #0b2a40"/>
    <path d="M 288.015784 192.878155 
L 283.40842 197.850681 
L 291.70916 201.433099 
L 296.277211 196.988582 
z
" clip-path="url(#pd7c694f885)" style="fill: #0b293d"/>
    <path d="M 250.692946 165.046241 
L 245.898448 171.971193 
L 254.077203 182.441473 
L 258.835273 176.039717 
z
" clip-path="url(#pd7c694f885)" style="fill: #0b2a40"/>
    <path d="M 258.835273 176.039717 
L 254.077203 182.441473 
L 262.268398 191.040598 
L 266.989884 185.160483 
z
" clip-path="url(#pd7c694f885)" style="fill: #0b2a3f"/>
    <path d="M 242.54488 152.153007 
L 237.713954 159.605026 
L 245.898448 171.971193 
L 250.692946 165.046241 
z
" clip-path="url(#pd7c694f885)" style="fill: #0b2a40"/>
    <path d="M 266.989884 185.160483 
L 262.268398 191.040598 
L 270.490273 197.784987 
L 275.17485 192.427283 
z
" clip-path="url(#pd7c694f885)" style="fill: #0b2a3f"/>
    <path d="M 231.031814 111.85005 
L 226.158871 120.516108 
L 234.372966 137.324436 
L 239.207853 129.202071 
z
" clip-path="url(#pd7c694f885)" style="fill: #0b2a40"/>
    <path d="M 234.372966 137.324436 
L 229.505474 145.309729 
L 237.713954 159.605026 
L 242.54488 152.153007 
z
" clip-path="url(#pd7c694f885)" style="fill: #0b2a40"/>
    <path d="M 275.17485 192.427283 
L 270.490273 197.784987 
L 278.761267 202.682846 
L 283.40842 197.850681 
z
" clip-path="url(#pd7c694f885)" style="fill: #0b293e"/>
    <path d="M 296.277211 196.988582 
L 291.70916 201.433099 
L 300.096095 203.168764 
L 304.623884 199.259493 
z
" clip-path="url(#pd7c694f885)" style="fill: #196092"/>
    <path d="M 245.898448 171.971193 
L 241.067445 178.760715 
L 249.281397 188.707404 
L 254.077203 182.441473 
z
" clip-path="url(#pd7c694f885)" style="fill: #0b2a40"/>
    <path d="M 254.077203 182.441473 
L 249.281397 188.707404 
L 257.50795 196.783798 
L 262.268398 191.040598 
z
" clip-path="url(#pd7c694f885)" style="fill: #0b2a3f"/>
    <path d="M 222.795287 92.452868 
L 217.883904 101.674343 
L 226.158871 120.516108 
L 231.031814 111.85005 
z
" clip-path="url(#pd7c694f885)" style="fill: #0b2a40"/>
    <path d="M 226.158871 120.516108 
L 221.254553 129.043263 
L 229.505474 145.309729 
L 234.372966 137.324436 
z
" clip-path="url(#pd7c694f885)" style="fill: #0b2a40"/>
    <path d="M 283.40842 197.850681 
L 278.761267 202.682846 
L 287.100157 205.734182 
L 291.70916 201.433099 
z
" clip-path="url(#pd7c694f885)" style="fill: #0b2a40"/>
    <path d="M 237.713954 159.605026 
L 232.847761 166.92133 
L 241.067445 178.760715 
L 245.898448 171.971193 
z
" clip-path="url(#pd7c694f885)" style="fill: #0b2a40"/>
    <path d="M 262.268398 191.040598 
L 257.50795 196.783798 
L 265.765513 203.003971 
L 270.490273 197.784987 
z
" clip-path="url(#pd7c694f885)" style="fill: #0b2a3f"/>
    <path d="M 229.505474 145.309729 
L 224.603961 153.158347 
L 232.847761 166.92133 
L 237.713954 159.605026 
z
" clip-path="url(#pd7c694f885)" style="fill: #0b2a40"/>
    <path d="M 304.623884 199.259493 
L 300.096095 203.168764 
L 308.588851 203.043563 
L 313.075171 199.679341 
z
" clip-path="url(#pd7c694f885)" style="fill: #1c6da5"/>
    <path d="M 270.490273 197.784987 
L 265.765513 203.003971 
L 274.072718 207.373742 
L 278.761267 202.682846 
z
" clip-path="url(#pd7c694f885)" style="fill: #0b293e"/>
    <path d="M 217.883904 101.674343 
L 212.942387 110.754397 
L 221.254553 129.043263 
L 226.158871 120.516108 
z
" clip-path="url(#pd7c694f885)" style="fill: #0b2a40"/>
    <path d="M 291.70916 201.433099 
L 287.100157 205.734182 
L 295.526202 206.930715 
L 300.096095 203.168764 
z
" clip-path="url(#pd7c694f885)" style="fill: #1b699e"/>
    <path d="M 221.254553 129.043263 
L 216.317465 137.432106 
L 224.603961 153.158347 
L 229.505474 145.309729 
z
" clip-path="url(#pd7c694f885)" style="fill: #0b2a40"/>
    <path d="M 241.067445 178.760715 
L 236.198428 185.414739 
L 244.446313 194.837229 
L 249.281397 188.707404 
z
" clip-path="url(#pd7c694f885)" style="fill: #0b2a40"/>
    <path d="M 232.847761 166.92133 
L 227.944822 174.102056 
L 236.198428 185.414739 
L 241.067445 178.760715 
z
" clip-path="url(#pd7c694f885)" style="fill: #0b2a40"/>
    <path d="M 214.479174 70.944486 
L 209.528868 80.735671 
L 217.883904 101.674343 
L 222.795287 92.452868 
z
" clip-path="url(#pd7c694f885)" style="fill: #0b2a40"/>
    <path d="M 249.281397 188.707404 
L 244.446313 194.837229 
L 252.706962 202.389581 
L 257.50795 196.783798 
z
" clip-path="url(#pd7c694f885)" style="fill: #0b2a3f"/>
    <path d="M 278.761267 202.682846 
L 274.072718 207.373742 
L 282.448554 209.89066 
L 287.100157 205.734182 
z
" clip-path="url(#pd7c694f885)" style="fill: #0f3956"/>
    <path d="M 224.603961 153.158347 
L 219.666972 160.870629 
L 227.944822 174.102056 
L 232.847761 166.92133 
z
" clip-path="url(#pd7c694f885)" style="fill: #0b2a40"/>
    <path d="M 257.50795 196.783798 
L 252.706962 202.389581 
L 260.998957 208.083497 
L 265.765513 203.003971 
z
" clip-path="url(#pd7c694f885)" style="fill: #0b2a3f"/>
    <path d="M 313.075171 199.679341 
L 308.588851 203.043563 
L 317.207821 201.0348 
L 321.651174 198.228139 
z
" clip-path="url(#pd7c694f885)" style="fill: #1d6ea7"/>
    <path d="M 212.942387 110.754397 
L 207.96936 119.693818 
L 216.317465 137.432106 
L 221.254553 129.043263 
z
" clip-path="url(#pd7c694f885)" style="fill: #0b2a40"/>
    <path d="M 216.317465 137.432106 
L 211.346177 145.683176 
L 219.666972 160.870629 
L 224.603961 153.158347 
z
" clip-path="url(#pd7c694f885)" style="fill: #0b2a40"/>
    <path d="M 209.528868 80.735671 
L 204.549681 90.382211 
L 212.942387 110.754397 
L 217.883904 101.674343 
z
" clip-path="url(#pd7c694f885)" style="fill: #0b2a40"/>
    <path d="M 300.096095 203.168764 
L 295.526202 206.930715 
L 304.059295 206.25571 
L 308.588851 203.043563 
z
" clip-path="url(#pd7c694f885)" style="fill: #1d6ea6"/>
    <path d="M 265.765513 203.003971 
L 260.998957 208.083497 
L 269.341119 211.922378 
L 274.072718 207.373742 
z
" clip-path="url(#pd7c694f885)" style="fill: #0b293e"/>
    <path d="M 236.198428 185.414739 
L 231.289846 191.933136 
L 239.570365 200.830602 
L 244.446313 194.837229 
z
" clip-path="url(#pd7c694f885)" style="fill: #0b2a40"/>
    <path d="M 227.944822 174.102056 
L 223.003617 181.147284 
L 231.289846 191.933136 
L 236.198428 185.414739 
z
" clip-path="url(#pd7c694f885)" style="fill: #0b2a40"/>
    <path d="M 287.100157 205.734182 
L 282.448554 209.89066 
L 290.912518 210.543892 
L 295.526202 206.930715 
z
" clip-path="url(#pd7c694f885)" style="fill: #1c6ca3"/>
    <path d="M 244.446313 194.837229 
L 239.570365 200.830602 
L 247.863812 207.857371 
L 252.706962 202.389581 
z
" clip-path="url(#pd7c694f885)" style="fill: #0b2a3f"/>
    <path d="M 219.666972 160.870629 
L 214.693018 168.446857 
L 223.003617 181.147284 
L 227.944822 174.102056 
z
" clip-path="url(#pd7c694f885)" style="fill: #0b2a40"/>
    <path d="M 207.96936 119.693818 
L 202.963414 128.493344 
L 211.346177 145.683176 
L 216.317465 137.432106 
z
" clip-path="url(#pd7c694f885)" style="fill: #0b2a40"/>
    <path d="M 204.549681 90.382211 
L 199.540253 99.885098 
L 207.96936 119.693818 
L 212.942387 110.754397 
z
" clip-path="url(#pd7c694f885)" style="fill: #0b2a40"/>
    <path d="M 252.706962 202.389581 
L 247.863812 207.857371 
L 256.18894 213.02275 
L 260.998957 208.083497 
z
" clip-path="url(#pd7c694f885)" style="fill: #0b293f"/>
    <path d="M 274.072718 207.373742 
L 269.341119 211.922378 
L 277.752654 213.901272 
L 282.448554 209.89066 
z
" clip-path="url(#pd7c694f885)" style="fill: #185d8d"/>
    <path d="M 211.346177 145.683176 
L 206.339225 153.796955 
L 214.693018 168.446857 
L 219.666972 160.870629 
z
" clip-path="url(#pd7c694f885)" style="fill: #0b2a40"/>
    <path d="M 321.651174 198.228139 
L 317.207821 201.0348 
L 325.974326 197.110852 
L 330.372887 194.877142 
z
" clip-path="url(#pd7c694f885)" style="fill: #1d6fa8"/>
    <path d="M 308.588851 203.043563 
L 304.059295 206.25571 
L 312.720119 203.683697 
L 317.207821 201.0348 
z
" clip-path="url(#pd7c694f885)" style="fill: #1d6fa7"/>
    <path d="M 223.003617 181.147284 
L 218.022588 188.057035 
L 226.340107 198.315714 
L 231.289846 191.933136 
z
" clip-path="url(#pd7c694f885)" style="fill: #0b2a40"/>
    <path d="M 231.289846 191.933136 
L 226.340107 198.315714 
L 234.651923 206.687109 
L 239.570365 200.830602 
z
" clip-path="url(#pd7c694f885)" style="fill: #0b2a40"/>
    <path d="M 260.998957 208.083497 
L 256.18894 213.02275 
L 264.564764 216.32768 
L 269.341119 211.922378 
z
" clip-path="url(#pd7c694f885)" style="fill: #0b293f"/>
    <path d="M 295.526202 206.930715 
L 290.912518 210.543892 
L 299.484767 209.31402 
L 304.059295 206.25571 
z
" clip-path="url(#pd7c694f885)" style="fill: #1d6ea7"/>
    <path d="M 214.693018 168.446857 
L 209.680571 175.887258 
L 218.022588 188.057035 
L 223.003617 181.147284 
z
" clip-path="url(#pd7c694f885)" style="fill: #0b2a40"/>
    <path d="M 202.963414 128.493344 
L 197.92311 137.153654 
L 206.339225 153.796955 
L 211.346177 145.683176 
z
" clip-path="url(#pd7c694f885)" style="fill: #0b2a40"/>
    <path d="M 199.540253 99.885098 
L 194.499195 109.245266 
L 202.963414 128.493344 
L 207.96936 119.693818 
z
" clip-path="url(#pd7c694f885)" style="fill: #0b2a40"/>
    <path d="M 239.570365 200.830602 
L 234.651923 206.687109 
L 242.976829 213.186523 
L 247.863812 207.857371 
z
" clip-path="url(#pd7c694f885)" style="fill: #0b2a3f"/>
    <path d="M 282.448554 209.89066 
L 277.752654 213.901272 
L 286.253297 214.006741 
L 290.912518 210.543892 
z
" clip-path="url(#pd7c694f885)" style="fill: #1c6da5"/>
    <path d="M 206.339225 153.796955 
L 201.295112 161.77387 
L 209.680571 175.887258 
L 214.693018 168.446857 
z
" clip-path="url(#pd7c694f885)" style="fill: #0b2a40"/>
    <path d="M 247.863812 207.857371 
L 242.976829 213.186523 
L 251.333749 217.820834 
L 256.18894 213.02275 
z
" clip-path="url(#pd7c694f885)" style="fill: #0b293f"/>
    <path d="M 269.341119 211.922378 
L 264.564764 216.32768 
L 273.010704 217.764666 
L 277.752654 213.901272 
z
" clip-path="url(#pd7c694f885)" style="fill: #1b699e"/>
    <path d="M 194.499195 109.245266 
L 189.425089 118.463597 
L 197.92311 137.153654 
L 202.963414 128.493344 
z
" clip-path="url(#pd7c694f885)" style="fill: #0b2a40"/>
    <path d="M 197.92311 137.153654 
L 192.846974 145.675378 
L 201.295112 161.77387 
L 206.339225 153.796955 
z
" clip-path="url(#pd7c694f885)" style="fill: #0b2a40"/>
    <path d="M 218.022588 188.057035 
L 213.000133 194.831266 
L 221.34757 204.562214 
L 226.340107 198.315714 
z
" clip-path="url(#pd7c694f885)" style="fill: #0b2a40"/>
    <path d="M 209.680571 175.887258 
L 204.628063 183.191997 
L 213.000133 194.831266 
L 218.022588 188.057035 
z
" clip-path="url(#pd7c694f885)" style="fill: #0b2a40"/>
    <path d="M 226.340107 198.315714 
L 221.34757 204.562214 
L 229.689308 212.406267 
L 234.651923 206.687109 
z
" clip-path="url(#pd7c694f885)" style="fill: #0b2a40"/>
    <path d="M 317.207821 201.0348 
L 312.720119 203.683697 
L 321.530329 199.180092 
L 325.974326 197.110852 
z
" clip-path="url(#pd7c694f885)" style="fill: #1d6fa8"/>
    <path d="M 330.372887 194.877142 
L 325.974326 197.110852 
L 334.910804 191.230714 
L 339.262382 189.588437 
z
" clip-path="url(#pd7c694f885)" style="fill: #1d6fa8"/>
    <path d="M 304.059295 206.25571 
L 299.484767 209.31402 
L 308.186286 206.172727 
L 312.720119 203.683697 
z
" clip-path="url(#pd7c694f885)" style="fill: #1d6fa8"/>
    <path d="M 256.18894 213.02275 
L 251.333749 217.820834 
L 259.741891 220.588486 
L 264.564764 216.32768 
z
" clip-path="url(#pd7c694f885)" style="fill: #0d3049"/>
    <path d="M 201.295112 161.77387 
L 196.212299 169.614292 
L 204.628063 183.191997 
L 209.680571 175.887258 
z
" clip-path="url(#pd7c694f885)" style="fill: #0b2a40"/>
    <path d="M 234.651923 206.687109 
L 229.689308 212.406267 
L 238.04429 218.376314 
L 242.976829 213.186523 
z
" clip-path="url(#pd7c694f885)" style="fill: #0b2a3f"/>
    <path d="M 290.912518 210.543892 
L 286.253297 214.006741 
L 294.863475 212.216618 
L 299.484767 209.31402 
z
" clip-path="url(#pd7c694f885)" style="fill: #1d6ea7"/>
    <path d="M 277.752654 213.901272 
L 273.010704 217.764666 
L 281.546737 217.317606 
L 286.253297 214.006741 
z
" clip-path="url(#pd7c694f885)" style="fill: #1d6ea6"/>
    <path d="M 189.425089 118.463597 
L 184.316483 127.540919 
L 192.846974 145.675378 
L 197.92311 137.153654 
z
" clip-path="url(#pd7c694f885)" style="fill: #0b2a40"/>
    <path d="M 192.846974 145.675378 
L 187.733498 154.059086 
L 196.212299 169.614292 
L 201.295112 161.77387 
z
" clip-path="url(#pd7c694f885)" style="fill: #0b2a40"/>
    <path d="M 242.976829 213.186523 
L 238.04429 218.376314 
L 246.431614 222.476772 
L 251.333749 217.820834 
z
" clip-path="url(#pd7c694f885)" style="fill: #0b293e"/>
    <path d="M 213.000133 194.831266 
L 207.934604 201.469873 
L 216.310551 210.672314 
L 221.34757 204.562214 
z
" clip-path="url(#pd7c694f885)" style="fill: #0b2a40"/>
    <path d="M 264.564764 216.32768 
L 259.741891 220.588486 
L 268.220892 221.479392 
L 273.010704 217.764666 
z
" clip-path="url(#pd7c694f885)" style="fill: #1c6ca3"/>
    <path d="M 204.628063 183.191997 
L 199.533885 190.361184 
L 207.934604 201.469873 
L 213.000133 194.831266 
z
" clip-path="url(#pd7c694f885)" style="fill: #0b2a40"/>
    <path d="M 221.34757 204.562214 
L 216.310551 210.672314 
L 224.680792 217.987521 
L 229.689308 212.406267 
z
" clip-path="url(#pd7c694f885)" style="fill: #0b2a40"/>
    <path d="M 196.212299 169.614292 
L 191.08921 177.318535 
L 199.533885 190.361184 
L 204.628063 183.191997 
z
" clip-path="url(#pd7c694f885)" style="fill: #0b2a40"/>
    <path d="M 184.316483 127.540919 
L 179.171894 136.478005 
L 187.733498 154.059086 
L 192.846974 145.675378 
z
" clip-path="url(#pd7c694f885)" style="fill: #0b2b40"/>
    <path d="M 251.333749 217.820834 
L 246.431614 222.476772 
L 254.870682 224.703548 
L 259.741891 220.588486 
z
" clip-path="url(#pd7c694f885)" style="fill: #175885"/>
    <path d="M 229.689308 212.406267 
L 224.680792 217.987521 
L 233.064422 223.425945 
L 238.04429 218.376314 
z
" clip-path="url(#pd7c694f885)" style="fill: #0b2a3f"/>
    <path d="M 312.720119 203.683697 
L 308.186286 206.172727 
L 317.039064 201.082384 
L 321.530329 199.180092 
z
" clip-path="url(#pd7c694f885)" style="fill: #1d6fa8"/>
    <path d="M 299.484767 209.31402 
L 294.863475 212.216618 
L 303.604476 208.499665 
L 308.186286 206.172727 
z
" clip-path="url(#pd7c694f885)" style="fill: #1d6fa8"/>
    <path d="M 325.974326 197.110852 
L 321.530329 199.180092 
L 330.512737 192.700701 
L 334.910804 191.230714 
z
" clip-path="url(#pd7c694f885)" style="fill: #1d6fa8"/>
    <path d="M 187.733498 154.059086 
L 182.581134 162.305295 
L 191.08921 177.318535 
L 196.212299 169.614292 
z
" clip-path="url(#pd7c694f885)" style="fill: #0b2a40"/>
    <path d="M 286.253297 214.006741 
L 281.546737 217.317606 
L 290.193564 214.961518 
L 294.863475 212.216618 
z
" clip-path="url(#pd7c694f885)" style="fill: #1d6fa8"/>
    <path d="M 273.010704 217.764666 
L 268.220892 221.479392 
L 276.790974 220.474725 
L 281.546737 217.317606 
z
" clip-path="url(#pd7c694f885)" style="fill: #1d6ea7"/>
    <path d="M 238.04429 218.376314 
L 233.064422 223.425945 
L 241.480712 226.989504 
L 246.431614 222.476772 
z
" clip-path="url(#pd7c694f885)" style="fill: #0b293f"/>
    <path d="M 199.533885 190.361184 
L 194.396382 197.394865 
L 202.824311 207.97269 
L 207.934604 201.469873 
z
" clip-path="url(#pd7c694f885)" style="fill: #0b2a40"/>
    <path d="M 207.934604 201.469873 
L 202.824311 207.97269 
L 211.227314 216.645621 
L 216.310551 210.672314 
z
" clip-path="url(#pd7c694f885)" style="fill: #0b2a40"/>
    <path d="M 191.08921 177.318535 
L 185.924227 184.886856 
L 194.396382 197.394865 
L 199.533885 190.361184 
z
" clip-path="url(#pd7c694f885)" style="fill: #0b2a40"/>
    <path d="M 216.310551 210.672314 
L 211.227314 216.645621 
L 219.624592 223.430243 
L 224.680792 217.987521 
z
" clip-path="url(#pd7c694f885)" style="fill: #0b2a40"/>
    <path d="M 179.171894 136.478005 
L 173.989802 145.275574 
L 182.581134 162.305295 
L 187.733498 154.059086 
z
" clip-path="url(#pd7c694f885)" style="fill: #0b2b40"/>
    <path d="M 259.741891 220.588486 
L 254.870682 224.703548 
L 263.381348 225.043905 
L 268.220892 221.479392 
z
" clip-path="url(#pd7c694f885)" style="fill: #1c6da5"/>
    <path d="M 182.581134 162.305295 
L 177.388298 170.414467 
L 185.924227 184.886856 
L 191.08921 177.318535 
z
" clip-path="url(#pd7c694f885)" style="fill: #0b2a40"/>
    <path d="M 224.680792 217.987521 
L 219.624592 223.430243 
L 228.035392 228.334536 
L 233.064422 223.425945 
z
" clip-path="url(#pd7c694f885)" style="fill: #0b2a3f"/>
    <path d="M 246.431614 222.476772 
L 241.480712 226.989504 
L 249.949259 228.671521 
L 254.870682 224.703548 
z
" clip-path="url(#pd7c694f885)" style="fill: #1b689e"/>
    <path d="M 308.186286 206.172727 
L 303.604476 208.499665 
L 312.498631 202.815113 
L 317.039064 201.082384 
z
" clip-path="url(#pd7c694f885)" style="fill: #1d6fa8"/>
    <path d="M 294.863475 212.216618 
L 290.193564 214.961518 
L 298.972778 210.662158 
L 303.604476 208.499665 
z
" clip-path="url(#pd7c694f885)" style="fill: #1d6fa8"/>
    <path d="M 194.396382 197.394865 
L 189.213854 204.293026 
L 197.66751 214.339482 
L 202.824311 207.97269 
z
" clip-path="url(#pd7c694f885)" style="fill: #0b2a40"/>
    <path d="M 173.989802 145.275574 
L 168.768652 153.934289 
L 177.388298 170.414467 
L 182.581134 162.305295 
z
" clip-path="url(#pd7c694f885)" style="fill: #0b2b40"/>
    <path d="M 321.530329 199.180092 
L 317.039064 201.082384 
L 326.066294 193.995507 
L 330.512737 192.700701 
z
" clip-path="url(#pd7c694f885)" style="fill: #1d6fa8"/>
    <path d="M 202.824311 207.97269 
L 197.66751 214.339482 
L 206.096071 222.481674 
L 211.227314 216.645621 
z
" clip-path="url(#pd7c694f885)" style="fill: #0b2a40"/>
    <path d="M 281.546737 217.317606 
L 276.790974 220.474725 
L 285.473113 217.546612 
L 290.193564 214.961518 
z
" clip-path="url(#pd7c694f885)" style="fill: #1d6fa8"/>
    <path d="M 185.924227 184.886856 
L 180.715688 192.319451 
L 189.213854 204.293026 
L 194.396382 197.394865 
z
" clip-path="url(#pd7c694f885)" style="fill: #0b2a40"/>
    <path d="M 233.064422 223.425945 
L 228.035392 228.334536 
L 236.479158 231.357882 
L 241.480712 226.989504 
z
" clip-path="url(#pd7c694f885)" style="fill: #0c2c43"/>
    <path d="M 268.220892 221.479392 
L 263.381348 225.043905 
L 271.984081 223.476226 
L 276.790974 220.474725 
z
" clip-path="url(#pd7c694f885)" style="fill: #1d6fa7"/>
    <path d="M 211.227314 216.645621 
L 206.096071 222.481674 
L 214.518872 228.733729 
L 219.624592 223.430243 
z
" clip-path="url(#pd7c694f885)" style="fill: #0b2a40"/>
    <path d="M 177.388298 170.414467 
L 172.153364 178.387005 
L 180.715688 192.319451 
L 185.924227 184.886856 
z
" clip-path="url(#pd7c694f885)" style="fill: #0b2b40"/>
    <path d="M 254.870682 224.703548 
L 249.949259 228.671521 
L 258.490135 228.456552 
L 263.381348 225.043905 
z
" clip-path="url(#pd7c694f885)" style="fill: #1d6ea7"/>
    <path d="M 219.624592 223.430243 
L 214.518872 228.733729 
L 222.955311 233.101127 
L 228.035392 228.334536 
z
" clip-path="url(#pd7c694f885)" style="fill: #0b2a3f"/>
    <path d="M 168.768652 153.934289 
L 163.50685 162.45476 
L 172.153364 178.387005 
L 177.388298 170.414467 
z
" clip-path="url(#pd7c694f885)" style="fill: #0b2b40"/>
    <path d="M 241.480712 226.989504 
L 236.479158 231.357882 
L 244.97568 232.490965 
L 249.949259 228.671521 
z
" clip-path="url(#pd7c694f885)" style="fill: #1c6ca4"/>
    <path d="M 189.213854 204.293026 
L 183.984554 211.055592 
L 192.462408 220.569952 
L 197.66751 214.339482 
z
" clip-path="url(#pd7c694f885)" style="fill: #0b2a40"/>
    <path d="M 180.715688 192.319451 
L 175.461888 199.616459 
L 183.984554 211.055592 
L 189.213854 204.293026 
z
" clip-path="url(#pd7c694f885)" style="fill: #0b2a40"/>
    <path d="M 197.66751 214.339482 
L 192.462408 220.569952 
L 200.914981 228.179939 
L 206.096071 222.481674 
z
" clip-path="url(#pd7c694f885)" style="fill: #0b2a40"/>
    <path d="M 172.153364 178.387005 
L 166.874661 186.223256 
L 175.461888 199.616459 
L 180.715688 192.319451 
z
" clip-path="url(#pd7c694f885)" style="fill: #0b2b40"/>
    <path d="M 228.035392 228.334536 
L 222.955311 233.101127 
L 231.425005 235.580666 
L 236.479158 231.357882 
z
" clip-path="url(#pd7c694f885)" style="fill: #144d75"/>
    <path d="M 290.193564 214.961518 
L 285.473113 217.546612 
L 294.289214 212.657719 
L 298.972778 210.662158 
z
" clip-path="url(#pd7c694f885)" style="fill: #1d6fa8"/>
    <path d="M 303.604476 208.499665 
L 298.972778 210.662158 
L 307.90706 204.375522 
L 312.498631 202.815113 
z
" clip-path="url(#pd7c694f885)" style="fill: #1d6fa8"/>
    <path d="M 206.096071 222.481674 
L 200.914981 228.179939 
L 209.361738 233.8972 
L 214.518872 228.733729 
z
" clip-path="url(#pd7c694f885)" style="fill: #0b2a40"/>
    <path d="M 276.790974 220.474725 
L 271.984081 223.476226 
L 280.700134 219.969674 
L 285.473113 217.546612 
z
" clip-path="url(#pd7c694f885)" style="fill: #1d6fa8"/>
    <path d="M 317.039064 201.082384 
L 312.498631 202.815113 
L 321.56952 195.112081 
L 326.066294 193.995507 
z
" clip-path="url(#pd7c694f885)" style="fill: #1d6fa8"/>
    <path d="M 263.381348 225.043905 
L 258.490135 228.456552 
L 267.12406 226.320123 
L 271.984081 223.476226 
z
" clip-path="url(#pd7c694f885)" style="fill: #1d6fa8"/>
    <path d="M 163.50685 162.45476 
L 158.202759 170.837538 
L 166.874661 186.223256 
L 172.153364 178.387005 
z
" clip-path="url(#pd7c694f885)" style="fill: #0b2b40"/>
    <path d="M 249.949259 228.671521 
L 244.97568 232.490965 
L 253.545253 231.715577 
L 258.490135 228.456552 
z
" clip-path="url(#pd7c694f885)" style="fill: #1d6fa7"/>
    <path d="M 214.518872 228.733729 
L 209.361738 233.8972 
L 217.822229 237.724671 
L 222.955311 233.101127 
z
" clip-path="url(#pd7c694f885)" style="fill: #0b2a3f"/>
    <path d="M 175.461888 199.616459 
L 170.16107 206.777958 
L 178.706682 217.682421 
L 183.984554 211.055592 
z
" clip-path="url(#pd7c694f885)" style="fill: #0b2a40"/>
    <path d="M 183.984554 211.055592 
L 178.706682 217.682421 
L 187.207158 226.663731 
L 192.462408 220.569952 
z
" clip-path="url(#pd7c694f885)" style="fill: #0b2a40"/>
    <path d="M 236.479158 231.357882 
L 231.425005 235.580666 
L 239.947938 236.160341 
L 244.97568 232.490965 
z
" clip-path="url(#pd7c694f885)" style="fill: #1d6ea6"/>
    <path d="M 166.874661 186.223256 
L 161.550477 193.92351 
L 170.16107 206.777958 
L 175.461888 199.616459 
z
" clip-path="url(#pd7c694f885)" style="fill: #0b2b40"/>
    <path d="M 192.462408 220.569952 
L 187.207158 226.663731 
L 195.682143 233.739811 
L 200.914981 228.179939 
z
" clip-path="url(#pd7c694f885)" style="fill: #0b2a40"/>
    <path d="M 158.202759 170.837538 
L 152.854704 179.08312 
L 161.550477 193.92351 
L 166.874661 186.223256 
z
" clip-path="url(#pd7c694f885)" style="fill: #0b2b40"/>
    <path d="M 200.914981 228.179939 
L 195.682143 233.739811 
L 204.151234 238.919793 
L 209.361738 233.8972 
z
" clip-path="url(#pd7c694f885)" style="fill: #0b2a40"/>
    <path d="M 222.955311 233.101127 
L 217.822229 237.724671 
L 226.316242 239.656524 
L 231.425005 235.580666 
z
" clip-path="url(#pd7c694f885)" style="fill: #1b689d"/>
    <path d="M 285.473113 217.546612 
L 280.700134 219.969674 
L 289.551729 214.483725 
L 294.289214 212.657719 
z
" clip-path="url(#pd7c694f885)" style="fill: #1d6fa8"/>
    <path d="M 271.984081 223.476226 
L 267.12406 226.320123 
L 275.872566 222.228344 
L 280.700134 219.969674 
z
" clip-path="url(#pd7c694f885)" style="fill: #1d6fa8"/>
    <path d="M 298.972778 210.662158 
L 294.289214 212.657719 
L 303.262309 205.760701 
L 307.90706 204.375522 
z
" clip-path="url(#pd7c694f885)" style="fill: #1d6fa8"/>
    <path d="M 258.490135 228.456552 
L 253.545253 231.715577 
L 262.208845 229.004309 
L 267.12406 226.320123 
z
" clip-path="url(#pd7c694f885)" style="fill: #1d6fa8"/>
    <path d="M 170.16107 206.777958 
L 164.81143 213.803962 
L 173.378386 224.173307 
L 178.706682 217.682421 
z
" clip-path="url(#pd7c694f885)" style="fill: #0b2b40"/>
    <path d="M 312.498631 202.815113 
L 307.90706 204.375522 
L 317.020383 196.047215 
L 321.56952 195.112081 
z
" clip-path="url(#pd7c694f885)" style="fill: #1d6fa9"/>
    <path d="M 178.706682 217.682421 
L 173.378386 224.173307 
L 181.899857 232.620381 
L 187.207158 226.663731 
z
" clip-path="url(#pd7c694f885)" style="fill: #0b2a40"/>
    <path d="M 209.361738 233.8972 
L 204.151234 238.919793 
L 212.634129 242.204034 
L 217.822229 237.724671 
z
" clip-path="url(#pd7c694f885)" style="fill: #0b2b41"/>
    <path d="M 161.550477 193.92351 
L 156.179049 201.487996 
L 164.81143 213.803962 
L 170.16107 206.777958 
z
" clip-path="url(#pd7c694f885)" style="fill: #0b2b40"/>
    <path d="M 244.97568 232.490965 
L 239.947938 236.160341 
L 248.544628 234.819111 
L 253.545253 231.715577 
z
" clip-path="url(#pd7c694f885)" style="fill: #1d6fa8"/>
    <path d="M 187.207158 226.663731 
L 181.899857 232.620381 
L 190.3956 239.160604 
L 195.682143 233.739811 
z
" clip-path="url(#pd7c694f885)" style="fill: #0b2a40"/>
    <path d="M 152.854704 179.08312 
L 147.460964 187.191946 
L 156.179049 201.487996 
L 161.550477 193.92351 
z
" clip-path="url(#pd7c694f885)" style="fill: #0b2b40"/>
    <path d="M 231.425005 235.580666 
L 226.316242 239.656524 
L 234.863956 239.678005 
L 239.947938 236.160341 
z
" clip-path="url(#pd7c694f885)" style="fill: #1d6ea7"/>
    <path d="M 195.682143 233.739811 
L 190.3956 239.160604 
L 198.885341 243.800563 
L 204.151234 238.919793 
z
" clip-path="url(#pd7c694f885)" style="fill: #0b2a40"/>
    <path d="M 217.822229 237.724671 
L 212.634129 242.204034 
L 221.150787 243.584026 
L 226.316242 239.656524 
z
" clip-path="url(#pd7c694f885)" style="fill: #1c6da4"/>
    <path d="M 164.81143 213.803962 
L 159.411111 220.694424 
L 167.997758 230.527978 
L 173.378386 224.173307 
z
" clip-path="url(#pd7c694f885)" style="fill: #0b2b40"/>
    <path d="M 156.179049 201.487996 
L 150.758568 208.916884 
L 159.411111 220.694424 
L 164.81143 213.803962 
z
" clip-path="url(#pd7c694f885)" style="fill: #0b2b40"/>
    <path d="M 173.378386 224.173307 
L 167.997758 230.527978 
L 176.538542 238.439391 
L 181.899857 232.620381 
z
" clip-path="url(#pd7c694f885)" style="fill: #0b2a40"/>
    <path d="M 267.12406 226.320123 
L 262.208845 229.004309 
L 270.988273 224.32013 
L 275.872566 222.228344 
z
" clip-path="url(#pd7c694f885)" style="fill: #1d6fa8"/>
    <path d="M 280.700134 219.969674 
L 275.872566 222.228344 
L 284.758196 216.137407 
L 289.551729 214.483725 
z
" clip-path="url(#pd7c694f885)" style="fill: #1d6fa9"/>
    <path d="M 204.151234 238.919793 
L 198.885341 243.800563 
L 207.388927 246.537989 
L 212.634129 242.204034 
z
" clip-path="url(#pd7c694f885)" style="fill: #103e5e"/>
    <path d="M 253.545253 231.715577 
L 248.544628 234.819111 
L 257.236293 231.526552 
L 262.208845 229.004309 
z
" clip-path="url(#pd7c694f885)" style="fill: #1d6fa8"/>
    <path d="M 147.460964 187.191946 
L 142.019769 195.164398 
L 150.758568 208.916884 
L 156.179049 201.487996 
z
" clip-path="url(#pd7c694f885)" style="fill: #0b2b40"/>
    <path d="M 294.289214 212.657719 
L 289.551729 214.483725 
L 298.562257 206.967587 
L 303.262309 205.760701 
z
" clip-path="url(#pd7c694f885)" style="fill: #1d6fa9"/>
    <path d="M 181.899857 232.620381 
L 176.538542 238.439391 
L 185.053329 244.441559 
L 190.3956 239.160604 
z
" clip-path="url(#pd7c694f885)" style="fill: #0b2a40"/>
    <path d="M 239.947938 236.160341 
L 234.863956 239.678005 
L 243.486113 237.765168 
L 248.544628 234.819111 
z
" clip-path="url(#pd7c694f885)" style="fill: #1d6fa8"/>
    <path d="M 307.90706 204.375522 
L 303.262309 205.760701 
L 312.416774 196.797528 
L 317.020383 196.047215 
z
" clip-path="url(#pd7c694f885)" style="fill: #1d6fa9"/>
    <path d="M 226.316242 239.656524 
L 221.150787 243.584026 
L 229.721584 243.042204 
L 234.863956 239.678005 
z
" clip-path="url(#pd7c694f885)" style="fill: #1d6fa8"/>
    <path d="M 190.3956 239.160604 
L 185.053329 244.441559 
L 193.561973 248.538482 
L 198.885341 243.800563 
z
" clip-path="url(#pd7c694f885)" style="fill: #0b2a40"/>
    <path d="M 159.411111 220.694424 
L 153.958201 227.449233 
L 162.562831 236.74609 
L 167.997758 230.527978 
z
" clip-path="url(#pd7c694f885)" style="fill: #0b2b40"/>
    <path d="M 150.758568 208.916884 
L 145.287169 216.210283 
L 153.958201 227.449233 
L 159.411111 220.694424 
z
" clip-path="url(#pd7c694f885)" style="fill: #0b2b40"/>
    <path d="M 212.634129 242.204034 
L 207.388927 246.537989 
L 215.926488 247.361641 
L 221.150787 243.584026 
z
" clip-path="url(#pd7c694f885)" style="fill: #1d6ea7"/>
    <path d="M 167.997758 230.527978 
L 162.562831 236.74609 
L 171.121187 244.120178 
L 176.538542 238.439391 
z
" clip-path="url(#pd7c694f885)" style="fill: #0b2a40"/>
    <path d="M 142.019769 195.164398 
L 136.529303 203.0008 
L 145.287169 216.210283 
L 150.758568 208.916884 
z
" clip-path="url(#pd7c694f885)" style="fill: #0b2b40"/>
    <path d="M 198.885341 243.800563 
L 193.561973 248.538482 
L 202.08447 250.725218 
L 207.388927 246.537989 
z
" clip-path="url(#pd7c694f885)" style="fill: #1b679c"/>
    <path d="M 176.538542 238.439391 
L 171.121187 244.120178 
L 179.653241 249.581833 
L 185.053329 244.441559 
z
" clip-path="url(#pd7c694f885)" style="fill: #0b2a40"/>
    <path d="M 262.208845 229.004309 
L 257.236293 231.526552 
L 266.045039 226.242399 
L 270.988273 224.32013 
z
" clip-path="url(#pd7c694f885)" style="fill: #1d6fa9"/>
    <path d="M 248.544628 234.819111 
L 243.486113 237.765168 
L 252.204183 233.884491 
L 257.236293 231.526552 
z
" clip-path="url(#pd7c694f885)" style="fill: #1d6fa9"/>
    <path d="M 275.872566 222.228344 
L 270.988273 224.32013 
L 279.906404 217.615842 
L 284.758196 216.137407 
z
" clip-path="url(#pd7c694f885)" style="fill: #1d6fa9"/>
    <path d="M 234.863956 239.678005 
L 229.721584 243.042204 
L 238.367483 240.551641 
L 243.486113 237.765168 
z
" clip-path="url(#pd7c694f885)" style="fill: #1d6fa8"/>
    <path d="M 289.551729 214.483725 
L 284.758196 216.137407 
L 293.804704 207.99295 
L 298.562257 206.967587 
z
" clip-path="url(#pd7c694f885)" style="fill: #1d70a9"/>
    <path d="M 221.150787 243.584026 
L 215.926488 247.361641 
L 224.518595 246.251073 
L 229.721584 243.042204 
z
" clip-path="url(#pd7c694f885)" style="fill: #1d6fa8"/>
    <path d="M 185.053329 244.441559 
L 179.653241 249.581833 
L 188.178974 253.132429 
L 193.561973 248.538482 
z
" clip-path="url(#pd7c694f885)" style="fill: #0b2b41"/>
    <path d="M 303.262309 205.760701 
L 298.562257 206.967587 
L 307.756501 197.359462 
L 312.416774 196.797528 
z
" clip-path="url(#pd7c694f885)" style="fill: #1d70a9"/>
    <path d="M 207.388927 246.537989 
L 202.08447 250.725218 
L 210.641117 250.987732 
L 215.926488 247.361641 
z
" clip-path="url(#pd7c694f885)" style="fill: #1d6fa8"/>
    <path d="M 193.561973 248.538482 
L 188.178974 253.132429 
L 196.718526 254.7643 
L 202.08447 250.725218 
z
" clip-path="url(#pd7c694f885)" style="fill: #1c6da5"/>
    <path d="M 257.236293 231.526552 
L 252.204183 233.884491 
L 261.040562 227.992371 
L 266.045039 226.242399 
z
" clip-path="url(#pd7c694f885)" style="fill: #1d70a9"/>
    <path d="M 243.486113 237.765168 
L 238.367483 240.551641 
L 247.110211 236.075626 
L 252.204183 233.884491 
z
" clip-path="url(#pd7c694f885)" style="fill: #1d70a9"/>
    <path d="M 270.988273 224.32013 
L 266.045039 226.242399 
L 274.994058 218.915949 
L 279.906404 217.615842 
z
" clip-path="url(#pd7c694f885)" style="fill: #1d70a9"/>
    <path d="M 229.721584 243.042204 
L 224.518595 246.251073 
L 233.186433 243.176298 
L 238.367483 240.551641 
z
" clip-path="url(#pd7c694f885)" style="fill: #1d6fa9"/>
    <path d="M 284.758196 216.137407 
L 279.906404 217.615842 
L 288.98736 208.833389 
L 293.804704 207.99295 
z
" clip-path="url(#pd7c694f885)" style="fill: #1d70a9"/>
    <path d="M 215.926488 247.361641 
L 210.641117 250.987732 
L 219.25268 249.30263 
L 224.518595 246.251073 
z
" clip-path="url(#pd7c694f885)" style="fill: #1d6fa8"/>
    <path d="M 298.562257 206.967587 
L 293.804704 207.99295 
L 303.037288 197.729272 
L 307.756501 197.359462 
z
" clip-path="url(#pd7c694f885)" style="fill: #1d70a9"/>
    <path d="M 202.08447 250.725218 
L 196.718526 254.7643 
L 205.292363 254.460555 
L 210.641117 250.987732 
z
" clip-path="url(#pd7c694f885)" style="fill: #1d6fa8"/>
    <path d="M 238.367483 240.551641 
L 233.186433 243.176298 
L 241.951986 238.097317 
L 247.110211 236.075626 
z
" clip-path="url(#pd7c694f885)" style="fill: #1d70a9"/>
    <path d="M 252.204183 233.884491 
L 247.110211 236.075626 
L 255.972455 229.567111 
L 261.040562 227.992371 
z
" clip-path="url(#pd7c694f885)" style="fill: #1d70a9"/>
    <path d="M 224.518595 246.251073 
L 219.25268 249.30263 
L 227.940568 245.636773 
L 233.186433 243.176298 
z
" clip-path="url(#pd7c694f885)" style="fill: #1d70a9"/>
    <path d="M 266.045039 226.242399 
L 261.040562 227.992371 
L 270.018774 220.034481 
L 274.994058 218.915949 
z
" clip-path="url(#pd7c694f885)" style="fill: #1d70a9"/>
    <path d="M 210.641117 250.987732 
L 205.292363 254.460555 
L 213.921446 252.194769 
L 219.25268 249.30263 
z
" clip-path="url(#pd7c694f885)" style="fill: #1d70a9"/>
    <path d="M 279.906404 217.615842 
L 274.994058 218.915949 
L 284.107849 209.48532 
L 288.98736 208.833389 
z
" clip-path="url(#pd7c694f885)" style="fill: #1d70a9"/>
    <path d="M 293.804704 207.99295 
L 288.98736 208.833389 
L 298.256763 197.903016 
L 303.037288 197.729272 
z
" clip-path="url(#pd7c694f885)" style="fill: #1d70a9"/>
    <path d="M 233.186433 243.176298 
L 227.940568 245.636773 
L 236.727023 239.946774 
L 241.951986 238.097317 
z
" clip-path="url(#pd7c694f885)" style="fill: #1d70a9"/>
    <path d="M 219.25268 249.30263 
L 213.921446 252.194769 
L 222.627406 247.930563 
L 227.940568 245.636773 
z
" clip-path="url(#pd7c694f885)" style="fill: #1d70a9"/>
    <path d="M 247.110211 236.075626 
L 241.951986 238.097317 
L 250.838234 230.963523 
L 255.972455 229.567111 
z
" clip-path="url(#pd7c694f885)" style="fill: #1d70a9"/>
    <path d="M 261.040562 227.992371 
L 255.972455 229.567111 
L 264.978072 220.968016 
L 270.018774 220.034481 
z
" clip-path="url(#pd7c694f885)" style="fill: #1d70a9"/>
    <path d="M 274.994058 218.915949 
L 270.018774 220.034481 
L 279.163695 209.944972 
L 284.107849 209.48532 
z
" clip-path="url(#pd7c694f885)" style="fill: #1d70a9"/>
    <path d="M 288.98736 208.833389 
L 284.107849 209.48532 
L 293.412461 197.876546 
L 298.256763 197.903016 
z
" clip-path="url(#pd7c694f885)" style="fill: #1d70a9"/>
    <path d="M 227.940568 245.636773 
L 222.627406 247.930563 
L 231.432741 241.62105 
L 236.727023 239.946774 
z
" clip-path="url(#pd7c694f885)" style="fill: #1d70a9"/>
    <path d="M 241.951986 238.097317 
L 236.727023 239.946774 
L 245.635319 232.178342 
L 250.838234 230.963523 
z
" clip-path="url(#pd7c694f885)" style="fill: #1d70a9"/>
    <path d="M 255.972455 229.567111 
L 250.838234 230.963523 
L 259.869373 221.712946 
L 264.978072 220.968016 
z
" clip-path="url(#pd7c694f885)" style="fill: #1d70a9"/>
    <path d="M 270.018774 220.034481 
L 264.978072 220.968016 
L 274.152323 210.208372 
L 279.163695 209.944972 
z
" clip-path="url(#pd7c694f885)" style="fill: #1d70a9"/>
    <path d="M 284.107849 209.48532 
L 279.163695 209.944972 
L 288.501812 197.645497 
L 293.412461 197.876546 
z
" clip-path="url(#pd7c694f885)" style="fill: #1d70a9"/>
    <path d="M 236.727023 239.946774 
L 231.432741 241.62105 
L 240.361025 233.208124 
L 245.635319 232.178342 
z
" clip-path="url(#pd7c694f885)" style="fill: #1d70a9"/>
    <path d="M 250.838234 230.963523 
L 245.635319 232.178342 
L 254.689992 222.265473 
L 259.869373 221.712946 
z
" clip-path="url(#pd7c694f885)" style="fill: #1d70a9"/>
    <path d="M 264.978072 220.968016 
L 259.869373 221.712946 
L 269.071053 210.271337 
L 274.152323 210.208372 
z
" clip-path="url(#pd7c694f885)" style="fill: #1d70a9"/>
    <path d="M 279.163695 209.944972 
L 274.152323 210.208372 
L 283.52214 197.205276 
L 288.501812 197.645497 
z
" clip-path="url(#pd7c694f885)" style="fill: #1d70a9"/>
    <path d="M 245.635319 232.178342 
L 240.361025 233.208124 
L 249.437134 222.621592 
L 254.689992 222.265473 
z
" clip-path="url(#pd7c694f885)" style="fill: #1d70a9"/>
    <path d="M 259.869373 221.712946 
L 254.689992 222.265473 
L 263.917087 210.129464 
L 269.071053 210.271337 
z
" clip-path="url(#pd7c694f885)" style="fill: #1d70a9"/>
    <path d="M 274.152323 210.208372 
L 269.071053 210.271337 
L 278.470653 196.551045 
L 283.52214 197.205276 
z
" clip-path="url(#pd7c694f885)" style="fill: #1d70a9"/>
    <path d="M 254.689992 222.265473 
L 249.437134 222.621592 
L 258.687513 209.778116 
L 263.917087 210.129464 
z
" clip-path="url(#pd7c694f885)" style="fill: #1d70a9"/>
    <path d="M 269.071053 210.271337 
L 263.917087 210.129464 
L 273.344439 195.677717 
L 278.470653 196.551045 
z
" clip-path="url(#pd7c694f885)" style="fill: #1d70a9"/>
    <path d="M 263.917087 210.129464 
L 258.687513 209.778116 
L 268.140458 194.579933 
L 273.344439 195.677717 
z
" clip-path="url(#pd7c694f885)" style="fill: #1d70a9"/>
   </g>
  </g>
 </g>
 <defs>
  <clipPath id="pd7c694f885">
   <rect x="103.104" y="41.472" width="266.112" height="266.112"/>
  </clipPath>
 </defs>
</svg>
