<?xml version="1.0" encoding="utf-8" standalone="no"?>
<!DOCTYPE svg PUBLIC "-//W3C//DTD SVG 1.1//EN"
  "http://www.w3.org/Graphics/SVG/1.1/DTD/svg11.dtd">
<svg xmlns:xlink="http://www.w3.org/1999/xlink" width="216pt" height="144pt" viewBox="0 0 216 144" xmlns="http://www.w3.org/2000/svg" version="1.1">
 <metadata>
  <rdf:RDF xmlns:dc="http://purl.org/dc/elements/1.1/" xmlns:cc="http://creativecommons.org/ns#" xmlns:rdf="http://www.w3.org/1999/02/22-rdf-syntax-ns#">
   <cc:Work>
    <dc:type rdf:resource="http://purl.org/dc/dcmitype/StillImage"/>
    <dc:date>2023-10-09T10:55:06.187613</dc:date>
    <dc:format>image/svg+xml</dc:format>
    <dc:creator>
     <cc:Agent>
      <dc:title>Matplotlib v3.5.3, https://matplotlib.org/</dc:title>
     </cc:Agent>
    </dc:creator>
   </cc:Work>
  </rdf:RDF>
 </metadata>
 <defs>
  <style type="text/css">*{stroke-linejoin: round; stroke-linecap: butt}</style>
 </defs>
 <g id="figure_1">
  <g id="patch_1">
   <path d="M 0 144 
L 216 144 
L 216 0 
L 0 0 
z
" style="fill: #ffffff"/>
  </g>
  <g id="axes_1">
   <g id="patch_2">
    <path d="M 27 128.16 
L 194.4 128.16 
L 194.4 17.28 
L 27 17.28 
z
" style="fill: #ffffff"/>
   </g>
   <g id="matplotlib.axis_1">
    <g id="xtick_1">
     <g id="line2d_1">
      <defs>
       <path id="m8ea0548f59" d="M 0 0 
L 0 3.5 
" style="stroke: #000000; stroke-width: 0.8"/>
      </defs>
      <g>
       <use xlink:href="#m8ea0548f59" x="61.475592" y="128.16" style="stroke: #000000; stroke-width: 0.8"/>
      </g>
     </g>
     <g id="text_1">
      <!-- −2 -->
      <g transform="translate(54.104498 142.758438)scale(0.1 -0.1)">
       <defs>
        <path id="DejaVuSans-2212" d="M 678 2272 
L 4684 2272 
L 4684 1741 
L 678 1741 
L 678 2272 
z
" transform="scale(0.015625)"/>
        <path id="DejaVuSans-32" d="M 1228 531 
L 3431 531 
L 3431 0 
L 469 0 
L 469 531 
Q 828 903 1448 1529 
Q 2069 2156 2228 2338 
Q 2531 2678 2651 2914 
Q 2772 3150 2772 3378 
Q 2772 3750 2511 3984 
Q 2250 4219 1831 4219 
Q 1534 4219 1204 4116 
Q 875 4013 500 3803 
L 500 4441 
Q 881 4594 1212 4672 
Q 1544 4750 1819 4750 
Q 2544 4750 2975 4387 
Q 3406 4025 3406 3419 
Q 3406 3131 3298 2873 
Q 3191 2616 2906 2266 
Q 2828 2175 2409 1742 
Q 1991 1309 1228 531 
z
" transform="scale(0.015625)"/>
       </defs>
       <use xlink:href="#DejaVuSans-2212"/>
       <use xlink:href="#DejaVuSans-32" x="83.789062"/>
      </g>
     </g>
    </g>
    <g id="xtick_2">
     <g id="line2d_2">
      <g>
       <use xlink:href="#m8ea0548f59" x="110.7" y="128.16" style="stroke: #000000; stroke-width: 0.8"/>
      </g>
     </g>
     <g id="text_2">
      <!-- 0 -->
      <g transform="translate(107.51875 142.758438)scale(0.1 -0.1)">
       <defs>
        <path id="DejaVuSans-30" d="M 2034 4250 
Q 1547 4250 1301 3770 
Q 1056 3291 1056 2328 
Q 1056 1369 1301 889 
Q 1547 409 2034 409 
Q 2525 409 2770 889 
Q 3016 1369 3016 2328 
Q 3016 3291 2770 3770 
Q 2525 4250 2034 4250 
z
M 2034 4750 
Q 2819 4750 3233 4129 
Q 3647 3509 3647 2328 
Q 3647 1150 3233 529 
Q 2819 -91 2034 -91 
Q 1250 -91 836 529 
Q 422 1150 422 2328 
Q 422 3509 836 4129 
Q 1250 4750 2034 4750 
z
" transform="scale(0.015625)"/>
       </defs>
       <use xlink:href="#DejaVuSans-30"/>
      </g>
     </g>
    </g>
    <g id="xtick_3">
     <g id="line2d_3">
      <g>
       <use xlink:href="#m8ea0548f59" x="159.924408" y="128.16" style="stroke: #000000; stroke-width: 0.8"/>
      </g>
     </g>
     <g id="text_3">
      <!-- 2 -->
      <g transform="translate(156.743158 142.758438)scale(0.1 -0.1)">
       <use xlink:href="#DejaVuSans-32"/>
      </g>
     </g>
    </g>
   </g>
   <g id="matplotlib.axis_2">
    <g id="ytick_1">
     <g id="line2d_4">
      <defs>
       <path id="m1163a3b022" d="M 0 0 
L -3.5 0 
" style="stroke: #000000; stroke-width: 0.8"/>
      </defs>
      <g>
       <use xlink:href="#m1163a3b022" x="27" y="123.162042" style="stroke: #000000; stroke-width: 0.8"/>
      </g>
     </g>
     <g id="text_4">
      <!-- −20 -->
      <g transform="translate(-1.104688 126.961261)scale(0.1 -0.1)">
       <use xlink:href="#DejaVuSans-2212"/>
       <use xlink:href="#DejaVuSans-32" x="83.789062"/>
       <use xlink:href="#DejaVuSans-30" x="147.412109"/>
      </g>
     </g>
    </g>
    <g id="ytick_2">
     <g id="line2d_5">
      <g>
       <use xlink:href="#m1163a3b022" x="27" y="97.941021" style="stroke: #000000; stroke-width: 0.8"/>
      </g>
     </g>
     <g id="text_5">
      <!-- −10 -->
      <g transform="translate(-1.104688 101.74024)scale(0.1 -0.1)">
       <defs>
        <path id="DejaVuSans-31" d="M 794 531 
L 1825 531 
L 1825 4091 
L 703 3866 
L 703 4441 
L 1819 4666 
L 2450 4666 
L 2450 531 
L 3481 531 
L 3481 0 
L 794 0 
L 794 531 
z
" transform="scale(0.015625)"/>
       </defs>
       <use xlink:href="#DejaVuSans-2212"/>
       <use xlink:href="#DejaVuSans-31" x="83.789062"/>
       <use xlink:href="#DejaVuSans-30" x="147.412109"/>
      </g>
     </g>
    </g>
    <g id="ytick_3">
     <g id="line2d_6">
      <g>
       <use xlink:href="#m1163a3b022" x="27" y="72.72" style="stroke: #000000; stroke-width: 0.8"/>
      </g>
     </g>
     <g id="text_6">
      <!-- 0 -->
      <g transform="translate(13.6375 76.519219)scale(0.1 -0.1)">
       <use xlink:href="#DejaVuSans-30"/>
      </g>
     </g>
    </g>
    <g id="ytick_4">
     <g id="line2d_7">
      <g>
       <use xlink:href="#m1163a3b022" x="27" y="47.498979" style="stroke: #000000; stroke-width: 0.8"/>
      </g>
     </g>
     <g id="text_7">
      <!-- 10 -->
      <g transform="translate(7.275 51.298198)scale(0.1 -0.1)">
       <use xlink:href="#DejaVuSans-31"/>
       <use xlink:href="#DejaVuSans-30" x="63.623047"/>
      </g>
     </g>
    </g>
    <g id="ytick_5">
     <g id="line2d_8">
      <g>
       <use xlink:href="#m1163a3b022" x="27" y="22.277958" style="stroke: #000000; stroke-width: 0.8"/>
      </g>
     </g>
     <g id="text_8">
      <!-- 20 -->
      <g transform="translate(7.275 26.077177)scale(0.1 -0.1)">
       <use xlink:href="#DejaVuSans-32"/>
       <use xlink:href="#DejaVuSans-30" x="63.623047"/>
      </g>
     </g>
    </g>
   </g>
   <g id="line2d_9">
    <path d="M 27 72.72 
L 194.4 72.72 
" clip-path="url(#p5c8a98d5f9)" style="fill: none; stroke: #000000; stroke-width: 1.5; stroke-linecap: square"/>
   </g>
   <g id="line2d_10">
    <path d="M 110.7 128.16 
L 110.7 17.28 
" clip-path="url(#p5c8a98d5f9)" style="fill: none; stroke: #000000; stroke-width: 1.5; stroke-linecap: square"/>
   </g>
   <g id="line2d_11">
    <path d="M 34.609091 72.59379 
L 34.974743 72.556195 
L 35.340395 72.518529 
L 35.706047 72.480772 
L 36.071699 72.442909 
L 36.43735 72.404923 
L 36.803002 72.366795 
L 37.168654 72.328508 
L 37.534306 72.290043 
L 37.899958 72.251384 
L 38.26561 72.212511 
L 38.631262 72.173404 
L 38.996914 72.134045 
L 39.362566 72.094413 
L 39.728218 72.054488 
L 40.09387 72.014249 
L 40.459521 71.973673 
L 40.825173 71.93274 
L 41.190825 71.891424 
L 41.556477 71.849704 
L 41.922129 71.807554 
L 42.287781 71.764948 
L 42.653433 71.721859 
L 43.019085 71.678262 
L 43.384737 71.634125 
L 43.750389 71.589421 
L 44.116041 71.544117 
L 44.481693 71.49818 
L 44.847344 71.451578 
L 45.212996 71.404275 
L 45.578648 71.356232 
L 45.9443 71.307411 
L 46.309952 71.25777 
L 46.675604 71.207267 
L 47.041256 71.155856 
L 47.406908 71.103488 
L 47.77256 71.050114 
L 48.138212 70.995679 
L 48.503864 70.940127 
L 48.869515 70.883397 
L 49.235167 70.825427 
L 49.600819 70.766147 
L 49.966471 70.705488 
L 50.332123 70.643371 
L 50.697775 70.579716 
L 51.063427 70.514435 
L 51.429079 70.447435 
L 51.794731 70.378617 
L 52.160383 70.307874 
L 52.526035 70.235092 
L 52.891686 70.160147 
L 53.257338 70.082907 
L 53.62299 70.00323 
L 53.988642 69.92096 
L 54.354294 69.835932 
L 54.719946 69.747965 
L 55.085598 69.656863 
L 55.45125 69.562412 
L 55.816902 69.464381 
L 56.182554 69.362516 
L 56.548206 69.256541 
L 56.913858 69.146151 
L 57.279509 69.031012 
L 57.645161 68.910759 
L 58.010813 68.784984 
L 58.376465 68.65324 
L 58.742117 68.515028 
L 59.107769 68.369795 
L 59.473421 68.216923 
L 59.839073 68.055719 
L 60.204725 67.885406 
L 60.570377 67.705107 
L 60.936029 67.513831 
L 61.30168 67.310451 
L 61.667332 67.093682 
L 62.032984 66.862051 
L 62.398636 66.613862 
L 62.764288 66.347151 
L 63.12994 66.059634 
L 63.495592 65.748633 
L 63.861244 65.410993 
L 64.226896 65.04297 
L 64.592548 64.640082 
L 64.9582 64.196924 
L 65.323851 63.706912 
L 65.689503 63.161947 
L 66.055155 62.55195 
L 66.420807 61.86422 
L 66.786459 61.082519 
L 67.152111 60.185748 
L 67.517763 59.145986 
L 67.883415 57.925483 
L 68.249067 56.471926 
L 68.614719 54.710655 
L 68.980371 52.531315 
L 69.346023 49.76362 
L 69.711674 46.130279 
L 70.077326 41.147282 
L 70.442978 33.887135 
L 70.80863 22.32 
" clip-path="url(#p5c8a98d5f9)" style="fill: none; stroke: #1f77b4; stroke-width: 1.5; stroke-linecap: square"/>
   </g>
   <g id="line2d_12">
    <path d="M 73.269851 123.12 
L 73.635502 111.552865 
L 74.001154 104.292718 
L 74.366806 99.309721 
L 74.732458 95.67638 
L 75.09811 92.908685 
L 75.463762 90.729345 
L 75.829414 88.968074 
L 76.195066 87.514517 
L 76.560718 86.294014 
L 76.92637 85.254252 
L 77.292022 84.357481 
L 77.657673 83.57578 
L 78.023325 82.88805 
L 78.388977 82.278053 
L 78.754629 81.733088 
L 79.120281 81.243076 
L 79.485933 80.799918 
L 79.851585 80.39703 
L 80.217237 80.029007 
L 80.582889 79.691367 
L 80.948541 79.380366 
L 81.314193 79.092849 
L 81.679845 78.826138 
L 82.045496 78.577949 
L 82.411148 78.346318 
L 82.7768 78.129549 
L 83.142452 77.926169 
L 83.508104 77.734893 
L 83.873756 77.554594 
L 84.239408 77.384281 
L 84.60506 77.223077 
L 84.970712 77.070205 
L 85.336364 76.924972 
L 85.702016 76.78676 
L 86.067667 76.655016 
L 86.433319 76.529241 
L 86.798971 76.408988 
L 87.164623 76.293849 
L 87.530275 76.183459 
L 87.895927 76.077484 
L 88.261579 75.975619 
L 88.627231 75.877588 
L 88.992883 75.783137 
L 89.358535 75.692035 
L 89.724187 75.604068 
L 90.089838 75.51904 
L 90.45549 75.43677 
L 90.821142 75.357093 
L 91.186794 75.279853 
L 91.552446 75.204908 
L 91.918098 75.132126 
L 92.28375 75.061383 
L 92.649402 74.992565 
L 93.015054 74.925565 
L 93.380706 74.860284 
L 93.746358 74.796629 
L 94.11201 74.734512 
L 94.477661 74.673853 
L 94.843313 74.614573 
L 95.208965 74.556603 
L 95.574617 74.499873 
L 95.940269 74.444321 
L 96.305921 74.389886 
L 96.671573 74.336512 
L 97.037225 74.284144 
L 97.402877 74.232733 
L 97.768529 74.18223 
L 98.134181 74.132589 
L 98.499832 74.083768 
L 98.865484 74.035725 
L 99.231136 73.988422 
L 99.596788 73.94182 
L 99.96244 73.895883 
L 100.328092 73.850579 
L 100.693744 73.805875 
L 101.059396 73.761738 
L 101.425048 73.718141 
L 101.7907 73.675052 
L 102.156352 73.632446 
L 102.522003 73.590296 
L 102.887655 73.548576 
L 103.253307 73.50726 
L 103.618959 73.466327 
L 103.984611 73.425751 
L 104.350263 73.385512 
L 104.715915 73.345587 
L 105.081567 73.305955 
L 105.447219 73.266596 
L 105.812871 73.227489 
L 106.178523 73.188616 
L 106.544175 73.149957 
L 106.909826 73.111492 
L 107.275478 73.073205 
L 107.64113 73.035077 
L 108.006782 72.997091 
L 108.372434 72.959228 
L 108.738086 72.921471 
L 109.103738 72.883805 
L 109.46939 72.84621 
" clip-path="url(#p5c8a98d5f9)" style="fill: none; stroke: #ff7f0e; stroke-width: 1.5; stroke-linecap: square"/>
   </g>
   <g id="line2d_13">
    <path d="M 111.93061 72.59379 
L 112.296262 72.556195 
L 112.661914 72.518529 
L 113.027566 72.480772 
L 113.393218 72.442909 
L 113.75887 72.404923 
L 114.124522 72.366795 
L 114.490174 72.328508 
L 114.855825 72.290043 
L 115.221477 72.251384 
L 115.587129 72.212511 
L 115.952781 72.173404 
L 116.318433 72.134045 
L 116.684085 72.094413 
L 117.049737 72.054488 
L 117.415389 72.014249 
L 117.781041 71.973673 
L 118.146693 71.93274 
L 118.512345 71.891424 
L 118.877997 71.849704 
L 119.243648 71.807554 
L 119.6093 71.764948 
L 119.974952 71.721859 
L 120.340604 71.678262 
L 120.706256 71.634125 
L 121.071908 71.589421 
L 121.43756 71.544117 
L 121.803212 71.49818 
L 122.168864 71.451578 
L 122.534516 71.404275 
L 122.900168 71.356232 
L 123.265819 71.307411 
L 123.631471 71.25777 
L 123.997123 71.207267 
L 124.362775 71.155856 
L 124.728427 71.103488 
L 125.094079 71.050114 
L 125.459731 70.995679 
L 125.825383 70.940127 
L 126.191035 70.883397 
L 126.556687 70.825427 
L 126.922339 70.766147 
L 127.28799 70.705488 
L 127.653642 70.643371 
L 128.019294 70.579716 
L 128.384946 70.514435 
L 128.750598 70.447435 
L 129.11625 70.378617 
L 129.481902 70.307874 
L 129.847554 70.235092 
L 130.213206 70.160147 
L 130.578858 70.082907 
L 130.94451 70.00323 
L 131.310162 69.92096 
L 131.675813 69.835932 
L 132.041465 69.747965 
L 132.407117 69.656863 
L 132.772769 69.562412 
L 133.138421 69.464381 
L 133.504073 69.362516 
L 133.869725 69.256541 
L 134.235377 69.146151 
L 134.601029 69.031012 
L 134.966681 68.910759 
L 135.332333 68.784984 
L 135.697984 68.65324 
L 136.063636 68.515028 
L 136.429288 68.369795 
L 136.79494 68.216923 
L 137.160592 68.055719 
L 137.526244 67.885406 
L 137.891896 67.705107 
L 138.257548 67.513831 
L 138.6232 67.310451 
L 138.988852 67.093682 
L 139.354504 66.862051 
L 139.720155 66.613862 
L 140.085807 66.347151 
L 140.451459 66.059634 
L 140.817111 65.748633 
L 141.182763 65.410993 
L 141.548415 65.04297 
L 141.914067 64.640082 
L 142.279719 64.196924 
L 142.645371 63.706912 
L 143.011023 63.161947 
L 143.376675 62.55195 
L 143.742327 61.86422 
L 144.107978 61.082519 
L 144.47363 60.185748 
L 144.839282 59.145986 
L 145.204934 57.925483 
L 145.570586 56.471926 
L 145.936238 54.710655 
L 146.30189 52.531315 
L 146.667542 49.76362 
L 147.033194 46.130279 
L 147.398846 41.147282 
L 147.764498 33.887135 
L 148.130149 22.32 
" clip-path="url(#p5c8a98d5f9)" style="fill: none; stroke: #2ca02c; stroke-width: 1.5; stroke-linecap: square"/>
   </g>
   <g id="line2d_14">
    <path d="M 150.59137 123.12 
L 150.957022 111.552865 
L 151.322674 104.292718 
L 151.688326 99.309721 
L 152.053977 95.67638 
L 152.419629 92.908685 
L 152.785281 90.729345 
L 153.150933 88.968074 
L 153.516585 87.514517 
L 153.882237 86.294014 
L 154.247889 85.254252 
L 154.613541 84.357481 
L 154.979193 83.57578 
L 155.344845 82.88805 
L 155.710497 82.278053 
L 156.076149 81.733088 
L 156.4418 81.243076 
L 156.807452 80.799918 
L 157.173104 80.39703 
L 157.538756 80.029007 
L 157.904408 79.691367 
L 158.27006 79.380366 
L 158.635712 79.092849 
L 159.001364 78.826138 
L 159.367016 78.577949 
L 159.732668 78.346318 
L 160.09832 78.129549 
L 160.463971 77.926169 
L 160.829623 77.734893 
L 161.195275 77.554594 
L 161.560927 77.384281 
L 161.926579 77.223077 
L 162.292231 77.070205 
L 162.657883 76.924972 
L 163.023535 76.78676 
L 163.389187 76.655016 
L 163.754839 76.529241 
L 164.120491 76.408988 
L 164.486142 76.293849 
L 164.851794 76.183459 
L 165.217446 76.077484 
L 165.583098 75.975619 
L 165.94875 75.877588 
L 166.314402 75.783137 
L 166.680054 75.692035 
L 167.045706 75.604068 
L 167.411358 75.51904 
L 167.77701 75.43677 
L 168.142662 75.357093 
L 168.508314 75.279853 
L 168.873965 75.204908 
L 169.239617 75.132126 
L 169.605269 75.061383 
L 169.970921 74.992565 
L 170.336573 74.925565 
L 170.702225 74.860284 
L 171.067877 74.796629 
L 171.433529 74.734512 
L 171.799181 74.673853 
L 172.164833 74.614573 
L 172.530485 74.556603 
L 172.896136 74.499873 
L 173.261788 74.444321 
L 173.62744 74.389886 
L 173.993092 74.336512 
L 174.358744 74.284144 
L 174.724396 74.232733 
L 175.090048 74.18223 
L 175.4557 74.132589 
L 175.821352 74.083768 
L 176.187004 74.035725 
L 176.552656 73.988422 
L 176.918307 73.94182 
L 177.283959 73.895883 
L 177.649611 73.850579 
L 178.015263 73.805875 
L 178.380915 73.761738 
L 178.746567 73.718141 
L 179.112219 73.675052 
L 179.477871 73.632446 
L 179.843523 73.590296 
L 180.209175 73.548576 
L 180.574827 73.50726 
L 180.940479 73.466327 
L 181.30613 73.425751 
L 181.671782 73.385512 
L 182.037434 73.345587 
L 182.403086 73.305955 
L 182.768738 73.266596 
L 183.13439 73.227489 
L 183.500042 73.188616 
L 183.865694 73.149957 
L 184.231346 73.111492 
L 184.596998 73.073205 
L 184.96265 73.035077 
L 185.328301 72.997091 
L 185.693953 72.959228 
L 186.059605 72.921471 
L 186.425257 72.883805 
L 186.790909 72.84621 
" clip-path="url(#p5c8a98d5f9)" style="fill: none; stroke: #d62728; stroke-width: 1.5; stroke-linecap: square"/>
   </g>
   <g id="patch_3">
    <path d="M 27 128.16 
L 27 17.28 
" style="fill: none; stroke: #000000; stroke-width: 0.8; stroke-linejoin: miter; stroke-linecap: square"/>
   </g>
   <g id="patch_4">
    <path d="M 194.4 128.16 
L 194.4 17.28 
" style="fill: none; stroke: #000000; stroke-width: 0.8; stroke-linejoin: miter; stroke-linecap: square"/>
   </g>
   <g id="patch_5">
    <path d="M 27 128.16 
L 194.4 128.16 
" style="fill: none; stroke: #000000; stroke-width: 0.8; stroke-linejoin: miter; stroke-linecap: square"/>
   </g>
   <g id="patch_6">
    <path d="M 27 17.28 
L 194.4 17.28 
" style="fill: none; stroke: #000000; stroke-width: 0.8; stroke-linejoin: miter; stroke-linecap: square"/>
   </g>
   <g id="text_9">
    <!-- y=tan(x) -->
    <g transform="translate(84.05625 11.28)scale(0.12 -0.12)">
     <defs>
      <path id="DejaVuSans-79" d="M 2059 -325 
Q 1816 -950 1584 -1140 
Q 1353 -1331 966 -1331 
L 506 -1331 
L 506 -850 
L 844 -850 
Q 1081 -850 1212 -737 
Q 1344 -625 1503 -206 
L 1606 56 
L 191 3500 
L 800 3500 
L 1894 763 
L 2988 3500 
L 3597 3500 
L 2059 -325 
z
" transform="scale(0.015625)"/>
      <path id="DejaVuSans-3d" d="M 678 2906 
L 4684 2906 
L 4684 2381 
L 678 2381 
L 678 2906 
z
M 678 1631 
L 4684 1631 
L 4684 1100 
L 678 1100 
L 678 1631 
z
" transform="scale(0.015625)"/>
      <path id="DejaVuSans-74" d="M 1172 4494 
L 1172 3500 
L 2356 3500 
L 2356 3053 
L 1172 3053 
L 1172 1153 
Q 1172 725 1289 603 
Q 1406 481 1766 481 
L 2356 481 
L 2356 0 
L 1766 0 
Q 1100 0 847 248 
Q 594 497 594 1153 
L 594 3053 
L 172 3053 
L 172 3500 
L 594 3500 
L 594 4494 
L 1172 4494 
z
" transform="scale(0.015625)"/>
      <path id="DejaVuSans-61" d="M 2194 1759 
Q 1497 1759 1228 1600 
Q 959 1441 959 1056 
Q 959 750 1161 570 
Q 1363 391 1709 391 
Q 2188 391 2477 730 
Q 2766 1069 2766 1631 
L 2766 1759 
L 2194 1759 
z
M 3341 1997 
L 3341 0 
L 2766 0 
L 2766 531 
Q 2569 213 2275 61 
Q 1981 -91 1556 -91 
Q 1019 -91 701 211 
Q 384 513 384 1019 
Q 384 1609 779 1909 
Q 1175 2209 1959 2209 
L 2766 2209 
L 2766 2266 
Q 2766 2663 2505 2880 
Q 2244 3097 1772 3097 
Q 1472 3097 1187 3025 
Q 903 2953 641 2809 
L 641 3341 
Q 956 3463 1253 3523 
Q 1550 3584 1831 3584 
Q 2591 3584 2966 3190 
Q 3341 2797 3341 1997 
z
" transform="scale(0.015625)"/>
      <path id="DejaVuSans-6e" d="M 3513 2113 
L 3513 0 
L 2938 0 
L 2938 2094 
Q 2938 2591 2744 2837 
Q 2550 3084 2163 3084 
Q 1697 3084 1428 2787 
Q 1159 2491 1159 1978 
L 1159 0 
L 581 0 
L 581 3500 
L 1159 3500 
L 1159 2956 
Q 1366 3272 1645 3428 
Q 1925 3584 2291 3584 
Q 2894 3584 3203 3211 
Q 3513 2838 3513 2113 
z
" transform="scale(0.015625)"/>
      <path id="DejaVuSans-28" d="M 1984 4856 
Q 1566 4138 1362 3434 
Q 1159 2731 1159 2009 
Q 1159 1288 1364 580 
Q 1569 -128 1984 -844 
L 1484 -844 
Q 1016 -109 783 600 
Q 550 1309 550 2009 
Q 550 2706 781 3412 
Q 1013 4119 1484 4856 
L 1984 4856 
z
" transform="scale(0.015625)"/>
      <path id="DejaVuSans-78" d="M 3513 3500 
L 2247 1797 
L 3578 0 
L 2900 0 
L 1881 1375 
L 863 0 
L 184 0 
L 1544 1831 
L 300 3500 
L 978 3500 
L 1906 2253 
L 2834 3500 
L 3513 3500 
z
" transform="scale(0.015625)"/>
      <path id="DejaVuSans-29" d="M 513 4856 
L 1013 4856 
Q 1481 4119 1714 3412 
Q 1947 2706 1947 2009 
Q 1947 1309 1714 600 
Q 1481 -109 1013 -844 
L 513 -844 
Q 928 -128 1133 580 
Q 1338 1288 1338 2009 
Q 1338 2731 1133 3434 
Q 928 4138 513 4856 
z
" transform="scale(0.015625)"/>
     </defs>
     <use xlink:href="#DejaVuSans-79"/>
     <use xlink:href="#DejaVuSans-3d" x="59.179688"/>
     <use xlink:href="#DejaVuSans-74" x="142.96875"/>
     <use xlink:href="#DejaVuSans-61" x="182.177734"/>
     <use xlink:href="#DejaVuSans-6e" x="243.457031"/>
     <use xlink:href="#DejaVuSans-28" x="306.835938"/>
     <use xlink:href="#DejaVuSans-78" x="345.849609"/>
     <use xlink:href="#DejaVuSans-29" x="405.029297"/>
    </g>
   </g>
  </g>
 </g>
 <defs>
  <clipPath id="p5c8a98d5f9">
   <rect x="27" y="17.28" width="167.4" height="110.88"/>
  </clipPath>
 </defs>
</svg>
