<?xml version="1.0" encoding="utf-8" standalone="no"?>
<!DOCTYPE svg PUBLIC "-//W3C//DTD SVG 1.1//EN"
  "http://www.w3.org/Graphics/SVG/1.1/DTD/svg11.dtd">
<svg xmlns:xlink="http://www.w3.org/1999/xlink" width="460.8pt" height="345.6pt" viewBox="0 0 460.8 345.6" xmlns="http://www.w3.org/2000/svg" version="1.1">
 <metadata>
  <rdf:RDF xmlns:dc="http://purl.org/dc/elements/1.1/" xmlns:cc="http://creativecommons.org/ns#" xmlns:rdf="http://www.w3.org/1999/02/22-rdf-syntax-ns#">
   <cc:Work>
    <dc:type rdf:resource="http://purl.org/dc/dcmitype/StillImage"/>
    <dc:date>2024-01-26T15:29:29.258722</dc:date>
    <dc:format>image/svg+xml</dc:format>
    <dc:creator>
     <cc:Agent>
      <dc:title>Matplotlib v3.8.2, https://matplotlib.org/</dc:title>
     </cc:Agent>
    </dc:creator>
   </cc:Work>
  </rdf:RDF>
 </metadata>
 <defs>
  <style type="text/css">*{stroke-linejoin: round; stroke-linecap: butt}</style>
 </defs>
 <g id="figure_1">
  <g id="patch_1">
   <path d="M 0 345.6 
L 460.8 345.6 
L 460.8 0 
L 0 0 
z
" style="fill: #ffffff"/>
  </g>
  <g id="patch_2">
   <path d="M 103.104 307.584 
L 369.216 307.584 
L 369.216 41.472 
L 103.104 41.472 
z
" style="fill: #ffffff"/>
  </g>
  <g id="pane3d_1">
   <g id="patch_3">
    <path d="M 127.294254 209.494692 
L 268.070317 168.259204 
L 269.276266 62.030104 
L 122.255027 99.584635 
" style="fill: #f2f2f2; opacity: 0.5; stroke: #f2f2f2; stroke-linejoin: miter"/>
   </g>
  </g>
  <g id="pane3d_2">
   <g id="patch_4">
    <path d="M 268.070317 168.259204 
L 356.392598 241.754164 
L 361.821915 129.075928 
L 269.276266 62.030104 
" style="fill: #e6e6e6; opacity: 0.5; stroke: #e6e6e6; stroke-linejoin: miter"/>
   </g>
  </g>
  <g id="pane3d_3">
   <g id="patch_5">
    <path d="M 127.294254 209.494692 
L 207.24872 290.853767 
L 356.392598 241.754164 
L 268.070317 168.259204 
" style="fill: #ececec; opacity: 0.5; stroke: #ececec; stroke-linejoin: miter"/>
   </g>
  </g>
  <g id="grid3d_1">
   <g id="Line3DCollection_1">
    <path d="M 131.972192 214.254811 
L 273.259442 172.577192 
L 274.694166 65.955168 
" style="fill: none; stroke: #b0b0b0; stroke-width: 0.8"/>
    <path d="M 149.525408 232.116394 
L 292.706782 188.759762 
L 295.020329 80.680705 
" style="fill: none; stroke: #b0b0b0; stroke-width: 0.8"/>
    <path d="M 167.811211 250.723435 
L 312.925513 205.584224 
L 316.188701 96.01639 
" style="fill: none; stroke: #b0b0b0; stroke-width: 0.8"/>
    <path d="M 186.876442 270.123597 
L 333.962463 223.089543 
L 338.252732 112.000946 
" style="fill: none; stroke: #b0b0b0; stroke-width: 0.8"/>
   </g>
  </g>
  <g id="grid3d_2">
   <g id="Line3DCollection_2">
    <path d="M 132.065357 97.078723 
L 136.669258 206.748608 
L 217.222149 287.570418 
" style="fill: none; stroke: #b0b0b0; stroke-width: 0.8"/>
    <path d="M 167.398156 88.053451 
L 170.456201 196.85189 
L 253.116896 275.753521 
" style="fill: none; stroke: #b0b0b0; stroke-width: 0.8"/>
    <path d="M 201.897978 79.240951 
L 203.479894 187.178739 
L 288.126991 264.22786 
" style="fill: none; stroke: #b0b0b0; stroke-width: 0.8"/>
    <path d="M 235.593934 70.633788 
L 235.76591 177.721665 
L 322.28474 252.9828 
" style="fill: none; stroke: #b0b0b0; stroke-width: 0.8"/>
   </g>
  </g>
  <g id="grid3d_3">
   <g id="Line3DCollection_3">
    <path d="M 356.925664 230.691091 
L 268.189126 157.793637 
L 126.798745 198.687196 
" style="fill: none; stroke: #b0b0b0; stroke-width: 0.8"/>
    <path d="M 358.030059 207.770842 
L 268.434989 136.136082 
L 125.772675 176.30769 
" style="fill: none; stroke: #b0b0b0; stroke-width: 0.8"/>
    <path d="M 359.155472 184.414406 
L 268.685143 114.100708 
L 124.727793 153.51788 
" style="fill: none; stroke: #b0b0b0; stroke-width: 0.8"/>
    <path d="M 360.302507 160.609213 
L 268.939698 91.677542 
L 123.663577 130.306378 
" style="fill: none; stroke: #b0b0b0; stroke-width: 0.8"/>
    <path d="M 361.471795 136.342205 
L 269.198773 68.856257 
L 122.579486 106.661371 
" style="fill: none; stroke: #b0b0b0; stroke-width: 0.8"/>
   </g>
  </g>
  <g id="axis3d_1">
   <g id="line2d_1">
    <path d="M 127.294254 209.494692 
L 207.24872 290.853767 
" style="fill: none; stroke: #000000; stroke-width: 0.8; stroke-linecap: square"/>
   </g>
   <g id="xtick_1">
    <g id="line2d_2">
     <path d="M 133.158626 213.904831 
L 129.59647 214.955613 
" style="fill: none; stroke: #000000; stroke-width: 0.8; stroke-linecap: square"/>
    </g>
    <g id="text_1">
     <!-- -2 -->
     <g transform="translate(115.040821 233.527468) scale(0.1 -0.1)">
      <defs>
       <path id="SimHei-2d" d="M 2975 2125 
L 125 2125 
L 125 2525 
L 2975 2525 
L 2975 2125 
z
" transform="scale(0.015625)"/>
       <path id="SimHei-32" d="M 300 250 
Q 325 625 650 925 
Q 975 1225 1475 1862 
Q 1975 2500 2125 2850 
Q 2275 3200 2237 3450 
Q 2200 3700 2000 3862 
Q 1800 4025 1537 4000 
Q 1275 3975 1037 3800 
Q 800 3625 675 3275 
L 200 3350 
Q 400 3925 712 4187 
Q 1025 4450 1450 4475 
Q 1700 4500 1900 4462 
Q 2100 4425 2312 4287 
Q 2525 4150 2662 3875 
Q 2800 3600 2762 3212 
Q 2725 2825 2375 2287 
Q 2025 1750 1025 600 
L 2825 600 
L 2825 150 
L 300 150 
L 300 250 
z
" transform="scale(0.015625)"/>
      </defs>
      <use xlink:href="#SimHei-2d"/>
      <use xlink:href="#SimHei-32" x="50"/>
     </g>
    </g>
   </g>
   <g id="xtick_2">
    <g id="line2d_3">
     <path d="M 150.72891 231.751963 
L 147.115449 232.846152 
" style="fill: none; stroke: #000000; stroke-width: 0.8; stroke-linecap: square"/>
    </g>
    <g id="text_2">
     <!-- -1 -->
     <g transform="translate(132.360359 251.65316) scale(0.1 -0.1)">
      <defs>
       <path id="SimHei-31" d="M 1400 3600 
Q 1075 3275 575 2975 
L 575 3450 
Q 1200 3875 1600 4450 
L 1900 4450 
L 1900 150 
L 1400 150 
L 1400 3600 
z
" transform="scale(0.015625)"/>
      </defs>
      <use xlink:href="#SimHei-2d"/>
      <use xlink:href="#SimHei-31" x="50"/>
     </g>
    </g>
   </g>
   <g id="xtick_3">
    <g id="line2d_4">
     <path d="M 169.032187 250.343639 
L 165.366198 251.48398 
" style="fill: none; stroke: #000000; stroke-width: 0.8; stroke-linecap: square"/>
    </g>
    <g id="text_3">
     <!-- 0 -->
     <g transform="translate(152.903166 270.535788) scale(0.1 -0.1)">
      <defs>
       <path id="SimHei-30" d="M 225 2537 
Q 250 3200 412 3587 
Q 575 3975 875 4225 
Q 1175 4475 1612 4475 
Q 2050 4475 2375 4112 
Q 2700 3750 2800 3200 
Q 2900 2650 2862 1937 
Q 2825 1225 2612 775 
Q 2400 325 1975 150 
Q 1550 -25 1125 187 
Q 700 400 525 750 
Q 350 1100 275 1487 
Q 200 1875 225 2537 
z
M 750 2687 
Q 675 2000 800 1462 
Q 925 925 1212 700 
Q 1500 475 1800 612 
Q 2100 750 2237 1162 
Q 2375 1575 2375 2062 
Q 2375 2550 2337 2950 
Q 2300 3350 2112 3675 
Q 1925 4000 1612 4012 
Q 1300 4025 1062 3700 
Q 825 3375 750 2687 
z
" transform="scale(0.015625)"/>
      </defs>
      <use xlink:href="#SimHei-30"/>
     </g>
    </g>
   </g>
   <g id="xtick_4">
    <g id="line2d_5">
     <path d="M 188.115305 269.727443 
L 184.395544 270.916919 
" style="fill: none; stroke: #000000; stroke-width: 0.8; stroke-linecap: square"/>
    </g>
    <g id="text_4">
     <!-- 1 -->
     <g transform="translate(171.715517 290.223778) scale(0.1 -0.1)">
      <use xlink:href="#SimHei-31"/>
     </g>
    </g>
   </g>
  </g>
  <g id="axis3d_2">
   <g id="line2d_6">
    <path d="M 356.392598 241.754164 
L 207.24872 290.853767 
" style="fill: none; stroke: #000000; stroke-width: 0.8; stroke-linecap: square"/>
   </g>
   <g id="xtick_5">
    <g id="line2d_7">
     <path d="M 216.51813 286.864049 
L 218.633345 288.986325 
" style="fill: none; stroke: #000000; stroke-width: 0.8; stroke-linecap: square"/>
    </g>
    <g id="text_5">
     <!-- -2 -->
     <g transform="translate(219.64545 311.050989) scale(0.1 -0.1)">
      <use xlink:href="#SimHei-2d"/>
      <use xlink:href="#SimHei-32" x="50"/>
     </g>
    </g>
   </g>
   <g id="xtick_6">
    <g id="line2d_8">
     <path d="M 252.395218 275.064662 
L 254.56345 277.134292 
" style="fill: none; stroke: #000000; stroke-width: 0.8; stroke-linecap: square"/>
    </g>
    <g id="text_6">
     <!-- -1 -->
     <g transform="translate(255.584674 298.980867) scale(0.1 -0.1)">
      <use xlink:href="#SimHei-2d"/>
      <use xlink:href="#SimHei-31" x="50"/>
     </g>
    </g>
   </g>
   <g id="xtick_7">
    <g id="line2d_9">
     <path d="M 287.388731 263.555867 
L 289.606739 265.574786 
" style="fill: none; stroke: #000000; stroke-width: 0.8; stroke-linecap: square"/>
    </g>
    <g id="text_7">
     <!-- 0 -->
     <g transform="translate(293.134801 287.209348) scale(0.1 -0.1)">
      <use xlink:href="#SimHei-30"/>
     </g>
    </g>
   </g>
   <g id="xtick_8">
    <g id="line2d_10">
     <path d="M 321.530915 252.327062 
L 323.795647 254.29711 
" style="fill: none; stroke: #000000; stroke-width: 0.8; stroke-linecap: square"/>
    </g>
    <g id="text_8">
     <!-- 1 -->
     <g transform="translate(327.328419 275.725485) scale(0.1 -0.1)">
      <use xlink:href="#SimHei-31"/>
     </g>
    </g>
   </g>
  </g>
  <g id="axis3d_3">
   <g id="line2d_11">
    <path d="M 356.392598 241.754164 
L 361.821915 129.075928 
" style="fill: none; stroke: #000000; stroke-width: 0.8; stroke-linecap: square"/>
   </g>
   <g id="xtick_9">
    <g id="line2d_12">
     <path d="M 356.153009 230.056352 
L 358.474286 231.963291 
" style="fill: none; stroke: #000000; stroke-width: 0.8; stroke-linecap: square"/>
    </g>
    <g id="text_9">
     <!-- -20 -->
     <g transform="translate(369.293386 240.329108) scale(0.1 -0.1)">
      <use xlink:href="#SimHei-2d"/>
      <use xlink:href="#SimHei-32" x="50"/>
      <use xlink:href="#SimHei-30" x="100"/>
     </g>
    </g>
   </g>
   <g id="xtick_10">
    <g id="line2d_13">
     <path d="M 357.249332 207.14662 
L 359.594892 209.021987 
" style="fill: none; stroke: #000000; stroke-width: 0.8; stroke-linecap: square"/>
    </g>
    <g id="text_10">
     <!-- 0 -->
     <g transform="translate(375.589094 217.363174) scale(0.1 -0.1)">
      <use xlink:href="#SimHei-30"/>
     </g>
    </g>
   </g>
   <g id="xtick_11">
    <g id="line2d_14">
     <path d="M 358.366503 183.801219 
L 360.736855 185.64346 
" style="fill: none; stroke: #000000; stroke-width: 0.8; stroke-linecap: square"/>
    </g>
    <g id="text_11">
     <!-- 20 -->
     <g transform="translate(374.409537 193.958802) scale(0.1 -0.1)">
      <use xlink:href="#SimHei-32"/>
      <use xlink:href="#SimHei-30" x="50"/>
     </g>
    </g>
   </g>
   <g id="xtick_12">
    <g id="line2d_15">
     <path d="M 359.505124 160.007601 
L 361.900791 161.815091 
" style="fill: none; stroke: #000000; stroke-width: 0.8; stroke-linecap: square"/>
    </g>
    <g id="text_12">
     <!-- 40 -->
     <g transform="translate(375.755432 170.103316) scale(0.1 -0.1)">
      <defs>
       <path id="SimHei-34" d="M 2000 1100 
L 75 1100 
L 75 1525 
L 2100 4450 
L 2475 4450 
L 2475 1525 
L 3075 1525 
L 3075 1100 
L 2475 1100 
L 2475 150 
L 2000 150 
L 2000 1100 
z
M 2000 1525 
L 2000 3500 
L 600 1525 
L 2000 1525 
z
" transform="scale(0.015625)"/>
      </defs>
      <use xlink:href="#SimHei-34"/>
      <use xlink:href="#SimHei-30" x="50"/>
     </g>
    </g>
   </g>
   <g id="xtick_13">
    <g id="line2d_16">
     <path d="M 360.665817 135.752734 
L 363.087341 137.523771 
" style="fill: none; stroke: #000000; stroke-width: 0.8; stroke-linecap: square"/>
    </g>
    <g id="text_13">
     <!-- 60 -->
     <g transform="translate(377.127522 145.783546) scale(0.1 -0.1)">
      <defs>
       <path id="SimHei-36" d="M 250 1612 
Q 275 1975 387 2225 
Q 500 2475 725 2850 
L 1750 4450 
L 2325 4450 
L 1275 2800 
Q 1950 2975 2350 2750 
Q 2750 2525 2887 2237 
Q 3025 1950 3037 1612 
Q 3050 1275 2937 950 
Q 2825 625 2537 362 
Q 2250 100 1737 75 
Q 1225 50 862 262 
Q 500 475 362 862 
Q 225 1250 250 1612 
z
M 1025 787 
Q 1250 550 1625 525 
Q 2000 500 2250 775 
Q 2500 1050 2500 1575 
Q 2500 2100 2187 2300 
Q 1875 2500 1487 2450 
Q 1100 2400 925 2075 
Q 750 1750 775 1387 
Q 800 1025 1025 787 
z
" transform="scale(0.015625)"/>
      </defs>
      <use xlink:href="#SimHei-36"/>
      <use xlink:href="#SimHei-30" x="50"/>
     </g>
    </g>
   </g>
  </g>
  <g id="axes_1">
   <g id="Poly3DCollection_1">
    <path d="M 256.819533 170.677091 
L 261.598274 171.846809 
L 269.504573 173.429431 
L 264.691749 173.059892 
z
" clip-path="url(#p71819adb12)" style="fill: #13486d"/>
    <path d="M 248.874083 168.000677 
L 253.623706 169.977749 
L 261.598274 171.846809 
L 256.819533 170.677091 
z
" clip-path="url(#p71819adb12)" style="fill: #114163"/>
    <path d="M 261.598274 171.846809 
L 266.437448 172.758005 
L 274.382009 173.532236 
L 269.504573 173.429431 
z
" clip-path="url(#p71819adb12)" style="fill: #144e76"/>
    <path d="M 240.85173 165.025506 
L 245.577313 167.817731 
L 253.623706 169.977749 
L 248.874083 168.000677 
z
" clip-path="url(#p71819adb12)" style="fill: #0f3b59"/>
    <path d="M 253.623706 169.977749 
L 258.429653 171.703545 
L 266.437448 172.758005 
L 261.598274 171.846809 
z
" clip-path="url(#p71819adb12)" style="fill: #12476b"/>
    <path d="M 266.437448 172.758005 
L 271.339775 173.406198 
L 279.326917 173.363163 
L 274.382009 173.532236 
z
" clip-path="url(#p71819adb12)" style="fill: #165681"/>
    <path d="M 232.748682 161.74613 
L 237.455421 165.361958 
L 245.577313 167.817731 
L 240.85173 165.025506 
z
" clip-path="url(#p71819adb12)" style="fill: #0e3550"/>
    <path d="M 245.577313 167.817731 
L 250.355164 170.364945 
L 258.429653 171.703545 
L 253.623706 169.977749 
z
" clip-path="url(#p71819adb12)" style="fill: #103f5f"/>
    <path d="M 258.429653 171.703545 
L 263.294507 173.174222 
L 271.339775 173.406198 
L 266.437448 172.758005 
z
" clip-path="url(#p71819adb12)" style="fill: #144e77"/>
    <path d="M 271.339775 173.406198 
L 276.308081 173.786619 
L 284.342278 172.91675 
L 279.326917 173.363163 
z
" clip-path="url(#p71819adb12)" style="fill: #185e8d"/>
    <path d="M 224.561016 158.156792 
L 229.254239 162.605344 
L 237.455421 165.361958 
L 232.748682 161.74613 
z
" clip-path="url(#p71819adb12)" style="fill: #0d3049"/>
    <path d="M 237.455421 165.361958 
L 242.210422 168.738036 
L 250.355164 170.364945 
L 245.577313 167.817731 
z
" clip-path="url(#p71819adb12)" style="fill: #0f3854"/>
    <path d="M 250.355164 170.364945 
L 255.187747 172.663918 
L 263.294507 173.174222 
L 258.429653 171.703545 
z
" clip-path="url(#p71819adb12)" style="fill: #124669"/>
    <path d="M 263.294507 173.174222 
L 268.220955 174.385675 
L 276.308081 173.786619 
L 271.339775 173.406198 
z
" clip-path="url(#p71819adb12)" style="fill: #175784"/>
    <path d="M 229.254239 162.605344 
L 233.991754 166.818382 
L 242.210422 168.738036 
L 237.455421 165.361958 
z
" clip-path="url(#p71819adb12)" style="fill: #0d324b"/>
    <path d="M 216.284672 154.251411 
L 220.969848 159.542505 
L 229.254239 162.605344 
L 224.561016 158.156792 
z
" clip-path="url(#p71819adb12)" style="fill: #0c2d44"/>
    <path d="M 242.210422 168.738036 
L 247.016035 171.871727 
L 255.187747 172.663918 
L 250.355164 170.364945 
z
" clip-path="url(#p71819adb12)" style="fill: #103c5b"/>
    <path d="M 276.308081 173.786619 
L 281.34531 173.8942 
L 289.431201 172.187206 
L 284.342278 172.91675 
z
" clip-path="url(#p71819adb12)" style="fill: #1a6599"/>
    <path d="M 255.187747 172.663918 
L 260.077616 174.71118 
L 268.220955 174.385675 
L 263.294507 173.174222 
z
" clip-path="url(#p71819adb12)" style="fill: #144f77"/>
    <path d="M 220.969848 159.542505 
L 225.695373 164.601271 
L 233.991754 166.818382 
L 229.254239 162.605344 
z
" clip-path="url(#p71819adb12)" style="fill: #0c2d45"/>
    <path d="M 268.220955 174.385675 
L 273.211789 175.333524 
L 281.34531 173.8942 
L 276.308081 173.786619 
z
" clip-path="url(#p71819adb12)" style="fill: #196193"/>
    <path d="M 233.991754 166.818382 
L 238.775808 170.793843 
L 247.016035 171.871727 
L 242.210422 168.738036 
z
" clip-path="url(#p71819adb12)" style="fill: #0e344f"/>
    <path d="M 207.915444 150.02356 
L 212.598195 156.167741 
L 220.969848 159.542505 
L 216.284672 154.251411 
z
" clip-path="url(#p71819adb12)" style="fill: #0b2a40"/>
    <path d="M 247.016035 171.871727 
L 251.874693 174.760174 
L 260.077616 174.71118 
L 255.187747 172.663918 
z
" clip-path="url(#p71819adb12)" style="fill: #124366"/>
    <path d="M 281.34531 173.8942 
L 286.454533 173.723551 
L 294.596928 171.168386 
L 289.431201 172.187206 
z
" clip-path="url(#p71819adb12)" style="fill: #1c6ba2"/>
    <path d="M 260.077616 174.71118 
L 265.027422 176.503014 
L 273.211789 175.333524 
L 268.220955 174.385675 
z
" clip-path="url(#p71819adb12)" style="fill: #185a89"/>
    <path d="M 225.695373 164.601271 
L 230.463399 169.426203 
L 238.775808 170.793843 
L 233.991754 166.818382 
z
" clip-path="url(#p71819adb12)" style="fill: #0c2e46"/>
    <path d="M 212.598195 156.167741 
L 217.317365 162.081698 
L 225.695373 164.601271 
L 220.969848 159.542505 
z
" clip-path="url(#p71819adb12)" style="fill: #0b2a40"/>
    <path d="M 238.775808 170.793843 
L 243.608724 174.529462 
L 251.874693 174.760174 
L 247.016035 171.871727 
z
" clip-path="url(#p71819adb12)" style="fill: #0f3854"/>
    <path d="M 199.44897 145.466457 
L 204.135082 152.475022 
L 212.598195 156.167741 
L 207.915444 150.02356 
z
" clip-path="url(#p71819adb12)" style="fill: #0b293e"/>
    <path d="M 273.211789 175.333524 
L 278.269915 176.013102 
L 286.454533 173.723551 
L 281.34531 173.8942 
z
" clip-path="url(#p71819adb12)" style="fill: #1b699f"/>
    <path d="M 251.874693 174.760174 
L 256.788919 177.400292 
L 265.027422 176.503014 
L 260.077616 174.71118 
z
" clip-path="url(#p71819adb12)" style="fill: #154f78"/>
    <path d="M 217.317365 162.081698 
L 222.075025 167.764475 
L 230.463399 169.426203 
L 225.695373 164.601271 
z
" clip-path="url(#p71819adb12)" style="fill: #0b2b40"/>
    <path d="M 265.027422 176.503014 
L 270.039922 178.035437 
L 278.269915 176.013102 
L 273.211789 175.333524 
z
" clip-path="url(#p71819adb12)" style="fill: #1b669a"/>
    <path d="M 230.463399 169.426203 
L 235.276149 174.01561 
L 243.608724 174.529462 
L 238.775808 170.793843 
z
" clip-path="url(#p71819adb12)" style="fill: #0c2f48"/>
    <path d="M 204.135082 152.475022 
L 208.853688 159.254359 
L 217.317365 162.081698 
L 212.598195 156.167741 
z
" clip-path="url(#p71819adb12)" style="fill: #0b293e"/>
    <path d="M 286.454533 173.723551 
L 291.638947 173.268954 
L 299.842846 169.85378 
L 294.596928 171.168386 
z
" clip-path="url(#p71819adb12)" style="fill: #1d6fa8"/>
    <path d="M 243.608724 174.529462 
L 248.492905 178.022764 
L 256.788919 177.400292 
L 251.874693 174.760174 
z
" clip-path="url(#p71819adb12)" style="fill: #114060"/>
    <path d="M 190.880725 140.572943 
L 195.576162 148.457978 
L 204.135082 152.475022 
L 199.44897 145.466457 
z
" clip-path="url(#p71819adb12)" style="fill: #0a283c"/>
    <path d="M 256.788919 177.400292 
L 261.761329 179.788758 
L 270.039922 178.035437 
L 265.027422 176.503014 
z
" clip-path="url(#p71819adb12)" style="fill: #195f90"/>
    <path d="M 278.269915 176.013102 
L 283.39836 176.419438 
L 291.638947 173.268954 
L 286.454533 173.723551 
z
" clip-path="url(#p71819adb12)" style="fill: #1d6fa7"/>
    <path d="M 222.075025 167.764475 
L 226.873304 173.214938 
L 235.276149 174.01561 
L 230.463399 169.426203 
z
" clip-path="url(#p71819adb12)" style="fill: #0b2b40"/>
    <path d="M 208.853688 159.254359 
L 213.606783 165.804048 
L 222.075025 167.764475 
L 217.317365 162.081698 
z
" clip-path="url(#p71819adb12)" style="fill: #0b283d"/>
    <path d="M 235.276149 174.01561 
L 240.135917 178.367609 
L 248.492905 178.022764 
L 243.608724 174.529462 
z
" clip-path="url(#p71819adb12)" style="fill: #0d324b"/>
    <path d="M 195.576162 148.457978 
L 200.300159 156.113633 
L 208.853688 159.254359 
L 204.135082 152.475022 
z
" clip-path="url(#p71819adb12)" style="fill: #0a283c"/>
    <path d="M 270.039922 178.035437 
L 275.117981 179.304197 
L 283.39836 176.419438 
L 278.269915 176.013102 
z
" clip-path="url(#p71819adb12)" style="fill: #1d6ea6"/>
    <path d="M 248.492905 178.022764 
L 253.43084 181.271057 
L 261.761329 179.788758 
L 256.788919 177.400292 
z
" clip-path="url(#p71819adb12)" style="fill: #155079"/>
    <path d="M 182.206009 135.335465 
L 186.916927 144.109874 
L 195.576162 148.457978 
L 190.880725 140.572943 
z
" clip-path="url(#p71819adb12)" style="fill: #0a273b"/>
    <path d="M 291.638947 173.268954 
L 296.901893 172.524334 
L 305.172493 168.236485 
L 299.842846 169.85378 
z
" clip-path="url(#p71819adb12)" style="fill: #1e72ac"/>
    <path d="M 213.606783 165.804048 
L 218.396417 172.123502 
L 226.873304 173.214938 
L 222.075025 167.764475 
z
" clip-path="url(#p71819adb12)" style="fill: #0a283d"/>
    <path d="M 226.873304 173.214938 
L 231.714401 178.431776 
L 240.135917 178.367609 
L 235.276149 174.01561 
z
" clip-path="url(#p71819adb12)" style="fill: #0b2b41"/>
    <path d="M 261.761329 179.788758 
L 266.794641 181.922 
L 275.117981 179.304197 
L 270.039922 178.035437 
z
" clip-path="url(#p71819adb12)" style="fill: #1c6ca4"/>
    <path d="M 200.300159 156.113633 
L 205.054645 163.540021 
L 213.606783 165.804048 
L 208.853688 159.254359 
z
" clip-path="url(#p71819adb12)" style="fill: #0a273c"/>
    <path d="M 283.39836 176.419438 
L 288.600278 176.547246 
L 296.901893 172.524334 
L 291.638947 173.268954 
z
" clip-path="url(#p71819adb12)" style="fill: #1e72ac"/>
    <path d="M 240.135917 178.367609 
L 245.045078 182.480115 
L 253.43084 181.271057 
L 248.492905 178.022764 
z
" clip-path="url(#p71819adb12)" style="fill: #0f3855"/>
    <path d="M 186.916927 144.109874 
L 191.652448 152.653568 
L 200.300159 156.113633 
L 195.576162 148.457978 
z
" clip-path="url(#p71819adb12)" style="fill: #0a273b"/>
    <path d="M 253.43084 181.271057 
L 258.425111 184.271423 
L 266.794641 181.922 
L 261.761329 179.788758 
z
" clip-path="url(#p71819adb12)" style="fill: #1b689e"/>
    <path d="M 275.117981 179.304197 
L 280.26458 180.30475 
L 288.600278 176.547246 
L 283.39836 176.419438 
z
" clip-path="url(#p71819adb12)" style="fill: #1e72ad"/>
    <path d="M 218.396417 172.123502 
L 223.2247 178.211972 
L 231.714401 178.431776 
L 226.873304 173.214938 
z
" clip-path="url(#p71819adb12)" style="fill: #0a283d"/>
    <path d="M 173.419939 129.746056 
L 178.152699 139.423598 
L 186.916927 144.109874 
L 182.206009 135.335465 
z
" clip-path="url(#p71819adb12)" style="fill: #0a273b"/>
    <path d="M 205.054645 163.540021 
L 209.841599 170.737096 
L 218.396417 172.123502 
L 213.606783 165.804048 
z
" clip-path="url(#p71819adb12)" style="fill: #0a273b"/>
    <path d="M 231.714401 178.431776 
L 236.600583 183.413494 
L 245.045078 182.480115 
L 240.135917 178.367609 
z
" clip-path="url(#p71819adb12)" style="fill: #0b2b42"/>
    <path d="M 191.652448 152.653568 
L 196.414445 160.96719 
L 205.054645 163.540021 
L 200.300159 156.113633 
z
" clip-path="url(#p71819adb12)" style="fill: #0a273b"/>
    <path d="M 296.901893 172.524334 
L 302.246858 171.483248 
L 310.589572 166.309188 
L 305.172493 168.236485 
z
" clip-path="url(#p71819adb12)" style="fill: #1e73ae"/>
    <path d="M 266.794641 181.922 
L 271.891678 183.796186 
L 280.26458 180.30475 
L 275.117981 179.304197 
z
" clip-path="url(#p71819adb12)" style="fill: #1e73ae"/>
    <path d="M 245.045078 182.480115 
L 250.006087 186.350835 
L 258.425111 184.271423 
L 253.43084 181.271057 
z
" clip-path="url(#p71819adb12)" style="fill: #16537e"/>
    <path d="M 178.152699 139.423598 
L 182.906068 148.867868 
L 191.652448 152.653568 
L 186.916927 144.109874 
z
" clip-path="url(#p71819adb12)" style="fill: #0a273b"/>
    <path d="M 288.600278 176.547246 
L 293.878957 176.390904 
L 302.246858 171.483248 
L 296.901893 172.524334 
z
" clip-path="url(#p71819adb12)" style="fill: #1e74af"/>
    <path d="M 209.841599 170.737096 
L 214.663053 177.704655 
L 223.2247 178.211972 
L 218.396417 172.123502 
z
" clip-path="url(#p71819adb12)" style="fill: #0a273b"/>
    <path d="M 223.2247 178.211972 
L 228.093803 184.068531 
L 236.600583 183.413494 
L 231.714401 178.431776 
z
" clip-path="url(#p71819adb12)" style="fill: #0a283d"/>
    <path d="M 196.414445 160.96719 
L 201.204836 169.051231 
L 209.841599 170.737096 
L 205.054645 163.540021 
z
" clip-path="url(#p71819adb12)" style="fill: #0a273b"/>
    <path d="M 258.425111 184.271423 
L 263.478394 187.020705 
L 271.891678 183.796186 
L 266.794641 181.922 
z
" clip-path="url(#p71819adb12)" style="fill: #1e74af"/>
    <path d="M 236.600583 183.413494 
L 241.534191 188.158403 
L 250.006087 186.350835 
L 245.045078 182.480115 
z
" clip-path="url(#p71819adb12)" style="fill: #0c2e45"/>
    <path d="M 164.517437 123.79631 
L 169.278619 134.391644 
L 178.152699 139.423598 
L 173.419939 129.746056 
z
" clip-path="url(#p71819adb12)" style="fill: #0a273a"/>
    <path d="M 280.26458 180.30475 
L 285.482826 181.032254 
L 293.878957 176.390904 
L 288.600278 176.547246 
z
" clip-path="url(#p71819adb12)" style="fill: #1e74b0"/>
    <path d="M 182.906068 148.867868 
L 187.681874 158.080036 
L 196.414445 160.96719 
L 191.652448 152.653568 
z
" clip-path="url(#p71819adb12)" style="fill: #0a273a"/>
    <path d="M 250.006087 186.350835 
L 255.021486 189.977263 
L 263.478394 187.020705 
L 258.425111 184.271423 
z
" clip-path="url(#p71819adb12)" style="fill: #1f76b2"/>
    <path d="M 214.663053 177.704655 
L 219.521095 184.442333 
L 228.093803 184.068531 
L 223.2247 178.211972 
z
" clip-path="url(#p71819adb12)" style="fill: #0a283c"/>
    <path d="M 271.891678 183.796186 
L 277.055376 185.407211 
L 285.482826 181.032254 
L 280.26458 180.30475 
z
" clip-path="url(#p71819adb12)" style="fill: #1e75b1"/>
    <path d="M 201.204836 169.051231 
L 206.025586 176.906027 
L 214.663053 177.704655 
L 209.841599 170.737096 
z
" clip-path="url(#p71819adb12)" style="fill: #0a273b"/>
    <path d="M 169.278619 134.391644 
L 174.056367 144.749873 
L 182.906068 148.867868 
L 178.152699 139.423598 
z
" clip-path="url(#p71819adb12)" style="fill: #0a273a"/>
    <path d="M 228.093803 184.068531 
L 233.005968 189.692079 
L 241.534191 188.158403 
L 236.600583 183.413494 
z
" clip-path="url(#p71819adb12)" style="fill: #0b293f"/>
    <path d="M 302.246858 171.483248 
L 307.677487 170.138859 
L 316.097956 164.064139 
L 310.589572 166.309188 
z
" clip-path="url(#p71819adb12)" style="fill: #1e74b0"/>
    <path d="M 187.681874 158.080036 
L 192.481985 167.061128 
L 201.204836 169.051231 
L 196.414445 160.96719 
z
" clip-path="url(#p71819adb12)" style="fill: #0a273b"/>
    <path d="M 241.534191 188.158403 
L 246.517648 192.664619 
L 255.021486 189.977263 
L 250.006087 186.350835 
z
" clip-path="url(#p71819adb12)" style="fill: #175986"/>
    <path d="M 263.478394 187.020705 
L 268.593468 189.515502 
L 277.055376 185.407211 
L 271.891678 183.796186 
z
" clip-path="url(#p71819adb12)" style="fill: #1f76b2"/>
    <path d="M 293.878957 176.390904 
L 299.237832 175.944438 
L 307.677487 170.138859 
L 302.246858 171.483248 
z
" clip-path="url(#p71819adb12)" style="fill: #1e75b0"/>
    <path d="M 174.056367 144.749873 
L 178.852474 154.872706 
L 187.681874 158.080036 
L 182.906068 148.867868 
z
" clip-path="url(#p71819adb12)" style="fill: #0a273a"/>
    <path d="M 155.493215 117.477365 
L 160.289639 129.006083 
L 169.278619 134.391644 
L 164.517437 123.79631 
z
" clip-path="url(#p71819adb12)" style="fill: #0a263a"/>
    <path d="M 206.025586 176.906027 
L 210.87871 184.531765 
L 219.521095 184.442333 
L 214.663053 177.704655 
z
" clip-path="url(#p71819adb12)" style="fill: #0a283c"/>
    <path d="M 219.521095 184.442333 
L 224.417873 190.949597 
L 233.005968 189.692079 
L 228.093803 184.068531 
z
" clip-path="url(#p71819adb12)" style="fill: #0b293e"/>
    <path d="M 285.482826 181.032254 
L 290.775956 181.481549 
L 299.237832 175.944438 
L 293.878957 176.390904 
z
" clip-path="url(#p71819adb12)" style="fill: #1e75b1"/>
    <path d="M 192.481985 167.061128 
L 197.308308 175.812021 
L 206.025586 176.906027 
L 201.204836 169.051231 
z
" clip-path="url(#p71819adb12)" style="fill: #0a273b"/>
    <path d="M 255.021486 189.977263 
L 260.093911 193.356666 
L 268.593468 189.515502 
L 263.478394 187.020705 
z
" clip-path="url(#p71819adb12)" style="fill: #1f76b3"/>
    <path d="M 233.005968 189.692079 
L 237.963504 195.08133 
L 246.517648 192.664619 
L 241.534191 188.158403 
z
" clip-path="url(#p71819adb12)" style="fill: #0d334d"/>
    <path d="M 160.289639 129.006083 
L 165.09852 140.292544 
L 174.056367 144.749873 
L 169.278619 134.391644 
z
" clip-path="url(#p71819adb12)" style="fill: #0a273a"/>
    <path d="M 178.852474 154.872706 
L 183.668765 164.761706 
L 192.481985 167.061128 
L 187.681874 158.080036 
z
" clip-path="url(#p71819adb12)" style="fill: #0a273b"/>
    <path d="M 277.055376 185.407211 
L 282.288789 186.750684 
L 290.775956 181.481549 
L 285.482826 181.032254 
z
" clip-path="url(#p71819adb12)" style="fill: #1f75b2"/>
    <path d="M 246.517648 192.664619 
L 251.553458 196.930051 
L 260.093911 193.356666 
L 255.021486 189.977263 
z
" clip-path="url(#p71819adb12)" style="fill: #1d6fa8"/>
    <path d="M 210.87871 184.531765 
L 215.766274 191.928469 
L 224.417873 190.949597 
L 219.521095 184.442333 
z
" clip-path="url(#p71819adb12)" style="fill: #0b293e"/>
    <path d="M 197.308308 175.812021 
L 202.162793 184.333444 
L 210.87871 184.531765 
L 206.025586 176.906027 
z
" clip-path="url(#p71819adb12)" style="fill: #0a283c"/>
    <path d="M 307.677487 170.138859 
L 313.197594 168.483919 
L 321.701701 161.493127 
L 316.097956 164.064139 
z
" clip-path="url(#p71819adb12)" style="fill: #1e75b1"/>
    <path d="M 268.593468 189.515502 
L 273.773221 191.752153 
L 282.288789 186.750684 
L 277.055376 185.407211 
z
" clip-path="url(#p71819adb12)" style="fill: #1f76b2"/>
    <path d="M 165.09852 140.292544 
L 169.921623 151.339004 
L 178.852474 154.872706 
L 174.056367 144.749873 
z
" clip-path="url(#p71819adb12)" style="fill: #0a273a"/>
    <path d="M 224.417873 190.949597 
L 229.3556 197.225746 
L 237.963504 195.08133 
L 233.005968 189.692079 
z
" clip-path="url(#p71819adb12)" style="fill: #0c2e46"/>
    <path d="M 183.668765 164.761706 
L 188.507099 174.418291 
L 197.308308 175.812021 
L 192.481985 167.061128 
z
" clip-path="url(#p71819adb12)" style="fill: #0a273b"/>
    <path d="M 299.237832 175.944438 
L 304.680488 175.201501 
L 313.197594 168.483919 
L 307.677487 170.138859 
z
" clip-path="url(#p71819adb12)" style="fill: #1e75b1"/>
    <path d="M 146.341766 110.77987 
L 151.180507 123.25855 
L 160.289639 129.006083 
L 155.493215 117.477365 
z
" clip-path="url(#p71819adb12)" style="fill: #0a263a"/>
    <path d="M 237.963504 195.08133 
L 242.968797 200.234811 
L 251.553458 196.930051 
L 246.517648 192.664619 
z
" clip-path="url(#p71819adb12)" style="fill: #15517b"/>
    <path d="M 260.093911 193.356666 
L 265.226098 196.486079 
L 273.773221 191.752153 
L 268.593468 189.515502 
z
" clip-path="url(#p71819adb12)" style="fill: #1e75b1"/>
    <path d="M 169.921623 151.339004 
L 174.760745 162.147569 
L 183.668765 164.761706 
L 178.852474 154.872706 
z
" clip-path="url(#p71819adb12)" style="fill: #0a273b"/>
    <path d="M 290.775956 181.481549 
L 296.147345 181.64714 
L 304.680488 175.201501 
L 299.237832 175.944438 
z
" clip-path="url(#p71819adb12)" style="fill: #1f75b1"/>
    <path d="M 202.162793 184.333444 
L 207.047438 192.625973 
L 215.766274 191.928469 
L 210.87871 184.531765 
z
" clip-path="url(#p71819adb12)" style="fill: #0b293e"/>
    <path d="M 151.180507 123.25855 
L 156.02751 135.488445 
L 165.09852 140.292544 
L 160.289639 129.006083 
z
" clip-path="url(#p71819adb12)" style="fill: #0a273a"/>
    <path d="M 215.766274 191.928469 
L 220.690402 199.096007 
L 229.3556 197.225746 
L 224.417873 190.949597 
z
" clip-path="url(#p71819adb12)" style="fill: #0c2d44"/>
    <path d="M 188.507099 174.418291 
L 193.369375 183.84373 
L 202.162793 184.333444 
L 197.308308 175.812021 
z
" clip-path="url(#p71819adb12)" style="fill: #0a283c"/>
    <path d="M 282.288789 186.750684 
L 287.5951 187.821917 
L 296.147345 181.64714 
L 290.775956 181.481549 
z
" clip-path="url(#p71819adb12)" style="fill: #1f75b1"/>
    <path d="M 251.553458 196.930051 
L 256.644214 200.952397 
L 265.226098 196.486079 
L 260.093911 193.356666 
z
" clip-path="url(#p71819adb12)" style="fill: #1d70aa"/>
    <path d="M 229.3556 197.225746 
L 234.336554 203.269903 
L 242.968797 200.234811 
L 237.963504 195.08133 
z
" clip-path="url(#p71819adb12)" style="fill: #103d5c"/>
    <path d="M 174.760745 162.147569 
L 179.617707 172.720202 
L 188.507099 174.418291 
L 183.668765 164.761706 
z
" clip-path="url(#p71819adb12)" style="fill: #0a273c"/>
    <path d="M 156.02751 135.488445 
L 160.88453 147.472369 
L 169.921623 151.339004 
L 165.09852 140.292544 
z
" clip-path="url(#p71819adb12)" style="fill: #0a273b"/>
    <path d="M 273.773221 191.752153 
L 279.020657 193.72673 
L 287.5951 187.821917 
L 282.288789 186.750684 
z
" clip-path="url(#p71819adb12)" style="fill: #1e75b1"/>
    <path d="M 242.968797 200.234811 
L 248.024314 205.150856 
L 256.644214 200.952397 
L 251.553458 196.930051 
z
" clip-path="url(#p71819adb12)" style="fill: #1a6396"/>
    <path d="M 207.047438 192.625973 
L 211.964289 200.690033 
L 220.690402 199.096007 
L 215.766274 191.928469 
z
" clip-path="url(#p71819adb12)" style="fill: #0c2c43"/>
    <path d="M 193.369375 183.84373 
L 198.257531 193.039149 
L 207.047438 192.625973 
L 202.162793 184.333444 
z
" clip-path="url(#p71819adb12)" style="fill: #0b293f"/>
    <path d="M 313.197594 168.483919 
L 318.811171 166.510738 
L 327.405061 158.587452 
L 321.701701 161.493127 
z
" clip-path="url(#p71819adb12)" style="fill: #1e75b1"/>
    <path d="M 137.057351 103.693968 
L 141.945755 117.140218 
L 151.180507 123.25855 
L 146.341766 110.77987 
z
" clip-path="url(#p71819adb12)" style="fill: #0a263a"/>
    <path d="M 220.690402 199.096007 
L 225.653278 206.034081 
L 234.336554 203.269903 
L 229.3556 197.225746 
z
" clip-path="url(#p71819adb12)" style="fill: #0e3550"/>
    <path d="M 160.88453 147.472369 
L 165.75334 159.212988 
L 174.760745 162.147569 
L 169.921623 151.339004 
z
" clip-path="url(#p71819adb12)" style="fill: #0a273b"/>
    <path d="M 265.226098 196.486079 
L 270.420883 199.362293 
L 279.020657 193.72673 
L 273.773221 191.752153 
z
" clip-path="url(#p71819adb12)" style="fill: #1e74af"/>
    <path d="M 179.617707 172.720202 
L 184.494366 183.058719 
L 193.369375 183.84373 
L 188.507099 174.418291 
z
" clip-path="url(#p71819adb12)" style="fill: #0a283d"/>
    <path d="M 304.680488 175.201501 
L 310.210675 174.155356 
L 318.811171 166.510738 
L 313.197594 168.483919 
z
" clip-path="url(#p71819adb12)" style="fill: #1f75b1"/>
    <path d="M 141.945755 117.140218 
L 146.838129 130.329717 
L 156.02751 135.488445 
L 151.180507 123.25855 
z
" clip-path="url(#p71819adb12)" style="fill: #0a273a"/>
    <path d="M 234.336554 203.269903 
L 239.363085 209.081012 
L 248.024314 205.150856 
L 242.968797 200.234811 
z
" clip-path="url(#p71819adb12)" style="fill: #155078"/>
    <path d="M 296.147345 181.64714 
L 301.600518 181.523182 
L 310.210675 174.155356 
L 304.680488 175.201501 
z
" clip-path="url(#p71819adb12)" style="fill: #1f75b1"/>
    <path d="M 256.644214 200.952397 
L 261.792605 204.729134 
L 270.420883 199.362293 
L 265.226098 196.486079 
z
" clip-path="url(#p71819adb12)" style="fill: #1d71aa"/>
    <path d="M 165.75334 159.212988 
L 170.635737 170.712817 
L 179.617707 172.720202 
L 174.760745 162.147569 
z
" clip-path="url(#p71819adb12)" style="fill: #0a283c"/>
    <path d="M 198.257531 193.039149 
L 203.173549 202.005524 
L 211.964289 200.690033 
L 207.047438 192.625973 
z
" clip-path="url(#p71819adb12)" style="fill: #0b2c42"/>
    <path d="M 211.964289 200.690033 
L 216.915448 208.525894 
L 225.653278 206.034081 
L 220.690402 199.096007 
z
" clip-path="url(#p71819adb12)" style="fill: #0d324b"/>
    <path d="M 287.5951 187.821917 
L 292.977626 188.615903 
L 301.600518 181.523182 
L 296.147345 181.64714 
z
" clip-path="url(#p71819adb12)" style="fill: #1e75b1"/>
    <path d="M 146.838129 130.329717 
L 151.736223 143.265862 
L 160.88453 147.472369 
L 156.02751 135.488445 
z
" clip-path="url(#p71819adb12)" style="fill: #0a273b"/>
    <path d="M 184.494366 183.058719 
L 189.392611 193.164792 
L 198.257531 193.039149 
L 193.369375 183.84373 
z
" clip-path="url(#p71819adb12)" style="fill: #0b293f"/>
    <path d="M 248.024314 205.150856 
L 253.132606 209.827596 
L 261.792605 204.729134 
L 256.644214 200.952397 
z
" clip-path="url(#p71819adb12)" style="fill: #1b699f"/>
    <path d="M 225.653278 206.034081 
L 230.657151 212.742228 
L 239.363085 209.081012 
L 234.336554 203.269903 
z
" clip-path="url(#p71819adb12)" style="fill: #114263"/>
    <path d="M 279.020657 193.72673 
L 284.338901 195.435019 
L 292.977626 188.615903 
L 287.5951 187.821917 
z
" clip-path="url(#p71819adb12)" style="fill: #1e75b0"/>
    <path d="M 170.635737 170.712817 
L 175.533545 181.974227 
L 184.494366 183.058719 
L 179.617707 172.720202 
z
" clip-path="url(#p71819adb12)" style="fill: #0b283d"/>
    <path d="M 151.736223 143.265862 
L 156.6418 155.95189 
L 165.75334 159.212988 
L 160.88453 147.472369 
z
" clip-path="url(#p71819adb12)" style="fill: #0a273b"/>
    <path d="M 270.420883 199.362293 
L 275.681217 201.981845 
L 284.338901 195.435019 
L 279.020657 193.72673 
z
" clip-path="url(#p71819adb12)" style="fill: #1e73ae"/>
    <path d="M 203.173549 202.005524 
L 208.119455 210.74368 
L 216.915448 208.525894 
L 211.964289 200.690033 
z
" clip-path="url(#p71819adb12)" style="fill: #0c3048"/>
    <path d="M 239.363085 209.081012 
L 244.437622 214.657833 
L 253.132606 209.827596 
L 248.024314 205.150856 
z
" clip-path="url(#p71819adb12)" style="fill: #185c8c"/>
    <path d="M 189.392611 193.164792 
L 194.314369 203.039946 
L 203.173549 202.005524 
L 198.257531 193.039149 
z
" clip-path="url(#p71819adb12)" style="fill: #0b2c42"/>
    <path d="M 216.915448 208.525894 
L 221.90307 216.133668 
L 230.657151 212.742228 
L 225.653278 206.034081 
z
" clip-path="url(#p71819adb12)" style="fill: #0f3a58"/>
    <path d="M 318.811171 166.510738 
L 324.522398 164.211164 
L 333.212497 155.337895 
L 327.405061 158.587452 
z
" clip-path="url(#p71819adb12)" style="fill: #1e75b1"/>
    <path d="M 156.6418 155.95189 
L 161.556643 168.390886 
L 170.635737 170.712817 
L 165.75334 159.212988 
z
" clip-path="url(#p71819adb12)" style="fill: #0a283c"/>
    <path d="M 175.533545 181.974227 
L 180.448617 192.99944 
L 189.392611 193.164792 
L 184.494366 183.058719 
z
" clip-path="url(#p71819adb12)" style="fill: #0b2a3f"/>
    <path d="M 261.792605 204.729134 
L 267.001418 208.257509 
L 275.681217 201.981845 
L 270.420883 199.362293 
z
" clip-path="url(#p71819adb12)" style="fill: #1d71aa"/>
    <path d="M 310.210675 174.155356 
L 315.832315 172.798849 
L 324.522398 164.211164 
L 318.811171 166.510738 
z
" clip-path="url(#p71819adb12)" style="fill: #1e75b1"/>
    <path d="M 230.657151 212.742228 
L 235.704336 219.219811 
L 244.437622 214.657833 
L 239.363085 209.081012 
z
" clip-path="url(#p71819adb12)" style="fill: #154f77"/>
    <path d="M 301.600518 181.523182 
L 307.139158 181.103459 
L 315.832315 172.798849 
L 310.210675 174.155356 
z
" clip-path="url(#p71819adb12)" style="fill: #1e75b1"/>
    <path d="M 253.132606 209.827596 
L 258.296313 214.262954 
L 267.001418 208.257509 
L 261.792605 204.729134 
z
" clip-path="url(#p71819adb12)" style="fill: #1c6ba2"/>
    <path d="M 161.556643 168.390886 
L 166.482556 180.585783 
L 175.533545 181.974227 
L 170.635737 170.712817 
z
" clip-path="url(#p71819adb12)" style="fill: #0b283d"/>
    <path d="M 194.314369 203.039946 
L 199.261608 212.685561 
L 208.119455 210.74368 
L 203.173549 202.005524 
z
" clip-path="url(#p71819adb12)" style="fill: #0c2f47"/>
    <path d="M 292.977626 188.615903 
L 298.439827 189.127306 
L 307.139158 181.103459 
L 301.600518 181.523182 
z
" clip-path="url(#p71819adb12)" style="fill: #1e75b1"/>
    <path d="M 208.119455 210.74368 
L 213.097329 219.254295 
L 221.90307 216.133668 
L 216.915448 208.525894 
z
" clip-path="url(#p71819adb12)" style="fill: #0e3652"/>
    <path d="M 180.448617 192.99944 
L 185.382836 203.790532 
L 194.314369 203.039946 
L 189.392611 193.164792 
z
" clip-path="url(#p71819adb12)" style="fill: #0b2b42"/>
    <path d="M 284.338901 195.435019 
L 289.731207 196.872512 
L 298.439827 189.127306 
L 292.977626 188.615903 
z
" clip-path="url(#p71819adb12)" style="fill: #1e74b0"/>
    <path d="M 221.90307 216.133668 
L 226.929374 223.513304 
L 235.704336 219.219811 
L 230.657151 212.742228 
z
" clip-path="url(#p71819adb12)" style="fill: #124568"/>
    <path d="M 244.437622 214.657833 
L 249.562672 219.998934 
L 258.296313 214.262954 
L 253.132606 209.827596 
z
" clip-path="url(#p71819adb12)" style="fill: #1a6396"/>
    <path d="M 166.482556 180.585783 
L 171.421365 192.539365 
L 180.448617 192.99944 
L 175.533545 181.974227 
z
" clip-path="url(#p71819adb12)" style="fill: #0b2a3f"/>
    <path d="M 275.681217 201.981845 
L 281.010166 204.341006 
L 289.731207 196.872512 
L 284.338901 195.435019 
z
" clip-path="url(#p71819adb12)" style="fill: #1e73ae"/>
    <path d="M 199.261608 212.685561 
L 204.236336 222.10287 
L 213.097329 219.254295 
L 208.119455 210.74368 
z
" clip-path="url(#p71819adb12)" style="fill: #0d334e"/>
    <path d="M 185.382836 203.790532 
L 190.338119 214.349437 
L 199.261608 212.685561 
L 194.314369 203.039946 
z
" clip-path="url(#p71819adb12)" style="fill: #0c2e46"/>
    <path d="M 235.704336 219.219811 
L 240.797221 225.466019 
L 249.562672 219.998934 
L 244.437622 214.657833 
z
" clip-path="url(#p71819adb12)" style="fill: #175986"/>
    <path d="M 267.001418 208.257509 
L 272.273548 211.53453 
L 281.010166 204.341006 
L 275.681217 201.981845 
z
" clip-path="url(#p71819adb12)" style="fill: #1d71aa"/>
    <path d="M 213.097329 219.254295 
L 218.109299 227.537893 
L 226.929374 223.513304 
L 221.90307 216.133668 
z
" clip-path="url(#p71819adb12)" style="fill: #103e5d"/>
    <path d="M 171.421365 192.539365 
L 176.374921 204.254268 
L 185.382836 203.790532 
L 180.448617 192.99944 
z
" clip-path="url(#p71819adb12)" style="fill: #0b2b41"/>
    <path d="M 258.296313 214.262954 
L 263.518172 218.454635 
L 272.273548 211.53453 
L 267.001418 208.257509 
z
" clip-path="url(#p71819adb12)" style="fill: #1c6da4"/>
    <path d="M 324.522398 164.211164 
L 330.33566 161.576553 
L 339.128692 151.734683 
L 333.212497 155.337895 
z
" clip-path="url(#p71819adb12)" style="fill: #1e75b1"/>
    <path d="M 226.929374 223.513304 
L 231.996639 230.664591 
L 240.797221 225.466019 
L 235.704336 219.219811 
z
" clip-path="url(#p71819adb12)" style="fill: #144f77"/>
    <path d="M 315.832315 172.798849 
L 321.549514 171.12439 
L 330.33566 161.576553 
L 324.522398 164.211164 
z
" clip-path="url(#p71819adb12)" style="fill: #1e75b1"/>
    <path d="M 307.139158 181.103459 
L 312.767113 180.381365 
L 321.549514 171.12439 
L 315.832315 172.798849 
z
" clip-path="url(#p71819adb12)" style="fill: #1e75b1"/>
    <path d="M 190.338119 214.349437 
L 195.316421 224.677942 
L 204.236336 222.10287 
L 199.261608 212.685561 
z
" clip-path="url(#p71819adb12)" style="fill: #0d324b"/>
    <path d="M 249.562672 219.998934 
L 254.740828 225.102686 
L 263.518172 218.454635 
L 258.296313 214.262954 
z
" clip-path="url(#p71819adb12)" style="fill: #1b679c"/>
    <path d="M 204.236336 222.10287 
L 209.240611 231.29296 
L 218.109299 227.537893 
L 213.097329 219.254295 
z
" clip-path="url(#p71819adb12)" style="fill: #0f3957"/>
    <path d="M 298.439827 189.127306 
L 303.985313 189.350442 
L 312.767113 180.381365 
L 307.139158 181.103459 
z
" clip-path="url(#p71819adb12)" style="fill: #1e74b0"/>
    <path d="M 176.374921 204.254268 
L 181.345103 215.73298 
L 190.338119 214.349437 
L 185.382836 203.790532 
z
" clip-path="url(#p71819adb12)" style="fill: #0c2d45"/>
    <path d="M 289.731207 196.872512 
L 295.200968 198.034387 
L 303.985313 189.350442 
L 298.439827 189.127306 
z
" clip-path="url(#p71819adb12)" style="fill: #1e74af"/>
    <path d="M 218.109299 227.537893 
L 223.157554 235.594841 
L 231.996639 230.664591 
L 226.929374 223.513304 
z
" clip-path="url(#p71819adb12)" style="fill: #12466a"/>
    <path d="M 240.797221 225.466019 
L 245.93827 231.47986 
L 254.740828 225.102686 
L 249.562672 219.998934 
z
" clip-path="url(#p71819adb12)" style="fill: #195f90"/>
    <path d="M 281.010166 204.341006 
L 286.410921 206.435767 
L 295.200968 198.034387 
L 289.731207 196.872512 
z
" clip-path="url(#p71819adb12)" style="fill: #1e73ad"/>
    <path d="M 195.316421 224.677942 
L 200.319734 234.777691 
L 209.240611 231.29296 
L 204.236336 222.10287 
z
" clip-path="url(#p71819adb12)" style="fill: #0e3652"/>
    <path d="M 272.273548 211.53453 
L 277.612001 214.556952 
L 286.410921 206.435767 
L 281.010166 204.341006 
z
" clip-path="url(#p71819adb12)" style="fill: #1d71aa"/>
    <path d="M 181.345103 215.73298 
L 186.333821 226.977845 
L 195.316421 224.677942 
L 190.338119 214.349437 
z
" clip-path="url(#p71819adb12)" style="fill: #0d3049"/>
    <path d="M 231.996639 230.664591 
L 237.107216 237.587148 
L 245.93827 231.47986 
L 240.797221 225.466019 
z
" clip-path="url(#p71819adb12)" style="fill: #175683"/>
    <path d="M 209.240611 231.29296 
L 214.276536 240.256769 
L 223.157554 235.594841 
L 218.109299 227.537893 
z
" clip-path="url(#p71819adb12)" style="fill: #114061"/>
    <path d="M 263.518172 218.454635 
L 268.801022 222.40012 
L 277.612001 214.556952 
L 272.273548 211.53453 
z
" clip-path="url(#p71819adb12)" style="fill: #1d6da6"/>
    <path d="M 254.740828 225.102686 
L 259.974776 229.967256 
L 268.801022 222.40012 
L 263.518172 218.454635 
z
" clip-path="url(#p71819adb12)" style="fill: #1b699f"/>
    <path d="M 223.157554 235.594841 
L 228.24434 243.425351 
L 237.107216 237.587148 
L 231.996639 230.664591 
z
" clip-path="url(#p71819adb12)" style="fill: #144e76"/>
    <path d="M 186.333821 226.977845 
L 191.343018 237.991064 
L 200.319734 234.777691 
L 195.316421 224.677942 
z
" clip-path="url(#p71819adb12)" style="fill: #0e344f"/>
    <path d="M 200.319734 234.777691 
L 205.350094 244.650182 
L 214.276536 240.256769 
L 209.240611 231.29296 
z
" clip-path="url(#p71819adb12)" style="fill: #103c5b"/>
    <path d="M 245.93827 231.47986 
L 251.130031 237.260155 
L 259.974776 229.967256 
L 254.740828 225.102686 
z
" clip-path="url(#p71819adb12)" style="fill: #1a6396"/>
    <path d="M 330.33566 161.576553 
L 336.255557 158.597738 
L 345.158566 147.76746 
L 339.128692 151.734683 
z
" clip-path="url(#p71819adb12)" style="fill: #1e75b1"/>
    <path d="M 321.549514 171.12439 
L 327.366575 169.123921 
L 336.255557 158.597738 
L 330.33566 161.576553 
z
" clip-path="url(#p71819adb12)" style="fill: #1e75b1"/>
    <path d="M 312.767113 180.381365 
L 318.488411 179.349877 
L 327.366575 169.123921 
L 321.549514 171.12439 
z
" clip-path="url(#p71819adb12)" style="fill: #1e75b0"/>
    <path d="M 214.276536 240.256769 
L 219.34627 248.995083 
L 228.24434 243.425351 
L 223.157554 235.594841 
z
" clip-path="url(#p71819adb12)" style="fill: #13476c"/>
    <path d="M 303.985313 189.350442 
L 309.61786 189.279256 
L 318.488411 179.349877 
L 312.767113 180.381365 
z
" clip-path="url(#p71819adb12)" style="fill: #1e74b0"/>
    <path d="M 295.200968 198.034387 
L 300.751725 198.915497 
L 309.61786 189.279256 
L 303.985313 189.350442 
z
" clip-path="url(#p71819adb12)" style="fill: #1e73af"/>
    <path d="M 237.107216 237.587148 
L 242.263526 244.280422 
L 251.130031 237.260155 
L 245.93827 231.47986 
z
" clip-path="url(#p71819adb12)" style="fill: #185c8b"/>
    <path d="M 286.410921 206.435767 
L 291.886807 208.261828 
L 300.751725 198.915497 
L 295.200968 198.034387 
z
" clip-path="url(#p71819adb12)" style="fill: #1e72ad"/>
    <path d="M 191.343018 237.991064 
L 196.374671 248.774692 
L 205.350094 244.650182 
L 200.319734 234.777691 
z
" clip-path="url(#p71819adb12)" style="fill: #0f3956"/>
    <path d="M 277.612001 214.556952 
L 283.019904 217.321274 
L 291.886807 208.261828 
L 286.410921 206.435767 
z
" clip-path="url(#p71819adb12)" style="fill: #1d71aa"/>
    <path d="M 205.350094 244.650182 
L 210.409582 254.296769 
L 219.34627 248.995083 
L 214.276536 240.256769 
z
" clip-path="url(#p71819adb12)" style="fill: #114264"/>
    <path d="M 228.24434 243.425351 
L 233.371968 251.029474 
L 242.263526 244.280422 
L 237.107216 237.587148 
z
" clip-path="url(#p71819adb12)" style="fill: #165580"/>
    <path d="M 268.801022 222.40012 
L 274.147807 226.096657 
L 283.019904 217.321274 
L 277.612001 214.556952 
z
" clip-path="url(#p71819adb12)" style="fill: #1d6ea6"/>
    <path d="M 259.974776 229.967256 
L 265.267296 234.5906 
L 274.147807 226.096657 
L 268.801022 222.40012 
z
" clip-path="url(#p71819adb12)" style="fill: #1c6aa1"/>
    <path d="M 219.34627 248.995083 
L 224.452026 257.50854 
L 233.371968 251.029474 
L 228.24434 243.425351 
z
" clip-path="url(#p71819adb12)" style="fill: #144e76"/>
    <path d="M 251.130031 237.260155 
L 256.375134 242.805532 
L 265.267296 234.5906 
L 259.974776 229.967256 
z
" clip-path="url(#p71819adb12)" style="fill: #1b669a"/>
    <path d="M 196.374671 248.774692 
L 201.430798 259.330643 
L 210.409582 254.296769 
L 205.350094 244.650182 
z
" clip-path="url(#p71819adb12)" style="fill: #103e5e"/>
    <path d="M 242.263526 244.280422 
L 247.468068 250.743684 
L 256.375134 242.805532 
L 251.130031 237.260155 
z
" clip-path="url(#p71819adb12)" style="fill: #196092"/>
    <path d="M 210.409582 254.296769 
L 215.500328 263.71866 
L 224.452026 257.50854 
L 219.34627 248.995083 
z
" clip-path="url(#p71819adb12)" style="fill: #13486d"/>
    <path d="M 233.371968 251.029474 
L 238.542818 258.407098 
L 247.468068 250.743684 
L 242.263526 244.280422 
z
" clip-path="url(#p71819adb12)" style="fill: #175a88"/>
    <path d="M 201.430798 259.330643 
L 206.513457 269.660687 
L 215.500328 263.71866 
L 210.409582 254.296769 
z
" clip-path="url(#p71819adb12)" style="fill: #124466"/>
    <path d="M 224.452026 257.50854 
L 229.596079 265.797622 
L 238.542818 258.407098 
L 233.371968 251.029474 
z
" clip-path="url(#p71819adb12)" style="fill: #16547f"/>
    <path d="M 215.500328 263.71866 
L 220.624514 272.916916 
L 229.596079 265.797622 
L 224.452026 257.50854 
z
" clip-path="url(#p71819adb12)" style="fill: #144e76"/>
    <path d="M 206.513457 269.660687 
L 211.624751 279.766452 
L 220.624514 272.916916 
L 215.500328 263.71866 
z
" clip-path="url(#p71819adb12)" style="fill: #13496e"/>
   </g>
  </g>
 </g>
 <defs>
  <clipPath id="p71819adb12">
   <rect x="103.104" y="41.472" width="266.112" height="266.112"/>
  </clipPath>
 </defs>
</svg>
